# d10 from qb64-dungeon (DICE3D)
# set: Amethyst Marble   bevel: 0.500000
# atlas is 1536x1280 -- the FIRST column is full-bright;
# the columns to its right are pre-darkened lighting levels the GAME samples.
# For rendering, light it yourself and use column 0 only (that is what these UVs use).
mtllib d10.mtl
o d10
v 0.000000 0.000000 1.000000
v 0.000000 0.000000 -1.000000
v 0.697653 0.506875 0.105573
v 0.266480 0.820141 -0.105573
v -0.266480 0.820140 0.105573
v -0.697653 0.506875 -0.105573
v -0.862347 -0.000000 0.105573
v -0.697653 -0.506875 -0.105573
v -0.266480 -0.820141 0.105573
v 0.266480 -0.820141 -0.105573
v 0.697653 -0.506875 0.105573
v 0.862347 -0.000000 -0.105573
v -0.226799 0.794639 0.120947
v 0.015697 0.048311 0.934875
v 0.650562 0.509567 0.120947
v 0.258194 0.794639 -0.071196
v 0.685662 0.461256 0.120947
v 0.050797 0.000000 0.934875
v 0.685662 -0.461256 0.120947
v 0.835533 -0.000000 -0.071196
v -0.675960 0.491114 -0.071196
v -0.825831 0.029858 0.120947
v -0.041096 0.029858 0.934875
v -0.283592 0.776186 0.120947
v -0.283592 -0.776186 0.120947
v -0.041096 -0.029858 0.934875
v -0.825831 -0.029858 0.120947
v -0.675960 -0.491114 -0.071196
v 0.650562 -0.509567 0.120947
v 0.015697 -0.048311 0.934875
v -0.226799 -0.794639 0.120947
v 0.258194 -0.794639 -0.071196
v 0.825831 0.029858 -0.120947
v 0.041096 0.029858 -0.934875
v 0.283592 0.776186 -0.120947
v 0.675960 0.491114 0.071196
v -0.258194 0.794639 0.071196
v 0.226799 0.794639 -0.120947
v -0.015697 0.048311 -0.934875
v -0.650562 0.509567 -0.120947
v -0.685662 0.461256 -0.120947
v -0.050797 -0.000000 -0.934875
v -0.685662 -0.461256 -0.120947
v -0.835533 -0.000000 0.071196
v -0.650562 -0.509567 -0.120947
v -0.015697 -0.048311 -0.934875
v 0.226799 -0.794639 -0.120947
v -0.258194 -0.794639 0.071196
v 0.283592 -0.776186 -0.120947
v 0.041096 -0.029858 -0.934875
v 0.825831 -0.029858 -0.120947
v 0.675960 -0.491114 0.071196
v -0.241769 0.802061 0.116027
v 0.008402 0.032113 0.955715
v -0.254933 0.803927 0.113567
v -0.000924 0.022169 0.966135
v -0.266292 0.800236 0.113567
v -0.012283 0.018479 0.966135
v -0.275845 0.790989 0.116027
v -0.025673 0.021041 0.955715
v 0.012078 0.030919 0.955715
v 0.667035 0.506773 0.116027
v 0.013779 0.017392 0.966135
v 0.678782 0.500545 0.113567
v 0.020799 0.007730 0.966135
v 0.685802 0.490883 0.113567
v 0.033138 0.001932 0.955715
v 0.688095 0.477786 0.116027
v 0.666647 0.507967 0.114037
v 0.261861 0.802061 -0.084187
v 0.677229 0.505322 0.105607
v 0.266235 0.803927 -0.095657
v 0.682309 0.501632 0.095657
v 0.271315 0.800237 -0.105607
v 0.681886 0.496895 0.084187
v 0.277100 0.790989 -0.114037
v 0.259590 0.802800 -0.084187
v -0.240753 0.802799 0.114037
v 0.257148 0.806880 -0.095657
v -0.250869 0.806880 0.105607
v 0.250869 0.806880 -0.105607
v -0.257148 0.806880 0.095657
v 0.240753 0.802799 -0.114037
v -0.259590 0.802799 0.084187
v 0.033138 -0.001932 0.955715
v 0.688095 -0.477786 0.116027
v 0.020799 -0.007730 0.966135
v 0.685802 -0.490883 0.113567
v 0.013779 -0.017392 0.966135
v 0.678782 -0.500545 0.113567
v 0.012078 -0.030919 0.955715
v 0.667035 -0.506773 0.116027
v 0.689111 -0.477048 0.114037
v 0.843725 -0.001194 -0.084187
v 0.689865 -0.487930 0.105607
v 0.846851 -0.004777 -0.095657
v 0.687925 -0.493902 0.095657
v 0.844911 -0.010749 -0.105607
v 0.683290 -0.494963 0.084186
v 0.837904 -0.019109 -0.114037
v 0.843725 0.001194 -0.084187
v 0.689111 0.477048 0.114037
v 0.846851 0.004777 -0.095657
v 0.689865 0.487930 0.105607
v 0.844911 0.010749 -0.105607
v 0.687925 0.493902 0.095657
v 0.837904 0.019109 -0.114037
v 0.683290 0.494963 0.084187
v -0.683290 0.494963 -0.084187
v -0.837904 0.019109 0.114037
v -0.687925 0.493902 -0.095657
v -0.844911 0.010749 0.105607
v -0.689865 0.487930 -0.105607
v -0.846851 0.004777 0.095657
v -0.689111 0.477048 -0.114037
v -0.843725 0.001194 0.084187
v -0.837516 0.017915 0.116027
v -0.027945 0.017915 0.955715
v -0.843359 0.005971 0.113567
v -0.021370 0.005972 0.966135
v -0.843359 -0.005972 0.113567
v -0.021370 -0.005972 0.966135
v -0.837516 -0.017915 0.116027
v -0.027945 -0.017915 0.955715
v -0.277101 0.790989 0.114037
v -0.681886 0.496895 -0.084187
v -0.271315 0.800237 0.105607
v -0.682309 0.501631 -0.095657
v -0.266235 0.803927 0.095657
v -0.677229 0.505322 -0.105607
v -0.261861 0.802061 0.084187
v -0.666647 0.507967 -0.114037
v -0.275845 -0.790989 0.116027
v -0.025673 -0.021041 0.955715
v -0.266291 -0.800237 0.113567
v -0.012283 -0.018479 0.966135
v -0.254933 -0.803927 0.113567
v -0.000924 -0.022169 0.966135
v -0.241769 -0.802061 0.116027
v 0.008402 -0.032113 0.955715
v -0.837904 -0.019109 0.114037
v -0.683290 -0.494963 -0.084187
v -0.844911 -0.010749 0.105607
v -0.687925 -0.493902 -0.095657
v -0.846851 -0.004777 0.095657
v -0.689865 -0.487930 -0.105607
v -0.843725 -0.001194 0.084187
v -0.689111 -0.477048 -0.114037
v -0.681886 -0.496895 -0.084187
v -0.277100 -0.790989 0.114037
v -0.682309 -0.501631 -0.095657
v -0.271314 -0.800237 0.105607
v -0.677229 -0.505322 -0.105607
v -0.266235 -0.803927 0.095657
v -0.666647 -0.507967 -0.114037
v -0.261861 -0.802061 0.084187
v -0.240753 -0.802800 0.114037
v 0.259590 -0.802800 -0.084187
v -0.250869 -0.806880 0.105607
v 0.257148 -0.806880 -0.095657
v -0.257148 -0.806880 0.095657
v 0.250869 -0.806880 -0.105607
v -0.259589 -0.802799 0.084187
v 0.240753 -0.802799 -0.114037
v 0.261861 -0.802061 -0.084187
v 0.666647 -0.507967 0.114037
v 0.266235 -0.803927 -0.095657
v 0.677229 -0.505322 0.105607
v 0.271315 -0.800237 -0.105607
v 0.682309 -0.501631 0.095657
v 0.277100 -0.790989 -0.114037
v 0.681886 -0.496895 0.084186
v 0.837516 0.017915 -0.116027
v 0.027945 0.017915 -0.955715
v 0.843359 0.005972 -0.113567
v 0.021370 0.005972 -0.966135
v 0.843359 -0.005972 -0.113567
v 0.021370 -0.005972 -0.966135
v 0.837516 -0.017915 -0.116027
v 0.027945 -0.017915 -0.955715
v 0.025673 0.021041 -0.955715
v 0.275845 0.790989 -0.116027
v 0.012283 0.018479 -0.966135
v 0.266291 0.800237 -0.113567
v 0.000924 0.022169 -0.966135
v 0.254933 0.803927 -0.113567
v -0.008402 0.032113 -0.955715
v 0.241769 0.802061 -0.116027
v -0.012078 0.030919 -0.955715
v -0.667035 0.506773 -0.116027
v -0.013779 0.017392 -0.966135
v -0.678782 0.500545 -0.113567
v -0.020799 0.007730 -0.966135
v -0.685802 0.490883 -0.113567
v -0.033138 0.001932 -0.955715
v -0.688095 0.477786 -0.116027
v -0.033138 -0.001932 -0.955715
v -0.688095 -0.477786 -0.116027
v -0.020799 -0.007730 -0.966135
v -0.685802 -0.490883 -0.113567
v -0.013779 -0.017392 -0.966135
v -0.678782 -0.500545 -0.113567
v -0.012078 -0.030919 -0.955715
v -0.667035 -0.506773 -0.116027
v -0.008402 -0.032113 -0.955715
v 0.241769 -0.802061 -0.116027
v 0.000924 -0.022169 -0.966135
v 0.254933 -0.803927 -0.113567
v 0.012283 -0.018479 -0.966135
v 0.266291 -0.800237 -0.113567
v 0.025673 -0.021041 -0.955715
v 0.275845 -0.790989 -0.116027
vt 0.060365 0.940410
vt 0.041667 0.990625
vt 0.022968 0.940410
vt 0.060365 0.940410
vt 0.022968 0.940410
vt 0.041667 0.928556
vt 0.060365 0.840410
vt 0.041667 0.890625
vt 0.022968 0.840410
vt 0.060365 0.840410
vt 0.022968 0.840410
vt 0.041667 0.828556
vt 0.041667 0.728556
vt 0.060365 0.740410
vt 0.041667 0.790625
vt 0.041667 0.728556
vt 0.041667 0.790625
vt 0.022968 0.740410
vt 0.060365 0.640410
vt 0.041667 0.690625
vt 0.022968 0.640410
vt 0.060365 0.640410
vt 0.022968 0.640410
vt 0.041667 0.628556
vt 0.060365 0.540410
vt 0.041667 0.590625
vt 0.022968 0.540410
vt 0.060365 0.540410
vt 0.022968 0.540410
vt 0.041667 0.528556
vt 0.060365 0.440410
vt 0.041667 0.490625
vt 0.022968 0.440410
vt 0.060365 0.440410
vt 0.022968 0.440410
vt 0.041667 0.428556
vt 0.041667 0.328556
vt 0.060365 0.340410
vt 0.041667 0.390625
vt 0.041667 0.328556
vt 0.041667 0.390625
vt 0.022968 0.340410
vt 0.060365 0.240410
vt 0.041667 0.290625
vt 0.022968 0.240410
vt 0.060365 0.240410
vt 0.022968 0.240410
vt 0.041667 0.228556
vt 0.060365 0.140410
vt 0.041667 0.190625
vt 0.022968 0.140410
vt 0.060365 0.140410
vt 0.022968 0.140410
vt 0.041667 0.128555
vt 0.060365 0.040410
vt 0.041667 0.090625
vt 0.022968 0.040410
vt 0.060365 0.040410
vt 0.022968 0.040410
vt 0.041667 0.028556
vt 0.010833 0.987000
vt 0.010833 0.987000
vt 0.010833 0.987000
vt 0.010833 0.987000
vt 0.010833 0.987000
vt 0.010833 0.987000
vt 0.010833 0.987000
vt 0.010833 0.987000
vt 0.010833 0.987000
vt 0.010833 0.987000
vt 0.010833 0.987000
vt 0.010833 0.987000
vt 0.010833 0.987000
vt 0.010833 0.987000
vt 0.010833 0.987000
vt 0.010833 0.987000
vt 0.010833 0.987000
vt 0.010833 0.987000
vt 0.010833 0.987000
vt 0.010833 0.987000
vt 0.010833 0.987000
vt 0.010833 0.987000
vt 0.010833 0.987000
vt 0.010833 0.987000
vt 0.010833 0.987000
vt 0.010833 0.987000
vt 0.010833 0.987000
vt 0.010833 0.987000
vt 0.010833 0.987000
vt 0.010833 0.987000
vt 0.010833 0.987000
vt 0.010833 0.987000
vt 0.010833 0.987000
vt 0.010833 0.987000
vt 0.010833 0.987000
vt 0.010833 0.987000
vt 0.010833 0.987000
vt 0.010833 0.987000
vt 0.010833 0.987000
vt 0.010833 0.987000
vt 0.010833 0.987000
vt 0.010833 0.987000
vt 0.010833 0.987000
vt 0.010833 0.987000
vt 0.010833 0.987000
vt 0.010833 0.987000
vt 0.010833 0.987000
vt 0.010833 0.987000
vt 0.010833 0.987000
vt 0.010833 0.987000
vt 0.010833 0.987000
vt 0.010833 0.987000
vt 0.010833 0.987000
vt 0.010833 0.987000
vt 0.010833 0.987000
vt 0.010833 0.987000
vt 0.010833 0.987000
vt 0.010833 0.987000
vt 0.010833 0.987000
vt 0.010833 0.987000
vt 0.010833 0.987000
vt 0.010833 0.987000
vt 0.010833 0.987000
vt 0.010833 0.987000
vt 0.010833 0.987000
vt 0.010833 0.987000
vt 0.010833 0.987000
vt 0.010833 0.987000
vt 0.010833 0.987000
vt 0.010833 0.987000
vt 0.010833 0.987000
vt 0.010833 0.987000
vt 0.010833 0.987000
vt 0.010833 0.987000
vt 0.010833 0.987000
vt 0.010833 0.987000
vt 0.010833 0.987000
vt 0.010833 0.987000
vt 0.010833 0.987000
vt 0.010833 0.987000
vt 0.010833 0.987000
vt 0.010833 0.987000
vt 0.010833 0.987000
vt 0.010833 0.987000
vt 0.010833 0.987000
vt 0.010833 0.987000
vt 0.010833 0.987000
vt 0.010833 0.987000
vt 0.010833 0.987000
vt 0.010833 0.987000
vt 0.010833 0.987000
vt 0.010833 0.987000
vt 0.010833 0.987000
vt 0.010833 0.987000
vt 0.010833 0.987000
vt 0.010833 0.987000
vt 0.010833 0.987000
vt 0.010833 0.987000
vt 0.010833 0.987000
vt 0.010833 0.987000
vt 0.010833 0.987000
vt 0.010833 0.987000
vt 0.010833 0.987000
vt 0.010833 0.987000
vt 0.010833 0.987000
vt 0.010833 0.987000
vt 0.010833 0.987000
vt 0.010833 0.987000
vt 0.010833 0.987000
vt 0.010833 0.987000
vt 0.010833 0.987000
vt 0.010833 0.987000
vt 0.010833 0.987000
vt 0.010833 0.987000
vt 0.010833 0.987000
vt 0.010833 0.987000
vt 0.010833 0.987000
vt 0.010833 0.987000
vt 0.010833 0.987000
vt 0.010833 0.987000
vt 0.010833 0.887000
vt 0.010833 0.887000
vt 0.010833 0.887000
vt 0.010833 0.887000
vt 0.010833 0.887000
vt 0.010833 0.887000
vt 0.010833 0.887000
vt 0.010833 0.887000
vt 0.010833 0.887000
vt 0.010833 0.887000
vt 0.010833 0.887000
vt 0.010833 0.887000
vt 0.010833 0.887000
vt 0.010833 0.887000
vt 0.010833 0.887000
vt 0.010833 0.887000
vt 0.010833 0.887000
vt 0.010833 0.887000
vt 0.010833 0.887000
vt 0.010833 0.887000
vt 0.010833 0.887000
vt 0.010833 0.887000
vt 0.010833 0.887000
vt 0.010833 0.887000
vt 0.010833 0.887000
vt 0.010833 0.887000
vt 0.010833 0.887000
vt 0.010833 0.887000
vt 0.010833 0.887000
vt 0.010833 0.887000
vt 0.010833 0.887000
vt 0.010833 0.887000
vt 0.010833 0.887000
vt 0.010833 0.887000
vt 0.010833 0.887000
vt 0.010833 0.887000
vt 0.010833 0.887000
vt 0.010833 0.887000
vt 0.010833 0.887000
vt 0.010833 0.887000
vt 0.010833 0.887000
vt 0.010833 0.887000
vt 0.010833 0.887000
vt 0.010833 0.887000
vt 0.010833 0.887000
vt 0.010833 0.887000
vt 0.010833 0.887000
vt 0.010833 0.887000
vt 0.010833 0.887000
vt 0.010833 0.887000
vt 0.010833 0.887000
vt 0.010833 0.887000
vt 0.010833 0.887000
vt 0.010833 0.887000
vt 0.010833 0.887000
vt 0.010833 0.887000
vt 0.010833 0.887000
vt 0.010833 0.887000
vt 0.010833 0.887000
vt 0.010833 0.887000
vt 0.010833 0.887000
vt 0.010833 0.887000
vt 0.010833 0.887000
vt 0.010833 0.887000
vt 0.010833 0.887000
vt 0.010833 0.887000
vt 0.010833 0.887000
vt 0.010833 0.887000
vt 0.010833 0.887000
vt 0.010833 0.887000
vt 0.010833 0.887000
vt 0.010833 0.887000
vt 0.010833 0.887000
vt 0.010833 0.887000
vt 0.010833 0.887000
vt 0.010833 0.887000
vt 0.010833 0.887000
vt 0.010833 0.887000
vt 0.010833 0.887000
vt 0.010833 0.887000
vt 0.010833 0.887000
vt 0.010833 0.887000
vt 0.010833 0.887000
vt 0.010833 0.887000
vt 0.010833 0.887000
vt 0.010833 0.887000
vt 0.010833 0.887000
vt 0.010833 0.887000
vt 0.010833 0.887000
vt 0.010833 0.887000
vt 0.010833 0.787000
vt 0.010833 0.787000
vt 0.010833 0.787000
vt 0.010833 0.787000
vt 0.010833 0.787000
vt 0.010833 0.787000
vt 0.010833 0.787000
vt 0.010833 0.787000
vt 0.010833 0.787000
vt 0.010833 0.787000
vt 0.010833 0.787000
vt 0.010833 0.787000
vt 0.010833 0.787000
vt 0.010833 0.787000
vt 0.010833 0.787000
vt 0.010833 0.787000
vt 0.010833 0.787000
vt 0.010833 0.787000
vt 0.010833 0.787000
vt 0.010833 0.787000
vt 0.010833 0.787000
vt 0.010833 0.787000
vt 0.010833 0.787000
vt 0.010833 0.787000
vt 0.010833 0.787000
vt 0.010833 0.787000
vt 0.010833 0.787000
vt 0.010833 0.787000
vt 0.010833 0.787000
vt 0.010833 0.787000
vt 0.010833 0.787000
vt 0.010833 0.787000
vt 0.010833 0.787000
vt 0.010833 0.787000
vt 0.010833 0.787000
vt 0.010833 0.787000
vt 0.010833 0.787000
vt 0.010833 0.787000
vt 0.010833 0.787000
vt 0.010833 0.787000
vt 0.010833 0.787000
vt 0.010833 0.787000
vt 0.010833 0.787000
vt 0.010833 0.787000
vt 0.010833 0.787000
vt 0.010833 0.787000
vt 0.010833 0.787000
vt 0.010833 0.787000
vt 0.010833 0.787000
vt 0.010833 0.787000
vt 0.010833 0.787000
vt 0.010833 0.787000
vt 0.010833 0.787000
vt 0.010833 0.787000
vt 0.010833 0.787000
vt 0.010833 0.787000
vt 0.010833 0.787000
vt 0.010833 0.787000
vt 0.010833 0.787000
vt 0.010833 0.787000
vt 0.010833 0.787000
vt 0.010833 0.787000
vt 0.010833 0.787000
vt 0.010833 0.787000
vt 0.010833 0.787000
vt 0.010833 0.787000
vt 0.010833 0.787000
vt 0.010833 0.787000
vt 0.010833 0.787000
vt 0.010833 0.787000
vt 0.010833 0.787000
vt 0.010833 0.787000
vt 0.010833 0.787000
vt 0.010833 0.787000
vt 0.010833 0.787000
vt 0.010833 0.787000
vt 0.010833 0.787000
vt 0.010833 0.787000
vt 0.010833 0.787000
vt 0.010833 0.787000
vt 0.010833 0.787000
vt 0.010833 0.787000
vt 0.010833 0.787000
vt 0.010833 0.787000
vt 0.010833 0.787000
vt 0.010833 0.787000
vt 0.010833 0.787000
vt 0.010833 0.787000
vt 0.010833 0.787000
vt 0.010833 0.787000
vt 0.010833 0.687000
vt 0.010833 0.687000
vt 0.010833 0.687000
vt 0.010833 0.687000
vt 0.010833 0.687000
vt 0.010833 0.687000
vt 0.010833 0.687000
vt 0.010833 0.687000
vt 0.010833 0.687000
vt 0.010833 0.687000
vt 0.010833 0.687000
vt 0.010833 0.687000
vt 0.010833 0.687000
vt 0.010833 0.687000
vt 0.010833 0.687000
vt 0.010833 0.687000
vt 0.010833 0.687000
vt 0.010833 0.687000
vt 0.010833 0.687000
vt 0.010833 0.687000
vt 0.010833 0.687000
vt 0.010833 0.687000
vt 0.010833 0.687000
vt 0.010833 0.687000
vt 0.010833 0.687000
vt 0.010833 0.687000
vt 0.010833 0.687000
vt 0.010833 0.687000
vt 0.010833 0.687000
vt 0.010833 0.687000
vt 0.010833 0.687000
vt 0.010833 0.687000
vt 0.010833 0.687000
vt 0.010833 0.687000
vt 0.010833 0.687000
vt 0.010833 0.687000
vt 0.010833 0.687000
vt 0.010833 0.687000
vt 0.010833 0.687000
vt 0.010833 0.687000
vt 0.010833 0.687000
vt 0.010833 0.687000
vt 0.010833 0.687000
vt 0.010833 0.687000
vt 0.010833 0.687000
vt 0.010833 0.687000
vt 0.010833 0.687000
vt 0.010833 0.687000
vt 0.010833 0.687000
vt 0.010833 0.687000
vt 0.010833 0.687000
vt 0.010833 0.687000
vt 0.010833 0.687000
vt 0.010833 0.687000
vt 0.010833 0.687000
vt 0.010833 0.687000
vt 0.010833 0.687000
vt 0.010833 0.687000
vt 0.010833 0.687000
vt 0.010833 0.687000
vt 0.010833 0.687000
vt 0.010833 0.687000
vt 0.010833 0.687000
vt 0.010833 0.687000
vt 0.010833 0.687000
vt 0.010833 0.687000
vt 0.010833 0.687000
vt 0.010833 0.687000
vt 0.010833 0.687000
vt 0.010833 0.687000
vt 0.010833 0.687000
vt 0.010833 0.687000
vt 0.010833 0.687000
vt 0.010833 0.687000
vt 0.010833 0.687000
vt 0.010833 0.687000
vt 0.010833 0.687000
vt 0.010833 0.687000
vt 0.010833 0.687000
vt 0.010833 0.687000
vt 0.010833 0.687000
vt 0.010833 0.687000
vt 0.010833 0.687000
vt 0.010833 0.687000
vt 0.010833 0.687000
vt 0.010833 0.687000
vt 0.010833 0.687000
vt 0.010833 0.687000
vt 0.010833 0.687000
vt 0.010833 0.687000
vt 0.010833 0.587000
vt 0.010833 0.587000
vt 0.010833 0.587000
vt 0.010833 0.587000
vt 0.010833 0.587000
vt 0.010833 0.587000
vt 0.010833 0.587000
vt 0.010833 0.587000
vt 0.010833 0.587000
vt 0.010833 0.587000
vt 0.010833 0.587000
vt 0.010833 0.587000
vt 0.010833 0.587000
vt 0.010833 0.587000
vt 0.010833 0.587000
vt 0.010833 0.587000
vt 0.010833 0.587000
vt 0.010833 0.587000
vt 0.010833 0.587000
vt 0.010833 0.587000
vt 0.010833 0.587000
vt 0.010833 0.587000
vt 0.010833 0.587000
vt 0.010833 0.587000
vt 0.010833 0.587000
vt 0.010833 0.587000
vt 0.010833 0.587000
vt 0.010833 0.587000
vt 0.010833 0.587000
vt 0.010833 0.587000
vt 0.010833 0.587000
vt 0.010833 0.587000
vt 0.010833 0.587000
vt 0.010833 0.587000
vt 0.010833 0.587000
vt 0.010833 0.587000
vt 0.010833 0.587000
vt 0.010833 0.587000
vt 0.010833 0.587000
vt 0.010833 0.587000
vt 0.010833 0.587000
vt 0.010833 0.587000
vt 0.010833 0.587000
vt 0.010833 0.587000
vt 0.010833 0.587000
vt 0.010833 0.587000
vt 0.010833 0.587000
vt 0.010833 0.587000
vt 0.010833 0.587000
vt 0.010833 0.587000
vt 0.010833 0.587000
vt 0.010833 0.587000
vt 0.010833 0.587000
vt 0.010833 0.587000
vt 0.010833 0.587000
vt 0.010833 0.587000
vt 0.010833 0.587000
vt 0.010833 0.587000
vt 0.010833 0.587000
vt 0.010833 0.587000
vt 0.010833 0.487000
vt 0.010833 0.487000
vt 0.010833 0.487000
vt 0.010833 0.487000
vt 0.010833 0.487000
vt 0.010833 0.487000
vt 0.010833 0.487000
vt 0.010833 0.487000
vt 0.010833 0.487000
vt 0.010833 0.487000
vt 0.010833 0.487000
vt 0.010833 0.487000
vt 0.010833 0.487000
vt 0.010833 0.487000
vt 0.010833 0.487000
vt 0.010833 0.487000
vt 0.010833 0.487000
vt 0.010833 0.487000
vt 0.010833 0.487000
vt 0.010833 0.487000
vt 0.010833 0.487000
vt 0.010833 0.487000
vt 0.010833 0.487000
vt 0.010833 0.487000
vt 0.010833 0.487000
vt 0.010833 0.487000
vt 0.010833 0.487000
vt 0.010833 0.487000
vt 0.010833 0.487000
vt 0.010833 0.487000
vt 0.010833 0.487000
vt 0.010833 0.487000
vt 0.010833 0.487000
vt 0.010833 0.487000
vt 0.010833 0.487000
vt 0.010833 0.487000
vt 0.010833 0.487000
vt 0.010833 0.487000
vt 0.010833 0.487000
vt 0.010833 0.487000
vt 0.010833 0.487000
vt 0.010833 0.487000
vt 0.010833 0.487000
vt 0.010833 0.487000
vt 0.010833 0.487000
vt 0.010833 0.487000
vt 0.010833 0.487000
vt 0.010833 0.487000
vt 0.010833 0.487000
vt 0.010833 0.487000
vt 0.010833 0.487000
vt 0.010833 0.487000
vt 0.010833 0.487000
vt 0.010833 0.487000
vt 0.010833 0.487000
vt 0.010833 0.487000
vt 0.010833 0.487000
vt 0.010833 0.487000
vt 0.010833 0.487000
vt 0.010833 0.487000
vt 0.010833 0.387000
vt 0.010833 0.387000
vt 0.010833 0.387000
vt 0.010833 0.387000
vt 0.010833 0.387000
vt 0.010833 0.387000
vt 0.010833 0.387000
vt 0.010833 0.387000
vt 0.010833 0.387000
vt 0.010833 0.387000
vt 0.010833 0.387000
vt 0.010833 0.387000
vt 0.010833 0.387000
vt 0.010833 0.387000
vt 0.010833 0.387000
vt 0.010833 0.387000
vt 0.010833 0.387000
vt 0.010833 0.387000
vt 0.010833 0.387000
vt 0.010833 0.387000
vt 0.010833 0.387000
vt 0.010833 0.387000
vt 0.010833 0.387000
vt 0.010833 0.387000
vt 0.010833 0.387000
vt 0.010833 0.387000
vt 0.010833 0.387000
vt 0.010833 0.387000
vt 0.010833 0.387000
vt 0.010833 0.387000
vt 0.010833 0.287000
vt 0.010833 0.287000
vt 0.010833 0.287000
vt 0.010833 0.287000
vt 0.010833 0.287000
vt 0.010833 0.287000
vt 0.010833 0.287000
vt 0.010833 0.287000
vt 0.010833 0.287000
vt 0.010833 0.287000
vt 0.010833 0.287000
vt 0.010833 0.287000
vt 0.010833 0.287000
vt 0.010833 0.287000
vt 0.010833 0.287000
vt 0.010833 0.287000
vt 0.010833 0.287000
vt 0.010833 0.287000
vt 0.010833 0.287000
vt 0.010833 0.287000
vt 0.010833 0.287000
vt 0.010833 0.287000
vt 0.010833 0.287000
vt 0.010833 0.287000
vt 0.010833 0.287000
vt 0.010833 0.287000
vt 0.010833 0.287000
vt 0.010833 0.287000
vt 0.010833 0.287000
vt 0.010833 0.287000
vt 0.010833 0.187000
vt 0.010833 0.187000
vt 0.010833 0.187000
vt 0.010833 0.187000
vt 0.010833 0.187000
vt 0.010833 0.187000
vt 0.010833 0.187000
vt 0.010833 0.187000
vt 0.010833 0.187000
vt 0.010833 0.187000
vt 0.010833 0.187000
vt 0.010833 0.187000
vt 0.010833 0.187000
vt 0.010833 0.187000
vt 0.010833 0.187000
vt 0.010833 0.187000
vt 0.010833 0.187000
vt 0.010833 0.187000
vt 0.010833 0.187000
vt 0.010833 0.187000
vt 0.010833 0.187000
vt 0.010833 0.187000
vt 0.010833 0.187000
vt 0.010833 0.187000
vt 0.010833 0.187000
vt 0.010833 0.187000
vt 0.010833 0.187000
vt 0.010833 0.187000
vt 0.010833 0.187000
vt 0.010833 0.187000
vt 0.010833 0.987000
vt 0.010833 0.987000
vt 0.010833 0.987000
vt 0.010833 0.987000
vt 0.010833 0.987000
vt 0.010833 0.987000
vt 0.010833 0.987000
vt 0.010833 0.987000
vt 0.010833 0.987000
vt 0.010833 0.487000
vt 0.010833 0.487000
vt 0.010833 0.487000
vt 0.010833 0.487000
vt 0.010833 0.487000
vt 0.010833 0.487000
vt 0.010833 0.487000
vt 0.010833 0.487000
vt 0.010833 0.487000
vt 0.010833 0.987000
vt 0.010833 0.987000
vt 0.010833 0.987000
vt 0.010833 0.987000
vt 0.010833 0.987000
vt 0.010833 0.987000
vt 0.010833 0.987000
vt 0.010833 0.987000
vt 0.010833 0.987000
vt 0.010833 0.787000
vt 0.010833 0.787000
vt 0.010833 0.787000
vt 0.010833 0.787000
vt 0.010833 0.787000
vt 0.010833 0.787000
vt 0.010833 0.687000
vt 0.010833 0.687000
vt 0.010833 0.687000
vt 0.010833 0.687000
vt 0.010833 0.687000
vt 0.010833 0.687000
vt 0.010833 0.587000
vt 0.010833 0.587000
vt 0.010833 0.587000
vt 0.010833 0.887000
vt 0.010833 0.887000
vt 0.010833 0.887000
vt 0.010833 0.887000
vt 0.010833 0.887000
vt 0.010833 0.887000
usemtl d10
f 13/1 14/2 15/3
f 13/4 15/5 16/6
f 17/7 18/8 19/9
f 17/10 19/11 20/12
f 21/13 22/14 23/15
f 21/16 23/17 24/18
f 25/19 26/20 27/21
f 25/22 27/23 28/24
f 29/25 30/26 31/27
f 29/28 31/29 32/30
f 33/31 34/32 35/33
f 33/34 35/35 36/36
f 37/37 38/38 39/39
f 37/40 39/41 40/42
f 41/43 42/44 43/45
f 41/46 43/47 44/48
f 45/49 46/50 47/51
f 45/52 47/53 48/54
f 49/55 50/56 51/57
f 49/58 51/59 52/60
f 13/61 14/62 54/63
f 13/64 54/65 53/66
f 53/67 54/68 56/69
f 53/70 56/71 55/72
f 55/73 56/74 58/75
f 55/76 58/77 57/78
f 57/79 58/80 60/81
f 57/82 60/83 59/84
f 59/85 60/86 23/87
f 59/88 23/89 24/90
f 14/91 15/92 62/93
f 14/94 62/95 61/96
f 61/97 62/98 64/99
f 61/100 64/101 63/102
f 63/103 64/104 66/105
f 63/106 66/107 65/108
f 65/109 66/110 68/111
f 65/112 68/113 67/114
f 67/115 68/116 17/117
f 67/118 17/119 18/120
f 15/121 16/122 70/123
f 15/124 70/125 69/126
f 69/127 70/128 72/129
f 69/130 72/131 71/132
f 71/133 72/134 74/135
f 71/136 74/137 73/138
f 73/139 74/140 76/141
f 73/142 76/143 75/144
f 75/145 76/146 35/147
f 75/148 35/149 36/150
f 16/151 13/152 78/153
f 16/154 78/155 77/156
f 77/157 78/158 80/159
f 77/160 80/161 79/162
f 79/163 80/164 82/165
f 79/166 82/167 81/168
f 81/169 82/170 84/171
f 81/172 84/173 83/174
f 83/175 84/176 37/177
f 83/178 37/179 38/180
f 18/181 19/182 86/183
f 18/184 86/185 85/186
f 85/187 86/188 88/189
f 85/190 88/191 87/192
f 87/193 88/194 90/195
f 87/196 90/197 89/198
f 89/199 90/200 92/201
f 89/202 92/203 91/204
f 91/205 92/206 29/207
f 91/208 29/209 30/210
f 19/211 20/212 94/213
f 19/214 94/215 93/216
f 93/217 94/218 96/219
f 93/220 96/221 95/222
f 95/223 96/224 98/225
f 95/226 98/227 97/228
f 97/229 98/230 100/231
f 97/232 100/233 99/234
f 99/235 100/236 51/237
f 99/238 51/239 52/240
f 20/241 17/242 102/243
f 20/244 102/245 101/246
f 101/247 102/248 104/249
f 101/250 104/251 103/252
f 103/253 104/254 106/255
f 103/256 106/257 105/258
f 105/259 106/260 108/261
f 105/262 108/263 107/264
f 107/265 108/266 36/267
f 107/268 36/269 33/270
f 21/271 22/272 110/273
f 21/274 110/275 109/276
f 109/277 110/278 112/279
f 109/280 112/281 111/282
f 111/283 112/284 114/285
f 111/286 114/287 113/288
f 113/289 114/290 116/291
f 113/292 116/293 115/294
f 115/295 116/296 44/297
f 115/298 44/299 41/300
f 22/301 23/302 118/303
f 22/304 118/305 117/306
f 117/307 118/308 120/309
f 117/310 120/311 119/312
f 119/313 120/314 122/315
f 119/316 122/317 121/318
f 121/319 122/320 124/321
f 121/322 124/323 123/324
f 123/325 124/326 26/327
f 123/328 26/329 27/330
f 24/331 21/332 126/333
f 24/334 126/335 125/336
f 125/337 126/338 128/339
f 125/340 128/341 127/342
f 127/343 128/344 130/345
f 127/346 130/347 129/348
f 129/349 130/350 132/351
f 129/352 132/353 131/354
f 131/355 132/356 40/357
f 131/358 40/359 37/360
f 25/361 26/362 134/363
f 25/364 134/365 133/366
f 133/367 134/368 136/369
f 133/370 136/371 135/372
f 135/373 136/374 138/375
f 135/376 138/377 137/378
f 137/379 138/380 140/381
f 137/382 140/383 139/384
f 139/385 140/386 30/387
f 139/388 30/389 31/390
f 27/391 28/392 142/393
f 27/394 142/395 141/396
f 141/397 142/398 144/399
f 141/400 144/401 143/402
f 143/403 144/404 146/405
f 143/406 146/407 145/408
f 145/409 146/410 148/411
f 145/412 148/413 147/414
f 147/415 148/416 43/417
f 147/418 43/419 44/420
f 28/421 25/422 150/423
f 28/424 150/425 149/426
f 149/427 150/428 152/429
f 149/430 152/431 151/432
f 151/433 152/434 154/435
f 151/436 154/437 153/438
f 153/439 154/440 156/441
f 153/442 156/443 155/444
f 155/445 156/446 48/447
f 155/448 48/449 45/450
f 31/451 32/452 158/453
f 31/454 158/455 157/456
f 157/457 158/458 160/459
f 157/460 160/461 159/462
f 159/463 160/464 162/465
f 159/466 162/467 161/468
f 161/469 162/470 164/471
f 161/472 164/473 163/474
f 163/475 164/476 47/477
f 163/478 47/479 48/480
f 32/481 29/482 166/483
f 32/484 166/485 165/486
f 165/487 166/488 168/489
f 165/490 168/491 167/492
f 167/493 168/494 170/495
f 167/496 170/497 169/498
f 169/499 170/500 172/501
f 169/502 172/503 171/504
f 171/505 172/506 52/507
f 171/508 52/509 49/510
f 33/511 34/512 174/513
f 33/514 174/515 173/516
f 173/517 174/518 176/519
f 173/520 176/521 175/522
f 175/523 176/524 178/525
f 175/526 178/527 177/528
f 177/529 178/530 180/531
f 177/532 180/533 179/534
f 179/535 180/536 50/537
f 179/538 50/539 51/540
f 34/541 35/542 182/543
f 34/544 182/545 181/546
f 181/547 182/548 184/549
f 181/550 184/551 183/552
f 183/553 184/554 186/555
f 183/556 186/557 185/558
f 185/559 186/560 188/561
f 185/562 188/563 187/564
f 187/565 188/566 38/567
f 187/568 38/569 39/570
f 39/571 40/572 190/573
f 39/574 190/575 189/576
f 189/577 190/578 192/579
f 189/580 192/581 191/582
f 191/583 192/584 194/585
f 191/586 194/587 193/588
f 193/589 194/590 196/591
f 193/592 196/593 195/594
f 195/595 196/596 41/597
f 195/598 41/599 42/600
f 42/601 43/602 198/603
f 42/604 198/605 197/606
f 197/607 198/608 200/609
f 197/610 200/611 199/612
f 199/613 200/614 202/615
f 199/616 202/617 201/618
f 201/619 202/620 204/621
f 201/622 204/623 203/624
f 203/625 204/626 45/627
f 203/628 45/629 46/630
f 46/631 47/632 206/633
f 46/634 206/635 205/636
f 205/637 206/638 208/639
f 205/640 208/641 207/642
f 207/643 208/644 210/645
f 207/646 210/647 209/648
f 209/649 210/650 212/651
f 209/652 212/653 211/654
f 211/655 212/656 49/657
f 211/658 49/659 50/660
f 30/661 18/662 14/663
f 30/664 14/665 23/666
f 30/667 23/668 26/669
f 34/670 50/671 46/672
f 34/673 46/674 42/675
f 34/676 42/677 39/678
f 15/679 17/680 36/681
f 16/682 35/683 38/684
f 24/685 13/686 37/687
f 21/688 40/689 41/690
f 27/691 22/692 44/693
f 28/694 43/695 45/696
f 31/697 25/698 48/699
f 32/700 47/701 49/702
f 19/703 29/704 52/705
f 20/706 51/707 33/708
