# d12 from qb64-dungeon (DICE3D)
# set: Amethyst Marble   bevel: 0.500000
# atlas is 1536x1536 -- the FIRST column is full-bright;
# the columns to its right are pre-darkened lighting levels the GAME samples.
# For rendering, light it yourself and use column 0 only (that is what these UVs use).
mtllib d12.mtl
o d12
v 0.577350 0.577350 0.577350
v 0.577350 0.577350 -0.577350
v 0.577350 -0.577350 0.577350
v 0.577350 -0.577350 -0.577350
v -0.577350 0.577350 0.577350
v -0.577350 0.577350 -0.577350
v -0.577350 -0.577350 0.577350
v -0.577350 -0.577350 -0.577350
v 0.000000 0.356822 0.934172
v 0.000000 0.356822 -0.934172
v 0.000000 -0.356822 0.934172
v 0.000000 -0.356822 -0.934172
v 0.356822 0.934172 0.000000
v 0.356822 -0.934172 0.000000
v -0.356822 0.934172 0.000000
v -0.356822 -0.934172 0.000000
v 0.934172 0.000000 0.356822
v 0.934172 0.000000 -0.356822
v -0.934172 0.000000 0.356822
v -0.934172 0.000000 -0.356822
v 0.586226 0.562988 -0.525389
v 0.385546 0.887697 0.000000
v 0.586226 0.562988 0.525389
v 0.910934 0.037600 0.324708
v 0.910934 0.037600 -0.324708
v 0.562988 -0.525389 0.586226
v 0.887697 0.000000 0.385546
v 0.562988 0.525389 0.586226
v 0.037600 0.324708 0.910934
v 0.037600 -0.324708 0.910934
v -0.525389 0.586226 0.562988
v 0.000000 0.385546 0.887697
v 0.525389 0.586226 0.562988
v 0.324708 0.910934 0.037600
v -0.324708 0.910934 0.037600
v 0.037600 -0.324708 -0.910934
v 0.037600 0.324708 -0.910934
v 0.562988 0.525389 -0.586226
v 0.887697 0.000000 -0.385546
v 0.562988 -0.525389 -0.586226
v -0.324708 0.910934 -0.037600
v 0.324708 0.910934 -0.037600
v 0.525389 0.586226 -0.562988
v 0.000000 0.385546 -0.887697
v -0.525389 0.586226 -0.562988
v 0.910934 -0.037600 -0.324708
v 0.910934 -0.037600 0.324708
v 0.586226 -0.562988 0.525389
v 0.385546 -0.887697 0.000000
v 0.586226 -0.562988 -0.525389
v -0.324708 -0.910934 0.037600
v 0.324708 -0.910934 0.037600
v 0.525389 -0.586226 0.562988
v 0.000000 -0.385546 0.887697
v -0.525389 -0.586226 0.562988
v -0.525389 -0.586226 -0.562988
v 0.000000 -0.385546 -0.887697
v 0.525389 -0.586226 -0.562988
v 0.324708 -0.910934 -0.037600
v -0.324708 -0.910934 -0.037600
v -0.910934 0.037600 -0.324708
v -0.910934 0.037600 0.324708
v -0.586226 0.562988 0.525389
v -0.385546 0.887697 0.000000
v -0.586226 0.562988 -0.525389
v -0.037600 -0.324708 0.910934
v -0.037600 0.324708 0.910934
v -0.562988 0.525389 0.586226
v -0.887697 0.000000 0.385546
v -0.562988 -0.525389 0.586226
v -0.562988 -0.525389 -0.586226
v -0.887697 0.000000 -0.385546
v -0.562988 0.525389 -0.586226
v -0.037600 0.324708 -0.910934
v -0.037600 -0.324708 -0.910934
v -0.586226 -0.562988 -0.525389
v -0.385546 -0.887697 0.000000
v -0.586226 -0.562988 0.525389
v -0.910934 -0.037600 0.324708
v -0.910934 -0.037600 -0.324708
v 0.580953 0.568514 -0.543520
v 0.373921 0.903498 -0.001504
v 0.572232 0.573600 -0.556346
v 0.362024 0.913723 -0.006016
v 0.560064 0.578248 -0.563866
v 0.349857 0.918371 -0.013536
v 0.544450 0.582456 -0.566080
v 0.337418 0.917441 -0.024064
v 0.373921 0.903498 0.001504
v 0.580953 0.568514 0.543520
v 0.362024 0.913723 0.006016
v 0.572232 0.573600 0.556346
v 0.349857 0.918371 0.013536
v 0.560064 0.578248 0.563866
v 0.337418 0.917441 0.024064
v 0.544450 0.582456 0.566080
v 0.582457 0.566080 0.544450
v 0.917441 0.024064 0.337418
v 0.578248 0.563866 0.560064
v 0.918371 0.013536 0.349857
v 0.573600 0.556346 0.572232
v 0.913723 0.006016 0.362024
v 0.568514 0.543520 0.580953
v 0.903498 0.001504 0.373921
v 0.918371 0.022560 0.334985
v 0.918371 0.022560 -0.334985
v 0.922089 0.007520 0.340123
v 0.922089 0.007520 -0.340123
v 0.922089 -0.007520 0.340123
v 0.922089 -0.007520 -0.340123
v 0.918371 -0.022560 0.334985
v 0.918371 -0.022560 -0.334985
v 0.917441 0.024064 -0.337418
v 0.582457 0.566080 -0.544450
v 0.918371 0.013536 -0.349857
v 0.578248 0.563866 -0.560064
v 0.913723 0.006016 -0.362024
v 0.573600 0.556346 -0.572232
v 0.903498 0.001504 -0.373921
v 0.568514 0.543520 -0.580953
v 0.568514 -0.543520 0.580953
v 0.903498 -0.001504 0.373921
v 0.573600 -0.556346 0.572232
v 0.913723 -0.006016 0.362024
v 0.578248 -0.563866 0.560064
v 0.918371 -0.013536 0.349857
v 0.582456 -0.566080 0.544450
v 0.917441 -0.024064 0.337418
v 0.566080 0.544450 0.582457
v 0.024064 0.337418 0.917441
v 0.563866 0.560064 0.578248
v 0.013536 0.349857 0.918371
v 0.556346 0.572232 0.573600
v 0.006016 0.362024 0.913723
v 0.543520 0.580953 0.568514
v 0.001504 0.373921 0.903498
v 0.022560 0.334985 0.918371
v 0.022560 -0.334985 0.918371
v 0.007520 0.340123 0.922089
v 0.007520 -0.340123 0.922089
v -0.007520 0.340123 0.922089
v -0.007520 -0.340123 0.922089
v -0.022560 0.334985 0.918371
v -0.022560 -0.334985 0.918371
v 0.024064 -0.337418 0.917441
v 0.566080 -0.544450 0.582457
v 0.013536 -0.349857 0.918371
v 0.563866 -0.560064 0.578248
v 0.006016 -0.362024 0.913723
v 0.556346 -0.572232 0.573600
v 0.001504 -0.373921 0.903498
v 0.543520 -0.580953 0.568514
v -0.543520 0.580953 0.568514
v -0.001504 0.373921 0.903498
v -0.556346 0.572232 0.573600
v -0.006016 0.362024 0.913723
v -0.563866 0.560064 0.578248
v -0.013536 0.349857 0.918371
v -0.566080 0.544450 0.582456
v -0.024064 0.337418 0.917441
v 0.334985 0.918371 0.022560
v -0.334985 0.918371 0.022560
v 0.340123 0.922089 0.007520
v -0.340123 0.922089 0.007520
v 0.340123 0.922089 -0.007520
v -0.340123 0.922089 -0.007520
v 0.334985 0.918371 -0.022560
v -0.334985 0.918371 -0.022560
v -0.337418 0.917441 0.024064
v -0.544450 0.582457 0.566080
v -0.349857 0.918371 0.013536
v -0.560064 0.578248 0.563866
v -0.362024 0.913723 0.006016
v -0.572232 0.573600 0.556346
v -0.373921 0.903498 0.001504
v -0.580953 0.568514 0.543520
v 0.022560 -0.334985 -0.918371
v 0.022560 0.334985 -0.918371
v 0.007520 -0.340123 -0.922089
v 0.007520 0.340123 -0.922089
v -0.007520 -0.340123 -0.922089
v -0.007520 0.340123 -0.922089
v -0.022560 -0.334985 -0.918371
v -0.022560 0.334985 -0.918371
v 0.024064 0.337418 -0.917441
v 0.566080 0.544450 -0.582457
v 0.013536 0.349857 -0.918371
v 0.563866 0.560064 -0.578248
v 0.006016 0.362024 -0.913723
v 0.556346 0.572232 -0.573600
v 0.001504 0.373921 -0.903498
v 0.543520 0.580953 -0.568514
v 0.903498 -0.001504 -0.373921
v 0.568514 -0.543520 -0.580953
v 0.913723 -0.006016 -0.362024
v 0.573600 -0.556346 -0.572232
v 0.918371 -0.013536 -0.349857
v 0.578248 -0.563866 -0.560064
v 0.917441 -0.024064 -0.337418
v 0.582456 -0.566080 -0.544450
v 0.566080 -0.544450 -0.582457
v 0.024064 -0.337418 -0.917441
v 0.563866 -0.560064 -0.578248
v 0.013536 -0.349857 -0.918371
v 0.556346 -0.572232 -0.573600
v 0.006016 -0.362024 -0.913723
v 0.543520 -0.580953 -0.568514
v 0.001504 -0.373921 -0.903498
v -0.001504 0.373921 -0.903498
v -0.543520 0.580953 -0.568514
v -0.006016 0.362024 -0.913723
v -0.556346 0.572232 -0.573600
v -0.013536 0.349857 -0.918371
v -0.563866 0.560064 -0.578248
v -0.024064 0.337418 -0.917441
v -0.566080 0.544450 -0.582456
v -0.544450 0.582457 -0.566080
v -0.337418 0.917441 -0.024064
v -0.560064 0.578248 -0.563866
v -0.349857 0.918371 -0.013536
v -0.572232 0.573600 -0.556346
v -0.362024 0.913723 -0.006016
v -0.580953 0.568514 -0.543520
v -0.373921 0.903498 -0.001504
v 0.580953 -0.568514 0.543520
v 0.373921 -0.903498 0.001504
v 0.572232 -0.573600 0.556346
v 0.362024 -0.913723 0.006016
v 0.560064 -0.578248 0.563866
v 0.349857 -0.918371 0.013536
v 0.544450 -0.582456 0.566080
v 0.337418 -0.917441 0.024064
v 0.373921 -0.903498 -0.001504
v 0.580953 -0.568514 -0.543520
v 0.362024 -0.913723 -0.006016
v 0.572232 -0.573600 -0.556346
v 0.349857 -0.918371 -0.013536
v 0.560064 -0.578248 -0.563866
v 0.337418 -0.917441 -0.024064
v 0.544450 -0.582456 -0.566080
v -0.334985 -0.918371 0.022560
v 0.334985 -0.918371 0.022560
v -0.340123 -0.922089 0.007520
v 0.340123 -0.922089 0.007520
v -0.340123 -0.922089 -0.007520
v 0.340123 -0.922089 -0.007520
v -0.334985 -0.918371 -0.022560
v 0.334985 -0.918371 -0.022560
v -0.001504 -0.373921 0.903498
v -0.543520 -0.580953 0.568514
v -0.006016 -0.362024 0.913723
v -0.556346 -0.572232 0.573600
v -0.013536 -0.349857 0.918371
v -0.563866 -0.560064 0.578248
v -0.024064 -0.337418 0.917441
v -0.566080 -0.544450 0.582456
v -0.544450 -0.582457 0.566080
v -0.337418 -0.917441 0.024064
v -0.560064 -0.578248 0.563866
v -0.349857 -0.918371 0.013536
v -0.572232 -0.573600 0.556346
v -0.362024 -0.913723 0.006016
v -0.580953 -0.568514 0.543520
v -0.373921 -0.903498 0.001504
v -0.543520 -0.580953 -0.568514
v -0.001504 -0.373921 -0.903498
v -0.556346 -0.572232 -0.573600
v -0.006016 -0.362024 -0.913723
v -0.563866 -0.560064 -0.578248
v -0.013536 -0.349857 -0.918371
v -0.566080 -0.544450 -0.582456
v -0.024064 -0.337418 -0.917441
v -0.337418 -0.917441 -0.024064
v -0.544450 -0.582457 -0.566080
v -0.349857 -0.918371 -0.013536
v -0.560064 -0.578248 -0.563866
v -0.362024 -0.913723 -0.006016
v -0.572232 -0.573600 -0.556346
v -0.373921 -0.903498 -0.001504
v -0.580953 -0.568514 -0.543520
v -0.918371 0.022560 -0.334985
v -0.918371 0.022560 0.334985
v -0.922089 0.007520 -0.340123
v -0.922089 0.007520 0.340123
v -0.922089 -0.007520 -0.340123
v -0.922089 -0.007520 0.340123
v -0.918371 -0.022560 -0.334985
v -0.918371 -0.022560 0.334985
v -0.917441 0.024064 0.337418
v -0.582457 0.566080 0.544450
v -0.918371 0.013536 0.349857
v -0.578248 0.563866 0.560064
v -0.913723 0.006016 0.362024
v -0.573600 0.556346 0.572232
v -0.903498 0.001504 0.373921
v -0.568514 0.543520 0.580953
v -0.582457 0.566080 -0.544450
v -0.917441 0.024064 -0.337418
v -0.578248 0.563866 -0.560064
v -0.918371 0.013536 -0.349857
v -0.573600 0.556346 -0.572232
v -0.913723 0.006016 -0.362024
v -0.568514 0.543520 -0.580953
v -0.903498 0.001504 -0.373921
v -0.903498 -0.001504 0.373921
v -0.568514 -0.543520 0.580953
v -0.913723 -0.006016 0.362024
v -0.573600 -0.556346 0.572232
v -0.918371 -0.013536 0.349857
v -0.578248 -0.563866 0.560064
v -0.917441 -0.024064 0.337418
v -0.582456 -0.566080 0.544450
v -0.568514 -0.543520 -0.580953
v -0.903498 -0.001504 -0.373921
v -0.573600 -0.556346 -0.572232
v -0.913723 -0.006016 -0.362024
v -0.578248 -0.563866 -0.560064
v -0.918371 -0.013536 -0.349857
v -0.582456 -0.566080 -0.544450
v -0.917441 -0.024064 -0.337418
vt 0.021768 0.930945
vt 0.061566 0.930945
vt 0.073864 0.968795
vt 0.021768 0.930945
vt 0.073864 0.968795
vt 0.041667 0.992188
vt 0.021768 0.930945
vt 0.041667 0.992188
vt 0.009469 0.968795
vt 0.021768 0.847611
vt 0.061566 0.847611
vt 0.073864 0.885462
vt 0.021768 0.847611
vt 0.073864 0.885462
vt 0.041667 0.908854
vt 0.021768 0.847611
vt 0.041667 0.908854
vt 0.009469 0.885462
vt 0.021768 0.764278
vt 0.061566 0.764278
vt 0.073864 0.802128
vt 0.021768 0.764278
vt 0.073864 0.802128
vt 0.041667 0.825521
vt 0.021768 0.764278
vt 0.041667 0.825521
vt 0.009469 0.802128
vt 0.021768 0.680945
vt 0.061566 0.680945
vt 0.073864 0.718795
vt 0.021768 0.680945
vt 0.073864 0.718795
vt 0.041667 0.742188
vt 0.021768 0.680945
vt 0.041667 0.742188
vt 0.009469 0.718795
vt 0.021768 0.597611
vt 0.061566 0.597611
vt 0.073864 0.635462
vt 0.021768 0.597611
vt 0.073864 0.635462
vt 0.041667 0.658854
vt 0.021768 0.597611
vt 0.041667 0.658854
vt 0.009469 0.635462
vt 0.021768 0.514278
vt 0.061566 0.514278
vt 0.073864 0.552128
vt 0.021768 0.514278
vt 0.073864 0.552128
vt 0.041667 0.575521
vt 0.021768 0.514278
vt 0.041667 0.575521
vt 0.009469 0.552128
vt 0.021768 0.430945
vt 0.061566 0.430945
vt 0.073864 0.468795
vt 0.021768 0.430945
vt 0.073864 0.468795
vt 0.041667 0.492188
vt 0.021768 0.430945
vt 0.041667 0.492188
vt 0.009469 0.468795
vt 0.021768 0.347611
vt 0.061566 0.347611
vt 0.073864 0.385462
vt 0.021768 0.347611
vt 0.073864 0.385462
vt 0.041667 0.408854
vt 0.021768 0.347611
vt 0.041667 0.408854
vt 0.009469 0.385462
vt 0.021768 0.264278
vt 0.061566 0.264278
vt 0.073864 0.302128
vt 0.021768 0.264278
vt 0.073864 0.302128
vt 0.041667 0.325521
vt 0.021768 0.264278
vt 0.041667 0.325521
vt 0.009469 0.302128
vt 0.021768 0.180945
vt 0.061566 0.180945
vt 0.073864 0.218795
vt 0.021768 0.180945
vt 0.073864 0.218795
vt 0.041667 0.242188
vt 0.021768 0.180945
vt 0.041667 0.242188
vt 0.009469 0.218795
vt 0.021768 0.097611
vt 0.061566 0.097611
vt 0.073864 0.135462
vt 0.021768 0.097611
vt 0.073864 0.135462
vt 0.041667 0.158854
vt 0.021768 0.097611
vt 0.041667 0.158854
vt 0.009469 0.135462
vt 0.021768 0.014278
vt 0.061566 0.014278
vt 0.073864 0.052128
vt 0.021768 0.014278
vt 0.073864 0.052128
vt 0.041667 0.075521
vt 0.021768 0.014278
vt 0.041667 0.075521
vt 0.009469 0.052128
vt 0.010833 0.989167
vt 0.010833 0.989167
vt 0.010833 0.989167
vt 0.010833 0.989167
vt 0.010833 0.989167
vt 0.010833 0.989167
vt 0.010833 0.989167
vt 0.010833 0.989167
vt 0.010833 0.989167
vt 0.010833 0.989167
vt 0.010833 0.989167
vt 0.010833 0.989167
vt 0.010833 0.989167
vt 0.010833 0.989167
vt 0.010833 0.989167
vt 0.010833 0.989167
vt 0.010833 0.989167
vt 0.010833 0.989167
vt 0.010833 0.989167
vt 0.010833 0.989167
vt 0.010833 0.989167
vt 0.010833 0.989167
vt 0.010833 0.989167
vt 0.010833 0.989167
vt 0.010833 0.989167
vt 0.010833 0.989167
vt 0.010833 0.989167
vt 0.010833 0.989167
vt 0.010833 0.989167
vt 0.010833 0.989167
vt 0.010833 0.989167
vt 0.010833 0.989167
vt 0.010833 0.989167
vt 0.010833 0.989167
vt 0.010833 0.989167
vt 0.010833 0.989167
vt 0.010833 0.989167
vt 0.010833 0.989167
vt 0.010833 0.989167
vt 0.010833 0.989167
vt 0.010833 0.989167
vt 0.010833 0.989167
vt 0.010833 0.989167
vt 0.010833 0.989167
vt 0.010833 0.989167
vt 0.010833 0.989167
vt 0.010833 0.989167
vt 0.010833 0.989167
vt 0.010833 0.989167
vt 0.010833 0.989167
vt 0.010833 0.989167
vt 0.010833 0.989167
vt 0.010833 0.989167
vt 0.010833 0.989167
vt 0.010833 0.989167
vt 0.010833 0.989167
vt 0.010833 0.989167
vt 0.010833 0.989167
vt 0.010833 0.989167
vt 0.010833 0.989167
vt 0.010833 0.989167
vt 0.010833 0.989167
vt 0.010833 0.989167
vt 0.010833 0.989167
vt 0.010833 0.989167
vt 0.010833 0.989167
vt 0.010833 0.989167
vt 0.010833 0.989167
vt 0.010833 0.989167
vt 0.010833 0.989167
vt 0.010833 0.989167
vt 0.010833 0.989167
vt 0.010833 0.989167
vt 0.010833 0.989167
vt 0.010833 0.989167
vt 0.010833 0.989167
vt 0.010833 0.989167
vt 0.010833 0.989167
vt 0.010833 0.989167
vt 0.010833 0.989167
vt 0.010833 0.989167
vt 0.010833 0.989167
vt 0.010833 0.989167
vt 0.010833 0.989167
vt 0.010833 0.989167
vt 0.010833 0.989167
vt 0.010833 0.989167
vt 0.010833 0.989167
vt 0.010833 0.989167
vt 0.010833 0.989167
vt 0.010833 0.989167
vt 0.010833 0.989167
vt 0.010833 0.989167
vt 0.010833 0.989167
vt 0.010833 0.989167
vt 0.010833 0.989167
vt 0.010833 0.989167
vt 0.010833 0.989167
vt 0.010833 0.989167
vt 0.010833 0.989167
vt 0.010833 0.989167
vt 0.010833 0.989167
vt 0.010833 0.989167
vt 0.010833 0.989167
vt 0.010833 0.989167
vt 0.010833 0.989167
vt 0.010833 0.989167
vt 0.010833 0.989167
vt 0.010833 0.989167
vt 0.010833 0.989167
vt 0.010833 0.989167
vt 0.010833 0.989167
vt 0.010833 0.989167
vt 0.010833 0.989167
vt 0.010833 0.989167
vt 0.010833 0.989167
vt 0.010833 0.989167
vt 0.010833 0.989167
vt 0.010833 0.989167
vt 0.010833 0.989167
vt 0.010833 0.989167
vt 0.010833 0.989167
vt 0.010833 0.989167
vt 0.010833 0.989167
vt 0.010833 0.989167
vt 0.010833 0.989167
vt 0.010833 0.989167
vt 0.010833 0.989167
vt 0.010833 0.989167
vt 0.010833 0.989167
vt 0.010833 0.989167
vt 0.010833 0.989167
vt 0.010833 0.989167
vt 0.010833 0.989167
vt 0.010833 0.989167
vt 0.010833 0.989167
vt 0.010833 0.989167
vt 0.010833 0.989167
vt 0.010833 0.989167
vt 0.010833 0.989167
vt 0.010833 0.989167
vt 0.010833 0.989167
vt 0.010833 0.989167
vt 0.010833 0.989167
vt 0.010833 0.989167
vt 0.010833 0.989167
vt 0.010833 0.989167
vt 0.010833 0.989167
vt 0.010833 0.989167
vt 0.010833 0.989167
vt 0.010833 0.905833
vt 0.010833 0.905833
vt 0.010833 0.905833
vt 0.010833 0.905833
vt 0.010833 0.905833
vt 0.010833 0.905833
vt 0.010833 0.905833
vt 0.010833 0.905833
vt 0.010833 0.905833
vt 0.010833 0.905833
vt 0.010833 0.905833
vt 0.010833 0.905833
vt 0.010833 0.905833
vt 0.010833 0.905833
vt 0.010833 0.905833
vt 0.010833 0.905833
vt 0.010833 0.905833
vt 0.010833 0.905833
vt 0.010833 0.905833
vt 0.010833 0.905833
vt 0.010833 0.905833
vt 0.010833 0.905833
vt 0.010833 0.905833
vt 0.010833 0.905833
vt 0.010833 0.905833
vt 0.010833 0.905833
vt 0.010833 0.905833
vt 0.010833 0.905833
vt 0.010833 0.905833
vt 0.010833 0.905833
vt 0.010833 0.905833
vt 0.010833 0.905833
vt 0.010833 0.905833
vt 0.010833 0.905833
vt 0.010833 0.905833
vt 0.010833 0.905833
vt 0.010833 0.905833
vt 0.010833 0.905833
vt 0.010833 0.905833
vt 0.010833 0.905833
vt 0.010833 0.905833
vt 0.010833 0.905833
vt 0.010833 0.905833
vt 0.010833 0.905833
vt 0.010833 0.905833
vt 0.010833 0.905833
vt 0.010833 0.905833
vt 0.010833 0.905833
vt 0.010833 0.905833
vt 0.010833 0.905833
vt 0.010833 0.905833
vt 0.010833 0.905833
vt 0.010833 0.905833
vt 0.010833 0.905833
vt 0.010833 0.905833
vt 0.010833 0.905833
vt 0.010833 0.905833
vt 0.010833 0.905833
vt 0.010833 0.905833
vt 0.010833 0.905833
vt 0.010833 0.905833
vt 0.010833 0.905833
vt 0.010833 0.905833
vt 0.010833 0.905833
vt 0.010833 0.905833
vt 0.010833 0.905833
vt 0.010833 0.905833
vt 0.010833 0.905833
vt 0.010833 0.905833
vt 0.010833 0.905833
vt 0.010833 0.905833
vt 0.010833 0.905833
vt 0.010833 0.905833
vt 0.010833 0.905833
vt 0.010833 0.905833
vt 0.010833 0.905833
vt 0.010833 0.905833
vt 0.010833 0.905833
vt 0.010833 0.905833
vt 0.010833 0.905833
vt 0.010833 0.905833
vt 0.010833 0.905833
vt 0.010833 0.905833
vt 0.010833 0.905833
vt 0.010833 0.905833
vt 0.010833 0.905833
vt 0.010833 0.905833
vt 0.010833 0.905833
vt 0.010833 0.905833
vt 0.010833 0.905833
vt 0.010833 0.905833
vt 0.010833 0.905833
vt 0.010833 0.905833
vt 0.010833 0.905833
vt 0.010833 0.905833
vt 0.010833 0.905833
vt 0.010833 0.905833
vt 0.010833 0.905833
vt 0.010833 0.905833
vt 0.010833 0.905833
vt 0.010833 0.905833
vt 0.010833 0.905833
vt 0.010833 0.905833
vt 0.010833 0.905833
vt 0.010833 0.905833
vt 0.010833 0.905833
vt 0.010833 0.905833
vt 0.010833 0.905833
vt 0.010833 0.905833
vt 0.010833 0.905833
vt 0.010833 0.905833
vt 0.010833 0.905833
vt 0.010833 0.905833
vt 0.010833 0.905833
vt 0.010833 0.905833
vt 0.010833 0.905833
vt 0.010833 0.905833
vt 0.010833 0.905833
vt 0.010833 0.905833
vt 0.010833 0.905833
vt 0.010833 0.822500
vt 0.010833 0.822500
vt 0.010833 0.822500
vt 0.010833 0.822500
vt 0.010833 0.822500
vt 0.010833 0.822500
vt 0.010833 0.822500
vt 0.010833 0.822500
vt 0.010833 0.822500
vt 0.010833 0.822500
vt 0.010833 0.822500
vt 0.010833 0.822500
vt 0.010833 0.822500
vt 0.010833 0.822500
vt 0.010833 0.822500
vt 0.010833 0.822500
vt 0.010833 0.822500
vt 0.010833 0.822500
vt 0.010833 0.822500
vt 0.010833 0.822500
vt 0.010833 0.822500
vt 0.010833 0.822500
vt 0.010833 0.822500
vt 0.010833 0.822500
vt 0.010833 0.822500
vt 0.010833 0.822500
vt 0.010833 0.822500
vt 0.010833 0.822500
vt 0.010833 0.822500
vt 0.010833 0.822500
vt 0.010833 0.822500
vt 0.010833 0.822500
vt 0.010833 0.822500
vt 0.010833 0.822500
vt 0.010833 0.822500
vt 0.010833 0.822500
vt 0.010833 0.822500
vt 0.010833 0.822500
vt 0.010833 0.822500
vt 0.010833 0.822500
vt 0.010833 0.822500
vt 0.010833 0.822500
vt 0.010833 0.822500
vt 0.010833 0.822500
vt 0.010833 0.822500
vt 0.010833 0.822500
vt 0.010833 0.822500
vt 0.010833 0.822500
vt 0.010833 0.822500
vt 0.010833 0.822500
vt 0.010833 0.822500
vt 0.010833 0.822500
vt 0.010833 0.822500
vt 0.010833 0.822500
vt 0.010833 0.822500
vt 0.010833 0.822500
vt 0.010833 0.822500
vt 0.010833 0.822500
vt 0.010833 0.822500
vt 0.010833 0.822500
vt 0.010833 0.822500
vt 0.010833 0.822500
vt 0.010833 0.822500
vt 0.010833 0.822500
vt 0.010833 0.822500
vt 0.010833 0.822500
vt 0.010833 0.822500
vt 0.010833 0.822500
vt 0.010833 0.822500
vt 0.010833 0.822500
vt 0.010833 0.822500
vt 0.010833 0.822500
vt 0.010833 0.822500
vt 0.010833 0.822500
vt 0.010833 0.822500
vt 0.010833 0.822500
vt 0.010833 0.822500
vt 0.010833 0.822500
vt 0.010833 0.822500
vt 0.010833 0.822500
vt 0.010833 0.822500
vt 0.010833 0.822500
vt 0.010833 0.822500
vt 0.010833 0.822500
vt 0.010833 0.822500
vt 0.010833 0.822500
vt 0.010833 0.822500
vt 0.010833 0.822500
vt 0.010833 0.822500
vt 0.010833 0.822500
vt 0.010833 0.739167
vt 0.010833 0.739167
vt 0.010833 0.739167
vt 0.010833 0.739167
vt 0.010833 0.739167
vt 0.010833 0.739167
vt 0.010833 0.739167
vt 0.010833 0.739167
vt 0.010833 0.739167
vt 0.010833 0.739167
vt 0.010833 0.739167
vt 0.010833 0.739167
vt 0.010833 0.739167
vt 0.010833 0.739167
vt 0.010833 0.739167
vt 0.010833 0.739167
vt 0.010833 0.739167
vt 0.010833 0.739167
vt 0.010833 0.739167
vt 0.010833 0.739167
vt 0.010833 0.739167
vt 0.010833 0.739167
vt 0.010833 0.739167
vt 0.010833 0.739167
vt 0.010833 0.739167
vt 0.010833 0.739167
vt 0.010833 0.739167
vt 0.010833 0.739167
vt 0.010833 0.739167
vt 0.010833 0.739167
vt 0.010833 0.739167
vt 0.010833 0.739167
vt 0.010833 0.739167
vt 0.010833 0.739167
vt 0.010833 0.739167
vt 0.010833 0.739167
vt 0.010833 0.739167
vt 0.010833 0.739167
vt 0.010833 0.739167
vt 0.010833 0.739167
vt 0.010833 0.739167
vt 0.010833 0.739167
vt 0.010833 0.739167
vt 0.010833 0.739167
vt 0.010833 0.739167
vt 0.010833 0.739167
vt 0.010833 0.739167
vt 0.010833 0.739167
vt 0.010833 0.739167
vt 0.010833 0.739167
vt 0.010833 0.739167
vt 0.010833 0.739167
vt 0.010833 0.739167
vt 0.010833 0.739167
vt 0.010833 0.739167
vt 0.010833 0.739167
vt 0.010833 0.739167
vt 0.010833 0.739167
vt 0.010833 0.739167
vt 0.010833 0.739167
vt 0.010833 0.739167
vt 0.010833 0.739167
vt 0.010833 0.739167
vt 0.010833 0.739167
vt 0.010833 0.739167
vt 0.010833 0.739167
vt 0.010833 0.739167
vt 0.010833 0.739167
vt 0.010833 0.739167
vt 0.010833 0.739167
vt 0.010833 0.739167
vt 0.010833 0.739167
vt 0.010833 0.739167
vt 0.010833 0.739167
vt 0.010833 0.739167
vt 0.010833 0.739167
vt 0.010833 0.739167
vt 0.010833 0.739167
vt 0.010833 0.739167
vt 0.010833 0.739167
vt 0.010833 0.739167
vt 0.010833 0.739167
vt 0.010833 0.739167
vt 0.010833 0.739167
vt 0.010833 0.739167
vt 0.010833 0.739167
vt 0.010833 0.739167
vt 0.010833 0.739167
vt 0.010833 0.739167
vt 0.010833 0.739167
vt 0.010833 0.739167
vt 0.010833 0.739167
vt 0.010833 0.739167
vt 0.010833 0.739167
vt 0.010833 0.739167
vt 0.010833 0.739167
vt 0.010833 0.739167
vt 0.010833 0.739167
vt 0.010833 0.739167
vt 0.010833 0.739167
vt 0.010833 0.739167
vt 0.010833 0.739167
vt 0.010833 0.739167
vt 0.010833 0.739167
vt 0.010833 0.739167
vt 0.010833 0.739167
vt 0.010833 0.739167
vt 0.010833 0.739167
vt 0.010833 0.739167
vt 0.010833 0.739167
vt 0.010833 0.739167
vt 0.010833 0.739167
vt 0.010833 0.739167
vt 0.010833 0.739167
vt 0.010833 0.739167
vt 0.010833 0.739167
vt 0.010833 0.739167
vt 0.010833 0.739167
vt 0.010833 0.739167
vt 0.010833 0.739167
vt 0.010833 0.655833
vt 0.010833 0.655833
vt 0.010833 0.655833
vt 0.010833 0.655833
vt 0.010833 0.655833
vt 0.010833 0.655833
vt 0.010833 0.655833
vt 0.010833 0.655833
vt 0.010833 0.655833
vt 0.010833 0.655833
vt 0.010833 0.655833
vt 0.010833 0.655833
vt 0.010833 0.655833
vt 0.010833 0.655833
vt 0.010833 0.655833
vt 0.010833 0.655833
vt 0.010833 0.655833
vt 0.010833 0.655833
vt 0.010833 0.655833
vt 0.010833 0.655833
vt 0.010833 0.655833
vt 0.010833 0.655833
vt 0.010833 0.655833
vt 0.010833 0.655833
vt 0.010833 0.655833
vt 0.010833 0.655833
vt 0.010833 0.655833
vt 0.010833 0.655833
vt 0.010833 0.655833
vt 0.010833 0.655833
vt 0.010833 0.655833
vt 0.010833 0.655833
vt 0.010833 0.655833
vt 0.010833 0.655833
vt 0.010833 0.655833
vt 0.010833 0.655833
vt 0.010833 0.655833
vt 0.010833 0.655833
vt 0.010833 0.655833
vt 0.010833 0.655833
vt 0.010833 0.655833
vt 0.010833 0.655833
vt 0.010833 0.655833
vt 0.010833 0.655833
vt 0.010833 0.655833
vt 0.010833 0.655833
vt 0.010833 0.655833
vt 0.010833 0.655833
vt 0.010833 0.655833
vt 0.010833 0.655833
vt 0.010833 0.655833
vt 0.010833 0.655833
vt 0.010833 0.655833
vt 0.010833 0.655833
vt 0.010833 0.655833
vt 0.010833 0.655833
vt 0.010833 0.655833
vt 0.010833 0.655833
vt 0.010833 0.655833
vt 0.010833 0.655833
vt 0.010833 0.572500
vt 0.010833 0.572500
vt 0.010833 0.572500
vt 0.010833 0.572500
vt 0.010833 0.572500
vt 0.010833 0.572500
vt 0.010833 0.572500
vt 0.010833 0.572500
vt 0.010833 0.572500
vt 0.010833 0.572500
vt 0.010833 0.572500
vt 0.010833 0.572500
vt 0.010833 0.572500
vt 0.010833 0.572500
vt 0.010833 0.572500
vt 0.010833 0.572500
vt 0.010833 0.572500
vt 0.010833 0.572500
vt 0.010833 0.572500
vt 0.010833 0.572500
vt 0.010833 0.572500
vt 0.010833 0.572500
vt 0.010833 0.572500
vt 0.010833 0.572500
vt 0.010833 0.572500
vt 0.010833 0.572500
vt 0.010833 0.572500
vt 0.010833 0.572500
vt 0.010833 0.572500
vt 0.010833 0.572500
vt 0.010833 0.572500
vt 0.010833 0.572500
vt 0.010833 0.572500
vt 0.010833 0.572500
vt 0.010833 0.572500
vt 0.010833 0.572500
vt 0.010833 0.572500
vt 0.010833 0.572500
vt 0.010833 0.572500
vt 0.010833 0.572500
vt 0.010833 0.572500
vt 0.010833 0.572500
vt 0.010833 0.572500
vt 0.010833 0.572500
vt 0.010833 0.572500
vt 0.010833 0.572500
vt 0.010833 0.572500
vt 0.010833 0.572500
vt 0.010833 0.572500
vt 0.010833 0.572500
vt 0.010833 0.572500
vt 0.010833 0.572500
vt 0.010833 0.572500
vt 0.010833 0.572500
vt 0.010833 0.572500
vt 0.010833 0.572500
vt 0.010833 0.572500
vt 0.010833 0.572500
vt 0.010833 0.572500
vt 0.010833 0.572500
vt 0.010833 0.489167
vt 0.010833 0.489167
vt 0.010833 0.489167
vt 0.010833 0.489167
vt 0.010833 0.489167
vt 0.010833 0.489167
vt 0.010833 0.489167
vt 0.010833 0.489167
vt 0.010833 0.489167
vt 0.010833 0.489167
vt 0.010833 0.489167
vt 0.010833 0.489167
vt 0.010833 0.489167
vt 0.010833 0.489167
vt 0.010833 0.489167
vt 0.010833 0.489167
vt 0.010833 0.489167
vt 0.010833 0.489167
vt 0.010833 0.489167
vt 0.010833 0.489167
vt 0.010833 0.489167
vt 0.010833 0.489167
vt 0.010833 0.489167
vt 0.010833 0.489167
vt 0.010833 0.489167
vt 0.010833 0.489167
vt 0.010833 0.489167
vt 0.010833 0.489167
vt 0.010833 0.489167
vt 0.010833 0.489167
vt 0.010833 0.489167
vt 0.010833 0.489167
vt 0.010833 0.489167
vt 0.010833 0.489167
vt 0.010833 0.489167
vt 0.010833 0.489167
vt 0.010833 0.489167
vt 0.010833 0.489167
vt 0.010833 0.489167
vt 0.010833 0.489167
vt 0.010833 0.489167
vt 0.010833 0.489167
vt 0.010833 0.489167
vt 0.010833 0.489167
vt 0.010833 0.489167
vt 0.010833 0.489167
vt 0.010833 0.489167
vt 0.010833 0.489167
vt 0.010833 0.489167
vt 0.010833 0.489167
vt 0.010833 0.489167
vt 0.010833 0.489167
vt 0.010833 0.489167
vt 0.010833 0.489167
vt 0.010833 0.489167
vt 0.010833 0.489167
vt 0.010833 0.489167
vt 0.010833 0.489167
vt 0.010833 0.489167
vt 0.010833 0.489167
vt 0.010833 0.489167
vt 0.010833 0.489167
vt 0.010833 0.489167
vt 0.010833 0.489167
vt 0.010833 0.489167
vt 0.010833 0.489167
vt 0.010833 0.489167
vt 0.010833 0.489167
vt 0.010833 0.489167
vt 0.010833 0.489167
vt 0.010833 0.489167
vt 0.010833 0.489167
vt 0.010833 0.489167
vt 0.010833 0.489167
vt 0.010833 0.489167
vt 0.010833 0.489167
vt 0.010833 0.489167
vt 0.010833 0.489167
vt 0.010833 0.489167
vt 0.010833 0.489167
vt 0.010833 0.489167
vt 0.010833 0.489167
vt 0.010833 0.489167
vt 0.010833 0.489167
vt 0.010833 0.489167
vt 0.010833 0.489167
vt 0.010833 0.489167
vt 0.010833 0.489167
vt 0.010833 0.489167
vt 0.010833 0.489167
vt 0.010833 0.405833
vt 0.010833 0.405833
vt 0.010833 0.405833
vt 0.010833 0.405833
vt 0.010833 0.405833
vt 0.010833 0.405833
vt 0.010833 0.405833
vt 0.010833 0.405833
vt 0.010833 0.405833
vt 0.010833 0.405833
vt 0.010833 0.405833
vt 0.010833 0.405833
vt 0.010833 0.405833
vt 0.010833 0.405833
vt 0.010833 0.405833
vt 0.010833 0.405833
vt 0.010833 0.405833
vt 0.010833 0.405833
vt 0.010833 0.405833
vt 0.010833 0.405833
vt 0.010833 0.405833
vt 0.010833 0.405833
vt 0.010833 0.405833
vt 0.010833 0.405833
vt 0.010833 0.405833
vt 0.010833 0.405833
vt 0.010833 0.405833
vt 0.010833 0.405833
vt 0.010833 0.405833
vt 0.010833 0.405833
vt 0.010833 0.405833
vt 0.010833 0.405833
vt 0.010833 0.405833
vt 0.010833 0.405833
vt 0.010833 0.405833
vt 0.010833 0.405833
vt 0.010833 0.405833
vt 0.010833 0.405833
vt 0.010833 0.405833
vt 0.010833 0.405833
vt 0.010833 0.405833
vt 0.010833 0.405833
vt 0.010833 0.405833
vt 0.010833 0.405833
vt 0.010833 0.405833
vt 0.010833 0.405833
vt 0.010833 0.405833
vt 0.010833 0.405833
vt 0.010833 0.405833
vt 0.010833 0.405833
vt 0.010833 0.405833
vt 0.010833 0.405833
vt 0.010833 0.405833
vt 0.010833 0.405833
vt 0.010833 0.405833
vt 0.010833 0.405833
vt 0.010833 0.405833
vt 0.010833 0.405833
vt 0.010833 0.405833
vt 0.010833 0.405833
vt 0.010833 0.322500
vt 0.010833 0.322500
vt 0.010833 0.322500
vt 0.010833 0.322500
vt 0.010833 0.322500
vt 0.010833 0.322500
vt 0.010833 0.322500
vt 0.010833 0.322500
vt 0.010833 0.322500
vt 0.010833 0.322500
vt 0.010833 0.322500
vt 0.010833 0.322500
vt 0.010833 0.322500
vt 0.010833 0.322500
vt 0.010833 0.322500
vt 0.010833 0.322500
vt 0.010833 0.322500
vt 0.010833 0.322500
vt 0.010833 0.322500
vt 0.010833 0.322500
vt 0.010833 0.322500
vt 0.010833 0.322500
vt 0.010833 0.322500
vt 0.010833 0.322500
vt 0.010833 0.322500
vt 0.010833 0.322500
vt 0.010833 0.322500
vt 0.010833 0.322500
vt 0.010833 0.322500
vt 0.010833 0.322500
vt 0.010833 0.322500
vt 0.010833 0.322500
vt 0.010833 0.322500
vt 0.010833 0.322500
vt 0.010833 0.322500
vt 0.010833 0.322500
vt 0.010833 0.322500
vt 0.010833 0.322500
vt 0.010833 0.322500
vt 0.010833 0.322500
vt 0.010833 0.322500
vt 0.010833 0.322500
vt 0.010833 0.322500
vt 0.010833 0.322500
vt 0.010833 0.322500
vt 0.010833 0.322500
vt 0.010833 0.322500
vt 0.010833 0.322500
vt 0.010833 0.322500
vt 0.010833 0.322500
vt 0.010833 0.322500
vt 0.010833 0.322500
vt 0.010833 0.322500
vt 0.010833 0.322500
vt 0.010833 0.322500
vt 0.010833 0.322500
vt 0.010833 0.322500
vt 0.010833 0.322500
vt 0.010833 0.322500
vt 0.010833 0.322500
vt 0.010833 0.322500
vt 0.010833 0.322500
vt 0.010833 0.322500
vt 0.010833 0.322500
vt 0.010833 0.322500
vt 0.010833 0.322500
vt 0.010833 0.322500
vt 0.010833 0.322500
vt 0.010833 0.322500
vt 0.010833 0.322500
vt 0.010833 0.322500
vt 0.010833 0.322500
vt 0.010833 0.322500
vt 0.010833 0.322500
vt 0.010833 0.322500
vt 0.010833 0.322500
vt 0.010833 0.322500
vt 0.010833 0.322500
vt 0.010833 0.322500
vt 0.010833 0.322500
vt 0.010833 0.322500
vt 0.010833 0.322500
vt 0.010833 0.322500
vt 0.010833 0.322500
vt 0.010833 0.322500
vt 0.010833 0.322500
vt 0.010833 0.322500
vt 0.010833 0.322500
vt 0.010833 0.322500
vt 0.010833 0.322500
vt 0.010833 0.239167
vt 0.010833 0.239167
vt 0.010833 0.239167
vt 0.010833 0.239167
vt 0.010833 0.239167
vt 0.010833 0.239167
vt 0.010833 0.239167
vt 0.010833 0.239167
vt 0.010833 0.239167
vt 0.010833 0.239167
vt 0.010833 0.239167
vt 0.010833 0.239167
vt 0.010833 0.239167
vt 0.010833 0.239167
vt 0.010833 0.239167
vt 0.010833 0.239167
vt 0.010833 0.239167
vt 0.010833 0.239167
vt 0.010833 0.239167
vt 0.010833 0.239167
vt 0.010833 0.239167
vt 0.010833 0.239167
vt 0.010833 0.239167
vt 0.010833 0.239167
vt 0.010833 0.239167
vt 0.010833 0.239167
vt 0.010833 0.239167
vt 0.010833 0.239167
vt 0.010833 0.239167
vt 0.010833 0.239167
vt 0.010833 0.155833
vt 0.010833 0.155833
vt 0.010833 0.155833
vt 0.010833 0.155833
vt 0.010833 0.155833
vt 0.010833 0.155833
vt 0.010833 0.155833
vt 0.010833 0.155833
vt 0.010833 0.155833
vt 0.010833 0.155833
vt 0.010833 0.155833
vt 0.010833 0.155833
vt 0.010833 0.155833
vt 0.010833 0.155833
vt 0.010833 0.155833
vt 0.010833 0.155833
vt 0.010833 0.155833
vt 0.010833 0.155833
vt 0.010833 0.155833
vt 0.010833 0.155833
vt 0.010833 0.155833
vt 0.010833 0.155833
vt 0.010833 0.155833
vt 0.010833 0.155833
vt 0.010833 0.155833
vt 0.010833 0.155833
vt 0.010833 0.155833
vt 0.010833 0.155833
vt 0.010833 0.155833
vt 0.010833 0.155833
vt 0.010833 0.989167
vt 0.010833 0.989167
vt 0.010833 0.989167
vt 0.010833 0.989167
vt 0.010833 0.989167
vt 0.010833 0.989167
vt 0.010833 0.905833
vt 0.010833 0.905833
vt 0.010833 0.905833
vt 0.010833 0.739167
vt 0.010833 0.739167
vt 0.010833 0.739167
vt 0.010833 0.822500
vt 0.010833 0.822500
vt 0.010833 0.822500
vt 0.010833 0.655833
vt 0.010833 0.655833
vt 0.010833 0.655833
vt 0.010833 0.489167
vt 0.010833 0.489167
vt 0.010833 0.489167
vt 0.010833 0.405833
vt 0.010833 0.405833
vt 0.010833 0.405833
vt 0.010833 0.905833
vt 0.010833 0.905833
vt 0.010833 0.905833
vt 0.010833 0.739167
vt 0.010833 0.739167
vt 0.010833 0.739167
vt 0.010833 0.905833
vt 0.010833 0.905833
vt 0.010833 0.905833
vt 0.010833 0.739167
vt 0.010833 0.739167
vt 0.010833 0.739167
vt 0.010833 0.989167
vt 0.010833 0.989167
vt 0.010833 0.989167
vt 0.010833 0.572500
vt 0.010833 0.572500
vt 0.010833 0.572500
vt 0.010833 0.822500
vt 0.010833 0.822500
vt 0.010833 0.822500
vt 0.010833 0.489167
vt 0.010833 0.489167
vt 0.010833 0.489167
vt 0.010833 0.989167
vt 0.010833 0.989167
vt 0.010833 0.989167
vt 0.010833 0.989167
vt 0.010833 0.989167
vt 0.010833 0.989167
vt 0.010833 0.322500
vt 0.010833 0.322500
vt 0.010833 0.322500
vt 0.010833 0.322500
vt 0.010833 0.322500
vt 0.010833 0.322500
usemtl d12
f 21/1 22/2 23/3
f 21/4 23/5 24/6
f 21/7 24/8 25/9
f 26/10 27/11 28/12
f 26/13 28/14 29/15
f 26/16 29/17 30/18
f 31/19 32/20 33/21
f 31/22 33/23 34/24
f 31/25 34/26 35/27
f 36/28 37/29 38/30
f 36/31 38/32 39/33
f 36/34 39/35 40/36
f 41/37 42/38 43/39
f 41/40 43/41 44/42
f 41/43 44/44 45/45
f 46/46 47/47 48/48
f 46/49 48/50 49/51
f 46/52 49/53 50/54
f 51/55 52/56 53/57
f 51/58 53/59 54/60
f 51/61 54/62 55/63
f 56/64 57/65 58/66
f 56/67 58/68 59/69
f 56/70 59/71 60/72
f 61/73 62/74 63/75
f 61/76 63/77 64/78
f 61/79 64/80 65/81
f 66/82 67/83 68/84
f 66/85 68/86 69/87
f 66/88 69/89 70/90
f 71/91 72/92 73/93
f 71/94 73/95 74/96
f 71/97 74/98 75/99
f 76/100 77/101 78/102
f 76/103 78/104 79/105
f 76/106 79/107 80/108
f 21/109 22/110 82/111
f 21/112 82/113 81/114
f 81/115 82/116 84/117
f 81/118 84/119 83/120
f 83/121 84/122 86/123
f 83/124 86/125 85/126
f 85/127 86/128 88/129
f 85/130 88/131 87/132
f 87/133 88/134 42/135
f 87/136 42/137 43/138
f 22/139 23/140 90/141
f 22/142 90/143 89/144
f 89/145 90/146 92/147
f 89/148 92/149 91/150
f 91/151 92/152 94/153
f 91/154 94/155 93/156
f 93/157 94/158 96/159
f 93/160 96/161 95/162
f 95/163 96/164 33/165
f 95/166 33/167 34/168
f 23/169 24/170 98/171
f 23/172 98/173 97/174
f 97/175 98/176 100/177
f 97/178 100/179 99/180
f 99/181 100/182 102/183
f 99/184 102/185 101/186
f 101/187 102/188 104/189
f 101/190 104/191 103/192
f 103/193 104/194 27/195
f 103/196 27/197 28/198
f 24/199 25/200 106/201
f 24/202 106/203 105/204
f 105/205 106/206 108/207
f 105/208 108/209 107/210
f 107/211 108/212 110/213
f 107/214 110/215 109/216
f 109/217 110/218 112/219
f 109/220 112/221 111/222
f 111/223 112/224 46/225
f 111/226 46/227 47/228
f 25/229 21/230 114/231
f 25/232 114/233 113/234
f 113/235 114/236 116/237
f 113/238 116/239 115/240
f 115/241 116/242 118/243
f 115/244 118/245 117/246
f 117/247 118/248 120/249
f 117/250 120/251 119/252
f 119/253 120/254 38/255
f 119/256 38/257 39/258
f 26/259 27/260 122/261
f 26/262 122/263 121/264
f 121/265 122/266 124/267
f 121/268 124/269 123/270
f 123/271 124/272 126/273
f 123/274 126/275 125/276
f 125/277 126/278 128/279
f 125/280 128/281 127/282
f 127/283 128/284 47/285
f 127/286 47/287 48/288
f 28/289 29/290 130/291
f 28/292 130/293 129/294
f 129/295 130/296 132/297
f 129/298 132/299 131/300
f 131/301 132/302 134/303
f 131/304 134/305 133/306
f 133/307 134/308 136/309
f 133/310 136/311 135/312
f 135/313 136/314 32/315
f 135/316 32/317 33/318
f 29/319 30/320 138/321
f 29/322 138/323 137/324
f 137/325 138/326 140/327
f 137/328 140/329 139/330
f 139/331 140/332 142/333
f 139/334 142/335 141/336
f 141/337 142/338 144/339
f 141/340 144/341 143/342
f 143/343 144/344 66/345
f 143/346 66/347 67/348
f 30/349 26/350 146/351
f 30/352 146/353 145/354
f 145/355 146/356 148/357
f 145/358 148/359 147/360
f 147/361 148/362 150/363
f 147/364 150/365 149/366
f 149/367 150/368 152/369
f 149/370 152/371 151/372
f 151/373 152/374 53/375
f 151/376 53/377 54/378
f 31/379 32/380 154/381
f 31/382 154/383 153/384
f 153/385 154/386 156/387
f 153/388 156/389 155/390
f 155/391 156/392 158/393
f 155/394 158/395 157/396
f 157/397 158/398 160/399
f 157/400 160/401 159/402
f 159/403 160/404 67/405
f 159/406 67/407 68/408
f 34/409 35/410 162/411
f 34/412 162/413 161/414
f 161/415 162/416 164/417
f 161/418 164/419 163/420
f 163/421 164/422 166/423
f 163/424 166/425 165/426
f 165/427 166/428 168/429
f 165/430 168/431 167/432
f 167/433 168/434 41/435
f 167/436 41/437 42/438
f 35/439 31/440 170/441
f 35/442 170/443 169/444
f 169/445 170/446 172/447
f 169/448 172/449 171/450
f 171/451 172/452 174/453
f 171/454 174/455 173/456
f 173/457 174/458 176/459
f 173/460 176/461 175/462
f 175/463 176/464 63/465
f 175/466 63/467 64/468
f 36/469 37/470 178/471
f 36/472 178/473 177/474
f 177/475 178/476 180/477
f 177/478 180/479 179/480
f 179/481 180/482 182/483
f 179/484 182/485 181/486
f 181/487 182/488 184/489
f 181/490 184/491 183/492
f 183/493 184/494 74/495
f 183/496 74/497 75/498
f 37/499 38/500 186/501
f 37/502 186/503 185/504
f 185/505 186/506 188/507
f 185/508 188/509 187/510
f 187/511 188/512 190/513
f 187/514 190/515 189/516
f 189/517 190/518 192/519
f 189/520 192/521 191/522
f 191/523 192/524 43/525
f 191/526 43/527 44/528
f 39/529 40/530 194/531
f 39/532 194/533 193/534
f 193/535 194/536 196/537
f 193/538 196/539 195/540
f 195/541 196/542 198/543
f 195/544 198/545 197/546
f 197/547 198/548 200/549
f 197/550 200/551 199/552
f 199/553 200/554 50/555
f 199/556 50/557 46/558
f 40/559 36/560 202/561
f 40/562 202/563 201/564
f 201/565 202/566 204/567
f 201/568 204/569 203/570
f 203/571 204/572 206/573
f 203/574 206/575 205/576
f 205/577 206/578 208/579
f 205/580 208/581 207/582
f 207/583 208/584 57/585
f 207/586 57/587 58/588
f 44/589 45/590 210/591
f 44/592 210/593 209/594
f 209/595 210/596 212/597
f 209/598 212/599 211/600
f 211/601 212/602 214/603
f 211/604 214/605 213/606
f 213/607 214/608 216/609
f 213/610 216/611 215/612
f 215/613 216/614 73/615
f 215/616 73/617 74/618
f 45/619 41/620 218/621
f 45/622 218/623 217/624
f 217/625 218/626 220/627
f 217/628 220/629 219/630
f 219/631 220/632 222/633
f 219/634 222/635 221/636
f 221/637 222/638 224/639
f 221/640 224/641 223/642
f 223/643 224/644 64/645
f 223/646 64/647 65/648
f 48/649 49/650 226/651
f 48/652 226/653 225/654
f 225/655 226/656 228/657
f 225/658 228/659 227/660
f 227/661 228/662 230/663
f 227/664 230/665 229/666
f 229/667 230/668 232/669
f 229/670 232/671 231/672
f 231/673 232/674 52/675
f 231/676 52/677 53/678
f 49/679 50/680 234/681
f 49/682 234/683 233/684
f 233/685 234/686 236/687
f 233/688 236/689 235/690
f 235/691 236/692 238/693
f 235/694 238/695 237/696
f 237/697 238/698 240/699
f 237/700 240/701 239/702
f 239/703 240/704 58/705
f 239/706 58/707 59/708
f 51/709 52/710 242/711
f 51/712 242/713 241/714
f 241/715 242/716 244/717
f 241/718 244/719 243/720
f 243/721 244/722 246/723
f 243/724 246/725 245/726
f 245/727 246/728 248/729
f 245/730 248/731 247/732
f 247/733 248/734 59/735
f 247/736 59/737 60/738
f 54/739 55/740 250/741
f 54/742 250/743 249/744
f 249/745 250/746 252/747
f 249/748 252/749 251/750
f 251/751 252/752 254/753
f 251/754 254/755 253/756
f 253/757 254/758 256/759
f 253/760 256/761 255/762
f 255/763 256/764 70/765
f 255/766 70/767 66/768
f 55/769 51/770 258/771
f 55/772 258/773 257/774
f 257/775 258/776 260/777
f 257/778 260/779 259/780
f 259/781 260/782 262/783
f 259/784 262/785 261/786
f 261/787 262/788 264/789
f 261/790 264/791 263/792
f 263/793 264/794 77/795
f 263/796 77/797 78/798
f 56/799 57/800 266/801
f 56/802 266/803 265/804
f 265/805 266/806 268/807
f 265/808 268/809 267/810
f 267/811 268/812 270/813
f 267/814 270/815 269/816
f 269/817 270/818 272/819
f 269/820 272/821 271/822
f 271/823 272/824 75/825
f 271/826 75/827 71/828
f 60/829 56/830 274/831
f 60/832 274/833 273/834
f 273/835 274/836 276/837
f 273/838 276/839 275/840
f 275/841 276/842 278/843
f 275/844 278/845 277/846
f 277/847 278/848 280/849
f 277/850 280/851 279/852
f 279/853 280/854 76/855
f 279/856 76/857 77/858
f 61/859 62/860 282/861
f 61/862 282/863 281/864
f 281/865 282/866 284/867
f 281/868 284/869 283/870
f 283/871 284/872 286/873
f 283/874 286/875 285/876
f 285/877 286/878 288/879
f 285/880 288/881 287/882
f 287/883 288/884 79/885
f 287/886 79/887 80/888
f 62/889 63/890 290/891
f 62/892 290/893 289/894
f 289/895 290/896 292/897
f 289/898 292/899 291/900
f 291/901 292/902 294/903
f 291/904 294/905 293/906
f 293/907 294/908 296/909
f 293/910 296/911 295/912
f 295/913 296/914 68/915
f 295/916 68/917 69/918
f 65/919 61/920 298/921
f 65/922 298/923 297/924
f 297/925 298/926 300/927
f 297/928 300/929 299/930
f 299/931 300/932 302/933
f 299/934 302/935 301/936
f 301/937 302/938 304/939
f 301/940 304/941 303/942
f 303/943 304/944 72/945
f 303/946 72/947 73/948
f 69/949 70/950 306/951
f 69/952 306/953 305/954
f 305/955 306/956 308/957
f 305/958 308/959 307/960
f 307/961 308/962 310/963
f 307/964 310/965 309/966
f 309/967 310/968 312/969
f 309/970 312/971 311/972
f 311/973 312/974 78/975
f 311/976 78/977 79/978
f 71/979 72/980 314/981
f 71/982 314/983 313/984
f 313/985 314/986 316/987
f 313/988 316/989 315/990
f 315/991 316/992 318/993
f 315/994 318/995 317/996
f 317/997 318/998 320/999
f 317/1000 320/1001 319/1002
f 319/1003 320/1004 80/1005
f 319/1006 80/1007 76/1008
f 33/1009 28/1010 23/1011
f 21/1012 38/1013 43/1014
f 26/1015 53/1016 48/1017
f 50/1018 58/1019 40/1020
f 68/1021 31/1022 63/1023
f 65/1024 45/1025 73/1026
f 55/1027 70/1028 78/1029
f 76/1030 71/1031 56/1032
f 29/1033 32/1034 67/1035
f 37/1036 74/1037 44/1038
f 30/1039 66/1040 54/1041
f 36/1042 57/1043 75/1044
f 34/1045 22/1046 42/1047
f 52/1048 59/1049 49/1050
f 35/1051 41/1052 64/1053
f 51/1054 77/1055 60/1056
f 27/1057 47/1058 24/1059
f 25/1060 46/1061 39/1062
f 69/1063 62/1064 79/1065
f 80/1066 61/1067 72/1068
