# d20 from qb64-dungeon (DICE3D)
# set: Amethyst Marble   bevel: 0.500000
# atlas is 1536x2560 -- the FIRST column is full-bright;
# the columns to its right are pre-darkened lighting levels the GAME samples.
# For rendering, light it yourself and use column 0 only (that is what these UVs use).
mtllib d20.mtl
o d20
v 0.000000 0.525731 0.850651
v 0.000000 0.525731 -0.850651
v 0.000000 -0.525731 0.850651
v 0.000000 -0.525731 -0.850651
v 0.525731 0.850651 0.000000
v 0.525731 -0.850651 0.000000
v -0.525731 0.850651 0.000000
v -0.525731 -0.850651 0.000000
v 0.850651 0.000000 0.525731
v 0.850651 0.000000 -0.525731
v -0.850651 0.000000 0.525731
v -0.850651 0.000000 -0.525731
v 0.799612 0.000000 0.545226
v 0.025520 0.478415 0.840903
v 0.025520 -0.478415 0.840903
v -0.025520 -0.478415 0.840903
v -0.025520 0.478415 0.840903
v -0.799612 0.000000 0.545226
v -0.478415 0.840903 0.025520
v 0.000000 0.545226 0.799612
v 0.478415 0.840903 0.025520
v 0.519707 0.815384 0.041291
v 0.041291 0.519707 0.815384
v 0.815384 0.041291 0.519707
v -0.815384 0.041291 0.519707
v -0.041291 0.519707 0.815384
v -0.519707 0.815384 0.041291
v 0.025520 -0.478415 -0.840903
v 0.025520 0.478415 -0.840903
v 0.799612 0.000000 -0.545226
v -0.799612 0.000000 -0.545226
v -0.025520 0.478415 -0.840903
v -0.025520 -0.478415 -0.840903
v 0.478415 0.840903 -0.025520
v 0.000000 0.545226 -0.799612
v -0.478415 0.840903 -0.025520
v 0.815384 0.041291 -0.519707
v 0.041291 0.519707 -0.815384
v 0.519707 0.815384 -0.041291
v -0.519707 0.815384 -0.041291
v -0.041291 0.519707 -0.815384
v -0.815384 0.041291 -0.519707
v 0.478415 -0.840903 0.025520
v 0.000000 -0.545226 0.799612
v -0.478415 -0.840903 0.025520
v 0.815384 -0.041291 0.519707
v 0.041291 -0.519707 0.815384
v 0.519707 -0.815384 0.041291
v -0.519707 -0.815384 0.041291
v -0.041291 -0.519707 0.815384
v -0.815384 -0.041291 0.519707
v -0.478415 -0.840903 -0.025520
v 0.000000 -0.545226 -0.799612
v 0.478415 -0.840903 -0.025520
v 0.519707 -0.815384 -0.041291
v 0.041291 -0.519707 -0.815384
v 0.815384 -0.041291 -0.519707
v -0.815384 -0.041291 -0.519707
v -0.041291 -0.519707 -0.815384
v -0.519707 -0.815384 -0.041291
v 0.840903 0.025520 -0.478415
v 0.545226 0.799612 0.000000
v 0.840903 0.025520 0.478415
v 0.840903 -0.025520 0.478415
v 0.545226 -0.799612 0.000000
v 0.840903 -0.025520 -0.478415
v -0.840903 0.025520 0.478415
v -0.545226 0.799612 0.000000
v -0.840903 0.025520 -0.478415
v -0.840903 -0.025520 -0.478415
v -0.545226 -0.799612 0.000000
v -0.840903 -0.025520 0.478415
v 0.816575 0.001652 0.537967
v 0.017984 0.495208 0.843002
v 0.826634 0.006607 0.531785
v 0.015794 0.507734 0.841499
v 0.829788 0.014865 0.526682
v 0.018948 0.515992 0.836395
v 0.826038 0.026427 0.522655
v 0.027447 0.519983 0.827690
v 0.015312 0.493556 0.844023
v 0.015312 -0.493556 0.844023
v 0.005104 0.501127 0.845582
v 0.005104 -0.501127 0.845582
v -0.005104 0.501127 0.845582
v -0.005104 -0.501127 0.845582
v -0.015312 0.493556 0.844022
v -0.015312 -0.493556 0.844022
v 0.017984 -0.495208 0.843002
v 0.816575 -0.001652 0.537967
v 0.015794 -0.507734 0.841499
v 0.826634 -0.006607 0.531785
v 0.018948 -0.515992 0.836395
v 0.829788 -0.014865 0.526682
v 0.027447 -0.519983 0.827690
v 0.826038 -0.026427 0.522655
v -0.017984 0.495208 0.843002
v -0.816575 0.001652 0.537967
v -0.015794 0.507734 0.841499
v -0.826634 0.006607 0.531785
v -0.018948 0.515992 0.836395
v -0.829788 0.014865 0.526682
v -0.027447 0.519983 0.827690
v -0.826038 0.026427 0.522655
v -0.816575 -0.001652 0.537967
v -0.017984 -0.495208 0.843002
v -0.826634 -0.006607 0.531785
v -0.015794 -0.507734 0.841499
v -0.829788 -0.014865 0.526682
v -0.018948 -0.515992 0.836395
v -0.826038 -0.026427 0.522655
v -0.027447 -0.519983 0.827690
v -0.495208 0.843002 0.017984
v -0.001652 0.537967 0.816575
v -0.507734 0.841499 0.015794
v -0.006607 0.531785 0.826634
v -0.515992 0.836395 0.018948
v -0.014865 0.526682 0.829788
v -0.519983 0.827690 0.027447
v -0.026427 0.522655 0.826038
v 0.001652 0.537967 0.816575
v 0.495208 0.843002 0.017984
v 0.006607 0.531785 0.826634
v 0.507734 0.841499 0.015794
v 0.014865 0.526682 0.829788
v 0.515992 0.836395 0.018948
v 0.026427 0.522655 0.826038
v 0.519983 0.827690 0.027447
v 0.493556 0.844023 0.015312
v -0.493556 0.844023 0.015312
v 0.501127 0.845582 0.005104
v -0.501127 0.845582 0.005104
v 0.501127 0.845582 -0.005104
v -0.501127 0.845582 -0.005104
v 0.493556 0.844022 -0.015312
v -0.493556 0.844022 -0.015312
v 0.827690 0.027447 0.519983
v 0.522655 0.826038 0.026427
v 0.836395 0.018948 0.515992
v 0.526682 0.829788 0.014865
v 0.841499 0.015794 0.507734
v 0.531785 0.826634 0.006607
v 0.843002 0.017984 0.495208
v 0.537967 0.816575 0.001652
v -0.522655 0.826038 0.026427
v -0.827690 0.027447 0.519983
v -0.526682 0.829788 0.014865
v -0.836395 0.018948 0.515992
v -0.531785 0.826634 0.006607
v -0.841499 0.015794 0.507734
v -0.537967 0.816575 0.001652
v -0.843002 0.017984 0.495208
v 0.015312 -0.493556 -0.844023
v 0.015312 0.493556 -0.844023
v 0.005104 -0.501127 -0.845582
v 0.005104 0.501127 -0.845582
v -0.005104 -0.501127 -0.845582
v -0.005104 0.501127 -0.845582
v -0.015312 -0.493556 -0.844022
v -0.015312 0.493556 -0.844022
v 0.017984 0.495208 -0.843002
v 0.816575 0.001652 -0.537967
v 0.015794 0.507734 -0.841499
v 0.826634 0.006607 -0.531785
v 0.018948 0.515992 -0.836395
v 0.829788 0.014865 -0.526682
v 0.027447 0.519983 -0.827690
v 0.826038 0.026427 -0.522655
v 0.816575 -0.001652 -0.537967
v 0.017984 -0.495208 -0.843002
v 0.826634 -0.006607 -0.531785
v 0.015794 -0.507734 -0.841499
v 0.829788 -0.014865 -0.526682
v 0.018948 -0.515992 -0.836395
v 0.826038 -0.026427 -0.522655
v 0.027447 -0.519983 -0.827690
v -0.816575 0.001652 -0.537967
v -0.017984 0.495208 -0.843002
v -0.826634 0.006607 -0.531785
v -0.015794 0.507734 -0.841499
v -0.829788 0.014865 -0.526682
v -0.018948 0.515992 -0.836395
v -0.826038 0.026427 -0.522655
v -0.027447 0.519983 -0.827690
v -0.017984 -0.495208 -0.843002
v -0.816575 -0.001652 -0.537967
v -0.015794 -0.507734 -0.841499
v -0.826634 -0.006607 -0.531785
v -0.018948 -0.515992 -0.836395
v -0.829788 -0.014865 -0.526682
v -0.027447 -0.519983 -0.827690
v -0.826038 -0.026427 -0.522655
v 0.495208 0.843002 -0.017984
v 0.001652 0.537967 -0.816575
v 0.507734 0.841499 -0.015794
v 0.006607 0.531785 -0.826634
v 0.515992 0.836395 -0.018948
v 0.014865 0.526682 -0.829788
v 0.519983 0.827690 -0.027447
v 0.026427 0.522655 -0.826038
v -0.001652 0.537967 -0.816575
v -0.495208 0.843002 -0.017984
v -0.006607 0.531785 -0.826634
v -0.507734 0.841499 -0.015794
v -0.014865 0.526682 -0.829788
v -0.515992 0.836395 -0.018948
v -0.026427 0.522655 -0.826038
v -0.519983 0.827690 -0.027447
v 0.522655 0.826038 -0.026427
v 0.827690 0.027447 -0.519983
v 0.526682 0.829788 -0.014865
v 0.836395 0.018948 -0.515992
v 0.531785 0.826634 -0.006607
v 0.841499 0.015794 -0.507734
v 0.537967 0.816575 -0.001652
v 0.843002 0.017984 -0.495208
v -0.827690 0.027447 -0.519983
v -0.522655 0.826038 -0.026427
v -0.836395 0.018948 -0.515992
v -0.526682 0.829788 -0.014865
v -0.841499 0.015794 -0.507734
v -0.531785 0.826634 -0.006607
v -0.843002 0.017984 -0.495208
v -0.537967 0.816575 -0.001652
v 0.495208 -0.843002 0.017984
v 0.001652 -0.537967 0.816575
v 0.507734 -0.841499 0.015794
v 0.006607 -0.531785 0.826634
v 0.515992 -0.836395 0.018948
v 0.014865 -0.526682 0.829788
v 0.519983 -0.827690 0.027447
v 0.026427 -0.522655 0.826038
v -0.001652 -0.537967 0.816575
v -0.495208 -0.843002 0.017984
v -0.006607 -0.531785 0.826634
v -0.507734 -0.841499 0.015794
v -0.014865 -0.526682 0.829788
v -0.515992 -0.836395 0.018948
v -0.026427 -0.522655 0.826038
v -0.519983 -0.827690 0.027447
v -0.493556 -0.844023 0.015312
v 0.493556 -0.844023 0.015312
v -0.501127 -0.845582 0.005104
v 0.501127 -0.845582 0.005104
v -0.501127 -0.845582 -0.005104
v 0.501127 -0.845582 -0.005104
v -0.493556 -0.844022 -0.015312
v 0.493556 -0.844022 -0.015312
v 0.522655 -0.826038 0.026427
v 0.827690 -0.027447 0.519983
v 0.526682 -0.829788 0.014865
v 0.836395 -0.018948 0.515992
v 0.531785 -0.826634 0.006607
v 0.841499 -0.015794 0.507734
v 0.537967 -0.816575 0.001652
v 0.843002 -0.017984 0.495208
v -0.827690 -0.027447 0.519983
v -0.522655 -0.826038 0.026427
v -0.836395 -0.018948 0.515992
v -0.526682 -0.829788 0.014865
v -0.841499 -0.015794 0.507734
v -0.531785 -0.826634 0.006607
v -0.843002 -0.017984 0.495208
v -0.537967 -0.816575 0.001652
v -0.495208 -0.843002 -0.017984
v -0.001652 -0.537967 -0.816575
v -0.507734 -0.841499 -0.015794
v -0.006607 -0.531785 -0.826634
v -0.515992 -0.836395 -0.018948
v -0.014865 -0.526682 -0.829788
v -0.519983 -0.827690 -0.027447
v -0.026427 -0.522655 -0.826038
v 0.001652 -0.537967 -0.816575
v 0.495208 -0.843002 -0.017984
v 0.006607 -0.531785 -0.826634
v 0.507734 -0.841499 -0.015794
v 0.014865 -0.526682 -0.829788
v 0.515992 -0.836395 -0.018948
v 0.026427 -0.522655 -0.826038
v 0.519983 -0.827690 -0.027447
v 0.827690 -0.027447 -0.519983
v 0.522655 -0.826038 -0.026427
v 0.836395 -0.018948 -0.515992
v 0.526682 -0.829788 -0.014865
v 0.841499 -0.015794 -0.507734
v 0.531785 -0.826634 -0.006607
v 0.843002 -0.017984 -0.495208
v 0.537967 -0.816575 -0.001652
v -0.522655 -0.826038 -0.026427
v -0.827690 -0.027447 -0.519983
v -0.526682 -0.829788 -0.014865
v -0.836395 -0.018948 -0.515992
v -0.531785 -0.826634 -0.006607
v -0.841499 -0.015794 -0.507734
v -0.537967 -0.816575 -0.001652
v -0.843002 -0.017984 -0.495208
v 0.844023 0.015312 0.493556
v 0.844023 0.015312 -0.493556
v 0.845582 0.005104 0.501127
v 0.845582 0.005104 -0.501127
v 0.845582 -0.005104 0.501127
v 0.845582 -0.005104 -0.501127
v 0.844022 -0.015312 0.493556
v 0.844022 -0.015312 -0.493556
v -0.844023 0.015312 -0.493556
v -0.844023 0.015312 0.493556
v -0.845582 0.005104 -0.501127
v -0.845582 0.005104 0.501127
v -0.845582 -0.005104 -0.501127
v -0.845582 -0.005104 0.501127
v -0.844022 -0.015312 -0.493556
v -0.844022 -0.015312 0.493556
vt 0.012348 0.964844
vt 0.070985 0.964844
vt 0.041667 0.995313
vt 0.012348 0.914844
vt 0.070985 0.914844
vt 0.041667 0.945313
vt 0.012348 0.864844
vt 0.070985 0.864844
vt 0.041667 0.895312
vt 0.012348 0.814844
vt 0.070985 0.814844
vt 0.041667 0.845312
vt 0.012348 0.764844
vt 0.070985 0.764844
vt 0.041667 0.795313
vt 0.012348 0.714844
vt 0.070985 0.714844
vt 0.041667 0.745313
vt 0.012348 0.664844
vt 0.070985 0.664844
vt 0.041667 0.695313
vt 0.012348 0.614844
vt 0.070985 0.614844
vt 0.041667 0.645312
vt 0.012348 0.564844
vt 0.070985 0.564844
vt 0.041667 0.595312
vt 0.012348 0.514844
vt 0.070985 0.514844
vt 0.041667 0.545313
vt 0.012348 0.464844
vt 0.070985 0.464844
vt 0.041667 0.495313
vt 0.012348 0.414844
vt 0.070985 0.414844
vt 0.041667 0.445313
vt 0.012348 0.364844
vt 0.070985 0.364844
vt 0.041667 0.395312
vt 0.012348 0.314844
vt 0.070985 0.314844
vt 0.041667 0.345312
vt 0.012348 0.264844
vt 0.070985 0.264844
vt 0.041667 0.295313
vt 0.012348 0.214844
vt 0.070985 0.214844
vt 0.041667 0.245313
vt 0.012348 0.164844
vt 0.070985 0.164844
vt 0.041667 0.195313
vt 0.012348 0.114844
vt 0.070985 0.114844
vt 0.041667 0.145312
vt 0.012348 0.064844
vt 0.070985 0.064844
vt 0.041667 0.095312
vt 0.012348 0.014844
vt 0.070985 0.014844
vt 0.041667 0.045313
vt 0.010833 0.993500
vt 0.010833 0.993500
vt 0.010833 0.993500
vt 0.010833 0.993500
vt 0.010833 0.993500
vt 0.010833 0.993500
vt 0.010833 0.993500
vt 0.010833 0.993500
vt 0.010833 0.993500
vt 0.010833 0.993500
vt 0.010833 0.993500
vt 0.010833 0.993500
vt 0.010833 0.993500
vt 0.010833 0.993500
vt 0.010833 0.993500
vt 0.010833 0.993500
vt 0.010833 0.993500
vt 0.010833 0.993500
vt 0.010833 0.993500
vt 0.010833 0.993500
vt 0.010833 0.993500
vt 0.010833 0.993500
vt 0.010833 0.993500
vt 0.010833 0.993500
vt 0.010833 0.993500
vt 0.010833 0.993500
vt 0.010833 0.993500
vt 0.010833 0.993500
vt 0.010833 0.993500
vt 0.010833 0.993500
vt 0.010833 0.993500
vt 0.010833 0.993500
vt 0.010833 0.993500
vt 0.010833 0.993500
vt 0.010833 0.993500
vt 0.010833 0.993500
vt 0.010833 0.993500
vt 0.010833 0.993500
vt 0.010833 0.993500
vt 0.010833 0.993500
vt 0.010833 0.993500
vt 0.010833 0.993500
vt 0.010833 0.993500
vt 0.010833 0.993500
vt 0.010833 0.993500
vt 0.010833 0.993500
vt 0.010833 0.993500
vt 0.010833 0.993500
vt 0.010833 0.993500
vt 0.010833 0.993500
vt 0.010833 0.993500
vt 0.010833 0.993500
vt 0.010833 0.993500
vt 0.010833 0.993500
vt 0.010833 0.993500
vt 0.010833 0.993500
vt 0.010833 0.993500
vt 0.010833 0.993500
vt 0.010833 0.993500
vt 0.010833 0.993500
vt 0.010833 0.993500
vt 0.010833 0.993500
vt 0.010833 0.993500
vt 0.010833 0.993500
vt 0.010833 0.993500
vt 0.010833 0.993500
vt 0.010833 0.993500
vt 0.010833 0.993500
vt 0.010833 0.993500
vt 0.010833 0.993500
vt 0.010833 0.993500
vt 0.010833 0.993500
vt 0.010833 0.993500
vt 0.010833 0.993500
vt 0.010833 0.993500
vt 0.010833 0.993500
vt 0.010833 0.993500
vt 0.010833 0.993500
vt 0.010833 0.993500
vt 0.010833 0.993500
vt 0.010833 0.993500
vt 0.010833 0.993500
vt 0.010833 0.993500
vt 0.010833 0.993500
vt 0.010833 0.993500
vt 0.010833 0.993500
vt 0.010833 0.993500
vt 0.010833 0.993500
vt 0.010833 0.993500
vt 0.010833 0.993500
vt 0.010833 0.943500
vt 0.010833 0.943500
vt 0.010833 0.943500
vt 0.010833 0.943500
vt 0.010833 0.943500
vt 0.010833 0.943500
vt 0.010833 0.943500
vt 0.010833 0.943500
vt 0.010833 0.943500
vt 0.010833 0.943500
vt 0.010833 0.943500
vt 0.010833 0.943500
vt 0.010833 0.943500
vt 0.010833 0.943500
vt 0.010833 0.943500
vt 0.010833 0.943500
vt 0.010833 0.943500
vt 0.010833 0.943500
vt 0.010833 0.943500
vt 0.010833 0.943500
vt 0.010833 0.943500
vt 0.010833 0.943500
vt 0.010833 0.943500
vt 0.010833 0.943500
vt 0.010833 0.943500
vt 0.010833 0.943500
vt 0.010833 0.943500
vt 0.010833 0.943500
vt 0.010833 0.943500
vt 0.010833 0.943500
vt 0.010833 0.943500
vt 0.010833 0.943500
vt 0.010833 0.943500
vt 0.010833 0.943500
vt 0.010833 0.943500
vt 0.010833 0.943500
vt 0.010833 0.943500
vt 0.010833 0.943500
vt 0.010833 0.943500
vt 0.010833 0.943500
vt 0.010833 0.943500
vt 0.010833 0.943500
vt 0.010833 0.943500
vt 0.010833 0.943500
vt 0.010833 0.943500
vt 0.010833 0.943500
vt 0.010833 0.943500
vt 0.010833 0.943500
vt 0.010833 0.943500
vt 0.010833 0.943500
vt 0.010833 0.943500
vt 0.010833 0.943500
vt 0.010833 0.943500
vt 0.010833 0.943500
vt 0.010833 0.943500
vt 0.010833 0.943500
vt 0.010833 0.943500
vt 0.010833 0.943500
vt 0.010833 0.943500
vt 0.010833 0.943500
vt 0.010833 0.893500
vt 0.010833 0.893500
vt 0.010833 0.893500
vt 0.010833 0.893500
vt 0.010833 0.893500
vt 0.010833 0.893500
vt 0.010833 0.893500
vt 0.010833 0.893500
vt 0.010833 0.893500
vt 0.010833 0.893500
vt 0.010833 0.893500
vt 0.010833 0.893500
vt 0.010833 0.893500
vt 0.010833 0.893500
vt 0.010833 0.893500
vt 0.010833 0.893500
vt 0.010833 0.893500
vt 0.010833 0.893500
vt 0.010833 0.893500
vt 0.010833 0.893500
vt 0.010833 0.893500
vt 0.010833 0.893500
vt 0.010833 0.893500
vt 0.010833 0.893500
vt 0.010833 0.893500
vt 0.010833 0.893500
vt 0.010833 0.893500
vt 0.010833 0.893500
vt 0.010833 0.893500
vt 0.010833 0.893500
vt 0.010833 0.893500
vt 0.010833 0.893500
vt 0.010833 0.893500
vt 0.010833 0.893500
vt 0.010833 0.893500
vt 0.010833 0.893500
vt 0.010833 0.893500
vt 0.010833 0.893500
vt 0.010833 0.893500
vt 0.010833 0.893500
vt 0.010833 0.893500
vt 0.010833 0.893500
vt 0.010833 0.893500
vt 0.010833 0.893500
vt 0.010833 0.893500
vt 0.010833 0.893500
vt 0.010833 0.893500
vt 0.010833 0.893500
vt 0.010833 0.893500
vt 0.010833 0.893500
vt 0.010833 0.893500
vt 0.010833 0.893500
vt 0.010833 0.893500
vt 0.010833 0.893500
vt 0.010833 0.893500
vt 0.010833 0.893500
vt 0.010833 0.893500
vt 0.010833 0.893500
vt 0.010833 0.893500
vt 0.010833 0.893500
vt 0.010833 0.893500
vt 0.010833 0.893500
vt 0.010833 0.893500
vt 0.010833 0.893500
vt 0.010833 0.893500
vt 0.010833 0.893500
vt 0.010833 0.893500
vt 0.010833 0.893500
vt 0.010833 0.893500
vt 0.010833 0.893500
vt 0.010833 0.893500
vt 0.010833 0.893500
vt 0.010833 0.893500
vt 0.010833 0.893500
vt 0.010833 0.893500
vt 0.010833 0.893500
vt 0.010833 0.893500
vt 0.010833 0.893500
vt 0.010833 0.893500
vt 0.010833 0.893500
vt 0.010833 0.893500
vt 0.010833 0.893500
vt 0.010833 0.893500
vt 0.010833 0.893500
vt 0.010833 0.893500
vt 0.010833 0.893500
vt 0.010833 0.893500
vt 0.010833 0.893500
vt 0.010833 0.893500
vt 0.010833 0.893500
vt 0.010833 0.843500
vt 0.010833 0.843500
vt 0.010833 0.843500
vt 0.010833 0.843500
vt 0.010833 0.843500
vt 0.010833 0.843500
vt 0.010833 0.843500
vt 0.010833 0.843500
vt 0.010833 0.843500
vt 0.010833 0.843500
vt 0.010833 0.843500
vt 0.010833 0.843500
vt 0.010833 0.843500
vt 0.010833 0.843500
vt 0.010833 0.843500
vt 0.010833 0.843500
vt 0.010833 0.843500
vt 0.010833 0.843500
vt 0.010833 0.843500
vt 0.010833 0.843500
vt 0.010833 0.843500
vt 0.010833 0.843500
vt 0.010833 0.843500
vt 0.010833 0.843500
vt 0.010833 0.843500
vt 0.010833 0.843500
vt 0.010833 0.843500
vt 0.010833 0.843500
vt 0.010833 0.843500
vt 0.010833 0.843500
vt 0.010833 0.793500
vt 0.010833 0.793500
vt 0.010833 0.793500
vt 0.010833 0.793500
vt 0.010833 0.793500
vt 0.010833 0.793500
vt 0.010833 0.793500
vt 0.010833 0.793500
vt 0.010833 0.793500
vt 0.010833 0.793500
vt 0.010833 0.793500
vt 0.010833 0.793500
vt 0.010833 0.793500
vt 0.010833 0.793500
vt 0.010833 0.793500
vt 0.010833 0.793500
vt 0.010833 0.793500
vt 0.010833 0.793500
vt 0.010833 0.793500
vt 0.010833 0.793500
vt 0.010833 0.793500
vt 0.010833 0.793500
vt 0.010833 0.793500
vt 0.010833 0.793500
vt 0.010833 0.793500
vt 0.010833 0.793500
vt 0.010833 0.793500
vt 0.010833 0.793500
vt 0.010833 0.793500
vt 0.010833 0.793500
vt 0.010833 0.743500
vt 0.010833 0.743500
vt 0.010833 0.743500
vt 0.010833 0.743500
vt 0.010833 0.743500
vt 0.010833 0.743500
vt 0.010833 0.743500
vt 0.010833 0.743500
vt 0.010833 0.743500
vt 0.010833 0.743500
vt 0.010833 0.743500
vt 0.010833 0.743500
vt 0.010833 0.743500
vt 0.010833 0.743500
vt 0.010833 0.743500
vt 0.010833 0.743500
vt 0.010833 0.743500
vt 0.010833 0.743500
vt 0.010833 0.743500
vt 0.010833 0.743500
vt 0.010833 0.743500
vt 0.010833 0.743500
vt 0.010833 0.743500
vt 0.010833 0.743500
vt 0.010833 0.743500
vt 0.010833 0.743500
vt 0.010833 0.743500
vt 0.010833 0.743500
vt 0.010833 0.743500
vt 0.010833 0.743500
vt 0.010833 0.743500
vt 0.010833 0.743500
vt 0.010833 0.743500
vt 0.010833 0.743500
vt 0.010833 0.743500
vt 0.010833 0.743500
vt 0.010833 0.743500
vt 0.010833 0.743500
vt 0.010833 0.743500
vt 0.010833 0.743500
vt 0.010833 0.743500
vt 0.010833 0.743500
vt 0.010833 0.743500
vt 0.010833 0.743500
vt 0.010833 0.743500
vt 0.010833 0.743500
vt 0.010833 0.743500
vt 0.010833 0.743500
vt 0.010833 0.743500
vt 0.010833 0.743500
vt 0.010833 0.743500
vt 0.010833 0.743500
vt 0.010833 0.743500
vt 0.010833 0.743500
vt 0.010833 0.743500
vt 0.010833 0.743500
vt 0.010833 0.743500
vt 0.010833 0.743500
vt 0.010833 0.743500
vt 0.010833 0.743500
vt 0.010833 0.743500
vt 0.010833 0.743500
vt 0.010833 0.743500
vt 0.010833 0.743500
vt 0.010833 0.743500
vt 0.010833 0.743500
vt 0.010833 0.743500
vt 0.010833 0.743500
vt 0.010833 0.743500
vt 0.010833 0.743500
vt 0.010833 0.743500
vt 0.010833 0.743500
vt 0.010833 0.743500
vt 0.010833 0.743500
vt 0.010833 0.743500
vt 0.010833 0.743500
vt 0.010833 0.743500
vt 0.010833 0.743500
vt 0.010833 0.743500
vt 0.010833 0.743500
vt 0.010833 0.743500
vt 0.010833 0.743500
vt 0.010833 0.743500
vt 0.010833 0.743500
vt 0.010833 0.743500
vt 0.010833 0.743500
vt 0.010833 0.743500
vt 0.010833 0.743500
vt 0.010833 0.743500
vt 0.010833 0.743500
vt 0.010833 0.693500
vt 0.010833 0.693500
vt 0.010833 0.693500
vt 0.010833 0.693500
vt 0.010833 0.693500
vt 0.010833 0.693500
vt 0.010833 0.693500
vt 0.010833 0.693500
vt 0.010833 0.693500
vt 0.010833 0.693500
vt 0.010833 0.693500
vt 0.010833 0.693500
vt 0.010833 0.693500
vt 0.010833 0.693500
vt 0.010833 0.693500
vt 0.010833 0.693500
vt 0.010833 0.693500
vt 0.010833 0.693500
vt 0.010833 0.693500
vt 0.010833 0.693500
vt 0.010833 0.693500
vt 0.010833 0.693500
vt 0.010833 0.693500
vt 0.010833 0.693500
vt 0.010833 0.693500
vt 0.010833 0.693500
vt 0.010833 0.693500
vt 0.010833 0.693500
vt 0.010833 0.693500
vt 0.010833 0.693500
vt 0.010833 0.693500
vt 0.010833 0.693500
vt 0.010833 0.693500
vt 0.010833 0.693500
vt 0.010833 0.693500
vt 0.010833 0.693500
vt 0.010833 0.693500
vt 0.010833 0.693500
vt 0.010833 0.693500
vt 0.010833 0.693500
vt 0.010833 0.693500
vt 0.010833 0.693500
vt 0.010833 0.693500
vt 0.010833 0.693500
vt 0.010833 0.693500
vt 0.010833 0.693500
vt 0.010833 0.693500
vt 0.010833 0.693500
vt 0.010833 0.693500
vt 0.010833 0.693500
vt 0.010833 0.693500
vt 0.010833 0.693500
vt 0.010833 0.693500
vt 0.010833 0.693500
vt 0.010833 0.693500
vt 0.010833 0.693500
vt 0.010833 0.693500
vt 0.010833 0.693500
vt 0.010833 0.693500
vt 0.010833 0.693500
vt 0.010833 0.643500
vt 0.010833 0.643500
vt 0.010833 0.643500
vt 0.010833 0.643500
vt 0.010833 0.643500
vt 0.010833 0.643500
vt 0.010833 0.643500
vt 0.010833 0.643500
vt 0.010833 0.643500
vt 0.010833 0.643500
vt 0.010833 0.643500
vt 0.010833 0.643500
vt 0.010833 0.643500
vt 0.010833 0.643500
vt 0.010833 0.643500
vt 0.010833 0.643500
vt 0.010833 0.643500
vt 0.010833 0.643500
vt 0.010833 0.643500
vt 0.010833 0.643500
vt 0.010833 0.643500
vt 0.010833 0.643500
vt 0.010833 0.643500
vt 0.010833 0.643500
vt 0.010833 0.643500
vt 0.010833 0.643500
vt 0.010833 0.643500
vt 0.010833 0.643500
vt 0.010833 0.643500
vt 0.010833 0.643500
vt 0.010833 0.643500
vt 0.010833 0.643500
vt 0.010833 0.643500
vt 0.010833 0.643500
vt 0.010833 0.643500
vt 0.010833 0.643500
vt 0.010833 0.643500
vt 0.010833 0.643500
vt 0.010833 0.643500
vt 0.010833 0.643500
vt 0.010833 0.643500
vt 0.010833 0.643500
vt 0.010833 0.643500
vt 0.010833 0.643500
vt 0.010833 0.643500
vt 0.010833 0.643500
vt 0.010833 0.643500
vt 0.010833 0.643500
vt 0.010833 0.643500
vt 0.010833 0.643500
vt 0.010833 0.643500
vt 0.010833 0.643500
vt 0.010833 0.643500
vt 0.010833 0.643500
vt 0.010833 0.643500
vt 0.010833 0.643500
vt 0.010833 0.643500
vt 0.010833 0.643500
vt 0.010833 0.643500
vt 0.010833 0.643500
vt 0.010833 0.593500
vt 0.010833 0.593500
vt 0.010833 0.593500
vt 0.010833 0.593500
vt 0.010833 0.593500
vt 0.010833 0.593500
vt 0.010833 0.593500
vt 0.010833 0.593500
vt 0.010833 0.593500
vt 0.010833 0.593500
vt 0.010833 0.593500
vt 0.010833 0.593500
vt 0.010833 0.593500
vt 0.010833 0.593500
vt 0.010833 0.593500
vt 0.010833 0.593500
vt 0.010833 0.593500
vt 0.010833 0.593500
vt 0.010833 0.593500
vt 0.010833 0.593500
vt 0.010833 0.593500
vt 0.010833 0.593500
vt 0.010833 0.593500
vt 0.010833 0.593500
vt 0.010833 0.593500
vt 0.010833 0.593500
vt 0.010833 0.593500
vt 0.010833 0.593500
vt 0.010833 0.593500
vt 0.010833 0.593500
vt 0.010833 0.543500
vt 0.010833 0.543500
vt 0.010833 0.543500
vt 0.010833 0.543500
vt 0.010833 0.543500
vt 0.010833 0.543500
vt 0.010833 0.543500
vt 0.010833 0.543500
vt 0.010833 0.543500
vt 0.010833 0.543500
vt 0.010833 0.543500
vt 0.010833 0.543500
vt 0.010833 0.543500
vt 0.010833 0.543500
vt 0.010833 0.543500
vt 0.010833 0.543500
vt 0.010833 0.543500
vt 0.010833 0.543500
vt 0.010833 0.543500
vt 0.010833 0.543500
vt 0.010833 0.543500
vt 0.010833 0.543500
vt 0.010833 0.543500
vt 0.010833 0.543500
vt 0.010833 0.543500
vt 0.010833 0.543500
vt 0.010833 0.543500
vt 0.010833 0.543500
vt 0.010833 0.543500
vt 0.010833 0.543500
vt 0.010833 0.493500
vt 0.010833 0.493500
vt 0.010833 0.493500
vt 0.010833 0.493500
vt 0.010833 0.493500
vt 0.010833 0.493500
vt 0.010833 0.493500
vt 0.010833 0.493500
vt 0.010833 0.493500
vt 0.010833 0.493500
vt 0.010833 0.493500
vt 0.010833 0.493500
vt 0.010833 0.493500
vt 0.010833 0.493500
vt 0.010833 0.493500
vt 0.010833 0.493500
vt 0.010833 0.493500
vt 0.010833 0.493500
vt 0.010833 0.493500
vt 0.010833 0.493500
vt 0.010833 0.493500
vt 0.010833 0.493500
vt 0.010833 0.493500
vt 0.010833 0.493500
vt 0.010833 0.493500
vt 0.010833 0.493500
vt 0.010833 0.493500
vt 0.010833 0.493500
vt 0.010833 0.493500
vt 0.010833 0.493500
vt 0.010833 0.493500
vt 0.010833 0.493500
vt 0.010833 0.493500
vt 0.010833 0.493500
vt 0.010833 0.493500
vt 0.010833 0.493500
vt 0.010833 0.493500
vt 0.010833 0.493500
vt 0.010833 0.493500
vt 0.010833 0.493500
vt 0.010833 0.493500
vt 0.010833 0.493500
vt 0.010833 0.493500
vt 0.010833 0.493500
vt 0.010833 0.493500
vt 0.010833 0.493500
vt 0.010833 0.493500
vt 0.010833 0.493500
vt 0.010833 0.493500
vt 0.010833 0.493500
vt 0.010833 0.493500
vt 0.010833 0.493500
vt 0.010833 0.493500
vt 0.010833 0.493500
vt 0.010833 0.493500
vt 0.010833 0.493500
vt 0.010833 0.493500
vt 0.010833 0.493500
vt 0.010833 0.493500
vt 0.010833 0.493500
vt 0.010833 0.493500
vt 0.010833 0.493500
vt 0.010833 0.493500
vt 0.010833 0.493500
vt 0.010833 0.493500
vt 0.010833 0.493500
vt 0.010833 0.493500
vt 0.010833 0.493500
vt 0.010833 0.493500
vt 0.010833 0.493500
vt 0.010833 0.493500
vt 0.010833 0.493500
vt 0.010833 0.493500
vt 0.010833 0.493500
vt 0.010833 0.493500
vt 0.010833 0.493500
vt 0.010833 0.493500
vt 0.010833 0.493500
vt 0.010833 0.493500
vt 0.010833 0.493500
vt 0.010833 0.493500
vt 0.010833 0.493500
vt 0.010833 0.493500
vt 0.010833 0.493500
vt 0.010833 0.493500
vt 0.010833 0.493500
vt 0.010833 0.493500
vt 0.010833 0.493500
vt 0.010833 0.493500
vt 0.010833 0.493500
vt 0.010833 0.443500
vt 0.010833 0.443500
vt 0.010833 0.443500
vt 0.010833 0.443500
vt 0.010833 0.443500
vt 0.010833 0.443500
vt 0.010833 0.443500
vt 0.010833 0.443500
vt 0.010833 0.443500
vt 0.010833 0.443500
vt 0.010833 0.443500
vt 0.010833 0.443500
vt 0.010833 0.443500
vt 0.010833 0.443500
vt 0.010833 0.443500
vt 0.010833 0.443500
vt 0.010833 0.443500
vt 0.010833 0.443500
vt 0.010833 0.443500
vt 0.010833 0.443500
vt 0.010833 0.443500
vt 0.010833 0.443500
vt 0.010833 0.443500
vt 0.010833 0.443500
vt 0.010833 0.443500
vt 0.010833 0.443500
vt 0.010833 0.443500
vt 0.010833 0.443500
vt 0.010833 0.443500
vt 0.010833 0.443500
vt 0.010833 0.393500
vt 0.010833 0.393500
vt 0.010833 0.393500
vt 0.010833 0.393500
vt 0.010833 0.393500
vt 0.010833 0.393500
vt 0.010833 0.393500
vt 0.010833 0.393500
vt 0.010833 0.393500
vt 0.010833 0.393500
vt 0.010833 0.393500
vt 0.010833 0.393500
vt 0.010833 0.393500
vt 0.010833 0.393500
vt 0.010833 0.393500
vt 0.010833 0.393500
vt 0.010833 0.393500
vt 0.010833 0.393500
vt 0.010833 0.393500
vt 0.010833 0.393500
vt 0.010833 0.393500
vt 0.010833 0.393500
vt 0.010833 0.393500
vt 0.010833 0.393500
vt 0.010833 0.393500
vt 0.010833 0.393500
vt 0.010833 0.393500
vt 0.010833 0.393500
vt 0.010833 0.393500
vt 0.010833 0.393500
vt 0.010833 0.343500
vt 0.010833 0.343500
vt 0.010833 0.343500
vt 0.010833 0.343500
vt 0.010833 0.343500
vt 0.010833 0.343500
vt 0.010833 0.343500
vt 0.010833 0.343500
vt 0.010833 0.343500
vt 0.010833 0.343500
vt 0.010833 0.343500
vt 0.010833 0.343500
vt 0.010833 0.343500
vt 0.010833 0.343500
vt 0.010833 0.343500
vt 0.010833 0.343500
vt 0.010833 0.343500
vt 0.010833 0.343500
vt 0.010833 0.343500
vt 0.010833 0.343500
vt 0.010833 0.343500
vt 0.010833 0.343500
vt 0.010833 0.343500
vt 0.010833 0.343500
vt 0.010833 0.343500
vt 0.010833 0.343500
vt 0.010833 0.343500
vt 0.010833 0.343500
vt 0.010833 0.343500
vt 0.010833 0.343500
vt 0.010833 0.343500
vt 0.010833 0.343500
vt 0.010833 0.343500
vt 0.010833 0.343500
vt 0.010833 0.343500
vt 0.010833 0.343500
vt 0.010833 0.343500
vt 0.010833 0.343500
vt 0.010833 0.343500
vt 0.010833 0.343500
vt 0.010833 0.343500
vt 0.010833 0.343500
vt 0.010833 0.343500
vt 0.010833 0.343500
vt 0.010833 0.343500
vt 0.010833 0.343500
vt 0.010833 0.343500
vt 0.010833 0.343500
vt 0.010833 0.343500
vt 0.010833 0.343500
vt 0.010833 0.343500
vt 0.010833 0.343500
vt 0.010833 0.343500
vt 0.010833 0.343500
vt 0.010833 0.343500
vt 0.010833 0.343500
vt 0.010833 0.343500
vt 0.010833 0.343500
vt 0.010833 0.343500
vt 0.010833 0.343500
vt 0.010833 0.293500
vt 0.010833 0.293500
vt 0.010833 0.293500
vt 0.010833 0.293500
vt 0.010833 0.293500
vt 0.010833 0.293500
vt 0.010833 0.293500
vt 0.010833 0.293500
vt 0.010833 0.293500
vt 0.010833 0.293500
vt 0.010833 0.293500
vt 0.010833 0.293500
vt 0.010833 0.293500
vt 0.010833 0.293500
vt 0.010833 0.293500
vt 0.010833 0.293500
vt 0.010833 0.293500
vt 0.010833 0.293500
vt 0.010833 0.293500
vt 0.010833 0.293500
vt 0.010833 0.293500
vt 0.010833 0.293500
vt 0.010833 0.293500
vt 0.010833 0.293500
vt 0.010833 0.293500
vt 0.010833 0.293500
vt 0.010833 0.293500
vt 0.010833 0.293500
vt 0.010833 0.293500
vt 0.010833 0.293500
vt 0.010833 0.243500
vt 0.010833 0.243500
vt 0.010833 0.243500
vt 0.010833 0.243500
vt 0.010833 0.243500
vt 0.010833 0.243500
vt 0.010833 0.243500
vt 0.010833 0.243500
vt 0.010833 0.243500
vt 0.010833 0.243500
vt 0.010833 0.243500
vt 0.010833 0.243500
vt 0.010833 0.243500
vt 0.010833 0.243500
vt 0.010833 0.243500
vt 0.010833 0.243500
vt 0.010833 0.243500
vt 0.010833 0.243500
vt 0.010833 0.243500
vt 0.010833 0.243500
vt 0.010833 0.243500
vt 0.010833 0.243500
vt 0.010833 0.243500
vt 0.010833 0.243500
vt 0.010833 0.243500
vt 0.010833 0.243500
vt 0.010833 0.243500
vt 0.010833 0.243500
vt 0.010833 0.243500
vt 0.010833 0.243500
vt 0.010833 0.193500
vt 0.010833 0.193500
vt 0.010833 0.193500
vt 0.010833 0.193500
vt 0.010833 0.193500
vt 0.010833 0.193500
vt 0.010833 0.193500
vt 0.010833 0.193500
vt 0.010833 0.193500
vt 0.010833 0.193500
vt 0.010833 0.193500
vt 0.010833 0.193500
vt 0.010833 0.193500
vt 0.010833 0.193500
vt 0.010833 0.193500
vt 0.010833 0.193500
vt 0.010833 0.193500
vt 0.010833 0.193500
vt 0.010833 0.193500
vt 0.010833 0.193500
vt 0.010833 0.193500
vt 0.010833 0.193500
vt 0.010833 0.193500
vt 0.010833 0.193500
vt 0.010833 0.193500
vt 0.010833 0.193500
vt 0.010833 0.193500
vt 0.010833 0.193500
vt 0.010833 0.193500
vt 0.010833 0.193500
vt 0.010833 0.093500
vt 0.010833 0.093500
vt 0.010833 0.093500
vt 0.010833 0.093500
vt 0.010833 0.093500
vt 0.010833 0.093500
vt 0.010833 0.093500
vt 0.010833 0.093500
vt 0.010833 0.093500
vt 0.010833 0.093500
vt 0.010833 0.093500
vt 0.010833 0.093500
vt 0.010833 0.093500
vt 0.010833 0.093500
vt 0.010833 0.093500
vt 0.010833 0.093500
vt 0.010833 0.093500
vt 0.010833 0.093500
vt 0.010833 0.093500
vt 0.010833 0.093500
vt 0.010833 0.093500
vt 0.010833 0.093500
vt 0.010833 0.093500
vt 0.010833 0.093500
vt 0.010833 0.093500
vt 0.010833 0.093500
vt 0.010833 0.093500
vt 0.010833 0.093500
vt 0.010833 0.093500
vt 0.010833 0.093500
vt 0.010833 0.993500
vt 0.010833 0.993500
vt 0.010833 0.993500
vt 0.010833 0.993500
vt 0.010833 0.993500
vt 0.010833 0.993500
vt 0.010833 0.993500
vt 0.010833 0.993500
vt 0.010833 0.993500
vt 0.010833 0.743500
vt 0.010833 0.743500
vt 0.010833 0.743500
vt 0.010833 0.743500
vt 0.010833 0.743500
vt 0.010833 0.743500
vt 0.010833 0.743500
vt 0.010833 0.743500
vt 0.010833 0.743500
vt 0.010833 0.993500
vt 0.010833 0.993500
vt 0.010833 0.993500
vt 0.010833 0.993500
vt 0.010833 0.993500
vt 0.010833 0.993500
vt 0.010833 0.993500
vt 0.010833 0.993500
vt 0.010833 0.993500
vt 0.010833 0.743500
vt 0.010833 0.743500
vt 0.010833 0.743500
vt 0.010833 0.743500
vt 0.010833 0.743500
vt 0.010833 0.743500
vt 0.010833 0.743500
vt 0.010833 0.743500
vt 0.010833 0.743500
vt 0.010833 0.893500
vt 0.010833 0.893500
vt 0.010833 0.893500
vt 0.010833 0.893500
vt 0.010833 0.893500
vt 0.010833 0.893500
vt 0.010833 0.893500
vt 0.010833 0.893500
vt 0.010833 0.893500
vt 0.010833 0.493500
vt 0.010833 0.493500
vt 0.010833 0.493500
vt 0.010833 0.493500
vt 0.010833 0.493500
vt 0.010833 0.493500
vt 0.010833 0.493500
vt 0.010833 0.493500
vt 0.010833 0.493500
vt 0.010833 0.893500
vt 0.010833 0.893500
vt 0.010833 0.893500
vt 0.010833 0.893500
vt 0.010833 0.893500
vt 0.010833 0.893500
vt 0.010833 0.893500
vt 0.010833 0.893500
vt 0.010833 0.893500
vt 0.010833 0.493500
vt 0.010833 0.493500
vt 0.010833 0.493500
vt 0.010833 0.493500
vt 0.010833 0.493500
vt 0.010833 0.493500
vt 0.010833 0.493500
vt 0.010833 0.493500
vt 0.010833 0.493500
vt 0.010833 0.993500
vt 0.010833 0.993500
vt 0.010833 0.993500
vt 0.010833 0.993500
vt 0.010833 0.993500
vt 0.010833 0.993500
vt 0.010833 0.993500
vt 0.010833 0.993500
vt 0.010833 0.993500
vt 0.010833 0.743500
vt 0.010833 0.743500
vt 0.010833 0.743500
vt 0.010833 0.743500
vt 0.010833 0.743500
vt 0.010833 0.743500
vt 0.010833 0.743500
vt 0.010833 0.743500
vt 0.010833 0.743500
vt 0.010833 0.943500
vt 0.010833 0.943500
vt 0.010833 0.943500
vt 0.010833 0.943500
vt 0.010833 0.943500
vt 0.010833 0.943500
vt 0.010833 0.943500
vt 0.010833 0.943500
vt 0.010833 0.943500
vt 0.010833 0.693500
vt 0.010833 0.693500
vt 0.010833 0.693500
vt 0.010833 0.693500
vt 0.010833 0.693500
vt 0.010833 0.693500
vt 0.010833 0.693500
vt 0.010833 0.693500
vt 0.010833 0.693500
usemtl d20
f 13/1 14/2 15/3
f 16/4 17/5 18/6
f 19/7 20/8 21/9
f 22/10 23/11 24/12
f 25/13 26/14 27/15
f 28/16 29/17 30/18
f 31/19 32/20 33/21
f 34/22 35/23 36/24
f 37/25 38/26 39/27
f 40/28 41/29 42/30
f 43/31 44/32 45/33
f 46/34 47/35 48/36
f 49/37 50/38 51/39
f 52/40 53/41 54/42
f 55/43 56/44 57/45
f 58/46 59/47 60/48
f 61/49 62/50 63/51
f 64/52 65/53 66/54
f 67/55 68/56 69/57
f 70/58 71/59 72/60
f 13/61 14/62 74/63
f 13/64 74/65 73/66
f 73/67 74/68 76/69
f 73/70 76/71 75/72
f 75/73 76/74 78/75
f 75/76 78/77 77/78
f 77/79 78/80 80/81
f 77/82 80/83 79/84
f 79/85 80/86 23/87
f 79/88 23/89 24/90
f 14/91 15/92 82/93
f 14/94 82/95 81/96
f 81/97 82/98 84/99
f 81/100 84/101 83/102
f 83/103 84/104 86/105
f 83/106 86/107 85/108
f 85/109 86/110 88/111
f 85/112 88/113 87/114
f 87/115 88/116 16/117
f 87/118 16/119 17/120
f 15/121 13/122 90/123
f 15/124 90/125 89/126
f 89/127 90/128 92/129
f 89/130 92/131 91/132
f 91/133 92/134 94/135
f 91/136 94/137 93/138
f 93/139 94/140 96/141
f 93/142 96/143 95/144
f 95/145 96/146 46/147
f 95/148 46/149 47/150
f 17/151 18/152 98/153
f 17/154 98/155 97/156
f 97/157 98/158 100/159
f 97/160 100/161 99/162
f 99/163 100/164 102/165
f 99/166 102/167 101/168
f 101/169 102/170 104/171
f 101/172 104/173 103/174
f 103/175 104/176 25/177
f 103/178 25/179 26/180
f 18/181 16/182 106/183
f 18/184 106/185 105/186
f 105/187 106/188 108/189
f 105/190 108/191 107/192
f 107/193 108/194 110/195
f 107/196 110/197 109/198
f 109/199 110/200 112/201
f 109/202 112/203 111/204
f 111/205 112/206 50/207
f 111/208 50/209 51/210
f 19/211 20/212 114/213
f 19/214 114/215 113/216
f 113/217 114/218 116/219
f 113/220 116/221 115/222
f 115/223 116/224 118/225
f 115/226 118/227 117/228
f 117/229 118/230 120/231
f 117/232 120/233 119/234
f 119/235 120/236 26/237
f 119/238 26/239 27/240
f 20/241 21/242 122/243
f 20/244 122/245 121/246
f 121/247 122/248 124/249
f 121/250 124/251 123/252
f 123/253 124/254 126/255
f 123/256 126/257 125/258
f 125/259 126/260 128/261
f 125/262 128/263 127/264
f 127/265 128/266 22/267
f 127/268 22/269 23/270
f 21/271 19/272 130/273
f 21/274 130/275 129/276
f 129/277 130/278 132/279
f 129/280 132/281 131/282
f 131/283 132/284 134/285
f 131/286 134/287 133/288
f 133/289 134/290 136/291
f 133/292 136/293 135/294
f 135/295 136/296 36/297
f 135/298 36/299 34/300
f 24/301 22/302 138/303
f 24/304 138/305 137/306
f 137/307 138/308 140/309
f 137/310 140/311 139/312
f 139/313 140/314 142/315
f 139/316 142/317 141/318
f 141/319 142/320 144/321
f 141/322 144/323 143/324
f 143/325 144/326 62/327
f 143/328 62/329 63/330
f 27/331 25/332 146/333
f 27/334 146/335 145/336
f 145/337 146/338 148/339
f 145/340 148/341 147/342
f 147/343 148/344 150/345
f 147/346 150/347 149/348
f 149/349 150/350 152/351
f 149/352 152/353 151/354
f 151/355 152/356 67/357
f 151/358 67/359 68/360
f 28/361 29/362 154/363
f 28/364 154/365 153/366
f 153/367 154/368 156/369
f 153/370 156/371 155/372
f 155/373 156/374 158/375
f 155/376 158/377 157/378
f 157/379 158/380 160/381
f 157/382 160/383 159/384
f 159/385 160/386 32/387
f 159/388 32/389 33/390
f 29/391 30/392 162/393
f 29/394 162/395 161/396
f 161/397 162/398 164/399
f 161/400 164/401 163/402
f 163/403 164/404 166/405
f 163/406 166/407 165/408
f 165/409 166/410 168/411
f 165/412 168/413 167/414
f 167/415 168/416 37/417
f 167/418 37/419 38/420
f 30/421 28/422 170/423
f 30/424 170/425 169/426
f 169/427 170/428 172/429
f 169/430 172/431 171/432
f 171/433 172/434 174/435
f 171/436 174/437 173/438
f 173/439 174/440 176/441
f 173/442 176/443 175/444
f 175/445 176/446 56/447
f 175/448 56/449 57/450
f 31/451 32/452 178/453
f 31/454 178/455 177/456
f 177/457 178/458 180/459
f 177/460 180/461 179/462
f 179/463 180/464 182/465
f 179/466 182/467 181/468
f 181/469 182/470 184/471
f 181/472 184/473 183/474
f 183/475 184/476 41/477
f 183/478 41/479 42/480
f 33/481 31/482 186/483
f 33/484 186/485 185/486
f 185/487 186/488 188/489
f 185/490 188/491 187/492
f 187/493 188/494 190/495
f 187/496 190/497 189/498
f 189/499 190/500 192/501
f 189/502 192/503 191/504
f 191/505 192/506 58/507
f 191/508 58/509 59/510
f 34/511 35/512 194/513
f 34/514 194/515 193/516
f 193/517 194/518 196/519
f 193/520 196/521 195/522
f 195/523 196/524 198/525
f 195/526 198/527 197/528
f 197/529 198/530 200/531
f 197/532 200/533 199/534
f 199/535 200/536 38/537
f 199/538 38/539 39/540
f 35/541 36/542 202/543
f 35/544 202/545 201/546
f 201/547 202/548 204/549
f 201/550 204/551 203/552
f 203/553 204/554 206/555
f 203/556 206/557 205/558
f 205/559 206/560 208/561
f 205/562 208/563 207/564
f 207/565 208/566 40/567
f 207/568 40/569 41/570
f 39/571 37/572 210/573
f 39/574 210/575 209/576
f 209/577 210/578 212/579
f 209/580 212/581 211/582
f 211/583 212/584 214/585
f 211/586 214/587 213/588
f 213/589 214/590 216/591
f 213/592 216/593 215/594
f 215/595 216/596 61/597
f 215/598 61/599 62/600
f 42/601 40/602 218/603
f 42/604 218/605 217/606
f 217/607 218/608 220/609
f 217/610 220/611 219/612
f 219/613 220/614 222/615
f 219/616 222/617 221/618
f 221/619 222/620 224/621
f 221/622 224/623 223/624
f 223/625 224/626 68/627
f 223/628 68/629 69/630
f 43/631 44/632 226/633
f 43/634 226/635 225/636
f 225/637 226/638 228/639
f 225/640 228/641 227/642
f 227/643 228/644 230/645
f 227/646 230/647 229/648
f 229/649 230/650 232/651
f 229/652 232/653 231/654
f 231/655 232/656 47/657
f 231/658 47/659 48/660
f 44/661 45/662 234/663
f 44/664 234/665 233/666
f 233/667 234/668 236/669
f 233/670 236/671 235/672
f 235/673 236/674 238/675
f 235/676 238/677 237/678
f 237/679 238/680 240/681
f 237/682 240/683 239/684
f 239/685 240/686 49/687
f 239/688 49/689 50/690
f 45/691 43/692 242/693
f 45/694 242/695 241/696
f 241/697 242/698 244/699
f 241/700 244/701 243/702
f 243/703 244/704 246/705
f 243/706 246/707 245/708
f 245/709 246/710 248/711
f 245/712 248/713 247/714
f 247/715 248/716 54/717
f 247/718 54/719 52/720
f 48/721 46/722 250/723
f 48/724 250/725 249/726
f 249/727 250/728 252/729
f 249/730 252/731 251/732
f 251/733 252/734 254/735
f 251/736 254/737 253/738
f 253/739 254/740 256/741
f 253/742 256/743 255/744
f 255/745 256/746 64/747
f 255/748 64/749 65/750
f 51/751 49/752 258/753
f 51/754 258/755 257/756
f 257/757 258/758 260/759
f 257/760 260/761 259/762
f 259/763 260/764 262/765
f 259/766 262/767 261/768
f 261/769 262/770 264/771
f 261/772 264/773 263/774
f 263/775 264/776 71/777
f 263/778 71/779 72/780
f 52/781 53/782 266/783
f 52/784 266/785 265/786
f 265/787 266/788 268/789
f 265/790 268/791 267/792
f 267/793 268/794 270/795
f 267/796 270/797 269/798
f 269/799 270/800 272/801
f 269/802 272/803 271/804
f 271/805 272/806 59/807
f 271/808 59/809 60/810
f 53/811 54/812 274/813
f 53/814 274/815 273/816
f 273/817 274/818 276/819
f 273/820 276/821 275/822
f 275/823 276/824 278/825
f 275/826 278/827 277/828
f 277/829 278/830 280/831
f 277/832 280/833 279/834
f 279/835 280/836 55/837
f 279/838 55/839 56/840
f 57/841 55/842 282/843
f 57/844 282/845 281/846
f 281/847 282/848 284/849
f 281/850 284/851 283/852
f 283/853 284/854 286/855
f 283/856 286/857 285/858
f 285/859 286/860 288/861
f 285/862 288/863 287/864
f 287/865 288/866 65/867
f 287/868 65/869 66/870
f 60/871 58/872 290/873
f 60/874 290/875 289/876
f 289/877 290/878 292/879
f 289/880 292/881 291/882
f 291/883 292/884 294/885
f 291/886 294/887 293/888
f 293/889 294/890 296/891
f 293/892 296/893 295/894
f 295/895 296/896 70/897
f 295/898 70/899 71/900
f 63/901 61/902 298/903
f 63/904 298/905 297/906
f 297/907 298/908 300/909
f 297/910 300/911 299/912
f 299/913 300/914 302/915
f 299/916 302/917 301/918
f 301/919 302/920 304/921
f 301/922 304/923 303/924
f 303/925 304/926 66/927
f 303/928 66/929 64/930
f 69/931 67/932 306/933
f 69/934 306/935 305/936
f 305/937 306/938 308/939
f 305/940 308/941 307/942
f 307/943 308/944 310/945
f 307/946 310/947 309/948
f 309/949 310/950 312/951
f 309/952 312/953 311/954
f 311/955 312/956 72/957
f 311/958 72/959 70/960
f 17/961 14/962 23/963
f 17/964 23/965 20/966
f 17/967 20/968 26/969
f 41/970 35/971 38/972
f 41/973 38/974 29/975
f 41/976 29/977 32/978
f 15/979 16/980 50/981
f 15/982 50/983 44/984
f 15/985 44/986 47/987
f 56/988 53/989 59/990
f 56/991 59/992 33/993
f 56/994 33/995 28/996
f 21/997 22/998 62/999
f 21/1000 62/1001 39/1002
f 21/1003 39/1004 34/1005
f 48/1006 43/1007 54/1008
f 48/1009 54/1010 55/1011
f 48/1012 55/1013 65/1014
f 27/1015 19/1016 36/1017
f 27/1018 36/1019 40/1020
f 27/1021 40/1022 68/1023
f 45/1024 49/1025 71/1026
f 45/1027 71/1028 60/1029
f 45/1030 60/1031 52/1032
f 24/1033 13/1034 46/1035
f 24/1036 46/1037 64/1038
f 24/1039 64/1040 63/1041
f 61/1042 66/1043 57/1044
f 61/1045 57/1046 30/1047
f 61/1048 30/1049 37/1050
f 51/1051 18/1052 25/1053
f 51/1054 25/1055 67/1056
f 51/1057 67/1058 72/1059
f 70/1060 69/1061 42/1062
f 70/1063 42/1064 31/1065
f 70/1066 31/1067 58/1068
