# d4 from qb64-dungeon (DICE3D)
# set: Amethyst Marble   bevel: 0.500000
# atlas is 1536x512 -- the FIRST column is full-bright;
# the columns to its right are pre-darkened lighting levels the GAME samples.
# For rendering, light it yourself and use column 0 only (that is what these UVs use).
mtllib d4.mtl
o d4
v 0.577350 0.577350 0.577350
v 0.577350 -0.577350 -0.577350
v -0.577350 0.577350 -0.577350
v -0.577350 -0.577350 0.577350
v -0.508068 0.542709 -0.542709
v 0.542709 0.542709 0.508068
v 0.542709 -0.508068 -0.542709
v 0.542709 -0.542709 -0.508068
v 0.542709 0.508068 0.542709
v -0.508068 -0.542709 0.542709
v -0.542709 -0.508068 0.542709
v 0.508068 0.542709 0.542709
v -0.542709 0.542709 -0.508068
v -0.542709 0.508068 -0.542709
v 0.508068 -0.542709 -0.542709
v -0.542709 -0.542709 0.508068
v -0.531624 0.553794 -0.552409
v 0.552409 0.553794 0.531624
v -0.546866 0.559337 -0.553794
v 0.553794 0.559337 0.546866
v -0.553794 0.559337 -0.546866
v 0.546866 0.559337 0.553794
v -0.552409 0.553794 -0.531624
v 0.531624 0.553794 0.552409
v 0.553794 0.552409 0.531624
v 0.553794 -0.531624 -0.552409
v 0.559337 0.553794 0.546866
v 0.559337 -0.546866 -0.553794
v 0.559337 0.546866 0.553794
v 0.559337 -0.553794 -0.546866
v 0.553794 0.531624 0.552409
v 0.553794 -0.552409 -0.531624
v 0.552409 -0.531624 -0.553794
v -0.531624 0.552409 -0.553794
v 0.553794 -0.546866 -0.559337
v -0.546866 0.553794 -0.559337
v 0.546866 -0.553794 -0.559337
v -0.553794 0.546866 -0.559337
v 0.531624 -0.552409 -0.553794
v -0.552409 0.531624 -0.553794
v 0.552409 0.531624 0.553794
v -0.531624 -0.552409 0.553794
v 0.553794 0.546866 0.559337
v -0.546866 -0.553794 0.559337
v 0.546866 0.553794 0.559337
v -0.553794 -0.546866 0.559337
v 0.531624 0.552409 0.553794
v -0.552409 -0.531624 0.553794
v -0.531624 -0.553794 0.552409
v 0.552409 -0.553794 -0.531624
v -0.546866 -0.559337 0.553794
v 0.553794 -0.559337 -0.546866
v -0.553794 -0.559337 0.546866
v 0.546866 -0.559337 -0.553794
v -0.552409 -0.553794 0.531624
v 0.531624 -0.553794 -0.552409
v -0.553794 0.552409 -0.531624
v -0.553794 -0.531624 0.552409
v -0.559337 0.553794 -0.546866
v -0.559337 -0.546866 0.553794
v -0.559337 0.546866 -0.553794
v -0.559337 -0.553794 0.546866
v -0.553794 0.531624 -0.552409
v -0.553794 -0.552409 0.531624
vt 0.012348 0.824219
vt 0.070985 0.824219
vt 0.041667 0.976563
vt 0.012348 0.574219
vt 0.070985 0.574219
vt 0.041667 0.726563
vt 0.012348 0.324219
vt 0.070985 0.324219
vt 0.041667 0.476563
vt 0.012348 0.074219
vt 0.070985 0.074219
vt 0.041667 0.226563
vt 0.010833 0.967500
vt 0.010833 0.967500
vt 0.010833 0.967500
vt 0.010833 0.967500
vt 0.010833 0.967500
vt 0.010833 0.967500
vt 0.010833 0.967500
vt 0.010833 0.967500
vt 0.010833 0.967500
vt 0.010833 0.967500
vt 0.010833 0.967500
vt 0.010833 0.967500
vt 0.010833 0.967500
vt 0.010833 0.967500
vt 0.010833 0.967500
vt 0.010833 0.967500
vt 0.010833 0.967500
vt 0.010833 0.967500
vt 0.010833 0.967500
vt 0.010833 0.967500
vt 0.010833 0.967500
vt 0.010833 0.967500
vt 0.010833 0.967500
vt 0.010833 0.967500
vt 0.010833 0.967500
vt 0.010833 0.967500
vt 0.010833 0.967500
vt 0.010833 0.967500
vt 0.010833 0.967500
vt 0.010833 0.967500
vt 0.010833 0.967500
vt 0.010833 0.967500
vt 0.010833 0.967500
vt 0.010833 0.967500
vt 0.010833 0.967500
vt 0.010833 0.967500
vt 0.010833 0.967500
vt 0.010833 0.967500
vt 0.010833 0.967500
vt 0.010833 0.967500
vt 0.010833 0.967500
vt 0.010833 0.967500
vt 0.010833 0.967500
vt 0.010833 0.967500
vt 0.010833 0.967500
vt 0.010833 0.967500
vt 0.010833 0.967500
vt 0.010833 0.967500
vt 0.010833 0.967500
vt 0.010833 0.967500
vt 0.010833 0.967500
vt 0.010833 0.967500
vt 0.010833 0.967500
vt 0.010833 0.967500
vt 0.010833 0.967500
vt 0.010833 0.967500
vt 0.010833 0.967500
vt 0.010833 0.967500
vt 0.010833 0.967500
vt 0.010833 0.967500
vt 0.010833 0.967500
vt 0.010833 0.967500
vt 0.010833 0.967500
vt 0.010833 0.967500
vt 0.010833 0.967500
vt 0.010833 0.967500
vt 0.010833 0.967500
vt 0.010833 0.967500
vt 0.010833 0.967500
vt 0.010833 0.967500
vt 0.010833 0.967500
vt 0.010833 0.967500
vt 0.010833 0.967500
vt 0.010833 0.967500
vt 0.010833 0.967500
vt 0.010833 0.967500
vt 0.010833 0.967500
vt 0.010833 0.967500
vt 0.010833 0.967500
vt 0.010833 0.967500
vt 0.010833 0.967500
vt 0.010833 0.967500
vt 0.010833 0.967500
vt 0.010833 0.967500
vt 0.010833 0.967500
vt 0.010833 0.967500
vt 0.010833 0.967500
vt 0.010833 0.967500
vt 0.010833 0.967500
vt 0.010833 0.967500
vt 0.010833 0.717500
vt 0.010833 0.717500
vt 0.010833 0.717500
vt 0.010833 0.717500
vt 0.010833 0.717500
vt 0.010833 0.717500
vt 0.010833 0.717500
vt 0.010833 0.717500
vt 0.010833 0.717500
vt 0.010833 0.717500
vt 0.010833 0.717500
vt 0.010833 0.717500
vt 0.010833 0.717500
vt 0.010833 0.717500
vt 0.010833 0.717500
vt 0.010833 0.717500
vt 0.010833 0.717500
vt 0.010833 0.717500
vt 0.010833 0.717500
vt 0.010833 0.717500
vt 0.010833 0.717500
vt 0.010833 0.717500
vt 0.010833 0.717500
vt 0.010833 0.717500
vt 0.010833 0.717500
vt 0.010833 0.717500
vt 0.010833 0.717500
vt 0.010833 0.717500
vt 0.010833 0.717500
vt 0.010833 0.717500
vt 0.010833 0.717500
vt 0.010833 0.717500
vt 0.010833 0.717500
vt 0.010833 0.717500
vt 0.010833 0.717500
vt 0.010833 0.717500
vt 0.010833 0.717500
vt 0.010833 0.717500
vt 0.010833 0.717500
vt 0.010833 0.717500
vt 0.010833 0.717500
vt 0.010833 0.717500
vt 0.010833 0.717500
vt 0.010833 0.717500
vt 0.010833 0.717500
vt 0.010833 0.717500
vt 0.010833 0.717500
vt 0.010833 0.717500
vt 0.010833 0.717500
vt 0.010833 0.717500
vt 0.010833 0.717500
vt 0.010833 0.717500
vt 0.010833 0.717500
vt 0.010833 0.717500
vt 0.010833 0.717500
vt 0.010833 0.717500
vt 0.010833 0.717500
vt 0.010833 0.717500
vt 0.010833 0.717500
vt 0.010833 0.717500
vt 0.010833 0.467500
vt 0.010833 0.467500
vt 0.010833 0.467500
vt 0.010833 0.467500
vt 0.010833 0.467500
vt 0.010833 0.467500
vt 0.010833 0.467500
vt 0.010833 0.467500
vt 0.010833 0.467500
vt 0.010833 0.467500
vt 0.010833 0.467500
vt 0.010833 0.467500
vt 0.010833 0.467500
vt 0.010833 0.467500
vt 0.010833 0.467500
vt 0.010833 0.467500
vt 0.010833 0.467500
vt 0.010833 0.467500
vt 0.010833 0.467500
vt 0.010833 0.467500
vt 0.010833 0.467500
vt 0.010833 0.467500
vt 0.010833 0.467500
vt 0.010833 0.467500
vt 0.010833 0.467500
vt 0.010833 0.467500
vt 0.010833 0.467500
vt 0.010833 0.467500
vt 0.010833 0.467500
vt 0.010833 0.467500
vt 0.010833 0.967500
vt 0.010833 0.967500
vt 0.010833 0.967500
vt 0.010833 0.967500
vt 0.010833 0.967500
vt 0.010833 0.967500
vt 0.010833 0.967500
vt 0.010833 0.967500
vt 0.010833 0.967500
vt 0.010833 0.717500
vt 0.010833 0.717500
vt 0.010833 0.717500
usemtl d4
f 5/1 6/2 7/3
f 8/4 9/5 10/6
f 11/7 12/8 13/9
f 14/10 15/11 16/12
f 5/13 6/14 18/15
f 5/16 18/17 17/18
f 17/19 18/20 20/21
f 17/22 20/23 19/24
f 19/25 20/26 22/27
f 19/28 22/29 21/30
f 21/31 22/32 24/33
f 21/34 24/35 23/36
f 23/37 24/38 12/39
f 23/40 12/41 13/42
f 6/43 7/44 26/45
f 6/46 26/47 25/48
f 25/49 26/50 28/51
f 25/52 28/53 27/54
f 27/55 28/56 30/57
f 27/58 30/59 29/60
f 29/61 30/62 32/63
f 29/64 32/65 31/66
f 31/67 32/68 8/69
f 31/70 8/71 9/72
f 7/73 5/74 34/75
f 7/76 34/77 33/78
f 33/79 34/80 36/81
f 33/82 36/83 35/84
f 35/85 36/86 38/87
f 35/88 38/89 37/90
f 37/91 38/92 40/93
f 37/94 40/95 39/96
f 39/97 40/98 14/99
f 39/100 14/101 15/102
f 9/103 10/104 42/105
f 9/106 42/107 41/108
f 41/109 42/110 44/111
f 41/112 44/113 43/114
f 43/115 44/116 46/117
f 43/118 46/119 45/120
f 45/121 46/122 48/123
f 45/124 48/125 47/126
f 47/127 48/128 11/129
f 47/130 11/131 12/132
f 10/133 8/134 50/135
f 10/136 50/137 49/138
f 49/139 50/140 52/141
f 49/142 52/143 51/144
f 51/145 52/146 54/147
f 51/148 54/149 53/150
f 53/151 54/152 56/153
f 53/154 56/155 55/156
f 55/157 56/158 15/159
f 55/160 15/161 16/162
f 13/163 11/164 58/165
f 13/166 58/167 57/168
f 57/169 58/170 60/171
f 57/172 60/173 59/174
f 59/175 60/176 62/177
f 59/178 62/179 61/180
f 61/181 62/182 64/183
f 61/184 64/185 63/186
f 63/187 64/188 16/189
f 63/190 16/191 14/192
f 12/193 9/194 6/195
f 8/196 15/197 7/198
f 13/199 5/200 14/201
f 10/202 11/203 16/204
