# d6 from qb64-dungeon (DICE3D)
# set: Amethyst Marble   bevel: 0.500000
# atlas is 1536x768 -- the FIRST column is full-bright;
# the columns to its right are pre-darkened lighting levels the GAME samples.
# For rendering, light it yourself and use column 0 only (that is what these UVs use).
mtllib d6.mtl
o d6
v -0.577350 -0.577350 -0.577350
v 0.577350 -0.577350 -0.577350
v 0.577350 0.577350 -0.577350
v -0.577350 0.577350 -0.577350
v -0.577350 -0.577350 0.577350
v 0.577350 -0.577350 0.577350
v 0.577350 0.577350 0.577350
v -0.577350 0.577350 0.577350
v 0.525389 -0.525389 -0.577350
v -0.525389 -0.525389 -0.577350
v -0.525389 0.525389 -0.577350
v 0.525389 0.525389 -0.577350
v -0.525389 -0.577350 0.525389
v -0.525389 -0.577350 -0.525389
v 0.525389 -0.577350 -0.525389
v 0.525389 -0.577350 0.525389
v -0.577350 0.525389 -0.525389
v -0.577350 -0.525389 -0.525389
v -0.577350 -0.525389 0.525389
v -0.577350 0.525389 0.525389
v 0.577350 -0.525389 0.525389
v 0.577350 -0.525389 -0.525389
v 0.577350 0.525389 -0.525389
v 0.577350 0.525389 0.525389
v 0.525389 0.577350 0.525389
v 0.525389 0.577350 -0.525389
v -0.525389 0.577350 -0.525389
v -0.525389 0.577350 0.525389
v -0.525389 0.525389 0.577350
v -0.525389 -0.525389 0.577350
v 0.525389 -0.525389 0.577350
v 0.525389 0.525389 0.577350
v 0.542016 -0.544095 -0.575272
v -0.542016 -0.544095 -0.575272
v 0.550330 -0.558644 -0.569036
v -0.550330 -0.558644 -0.569036
v 0.550330 -0.569036 -0.558644
v -0.550330 -0.569036 -0.558644
v 0.542016 -0.575272 -0.544095
v -0.542016 -0.575272 -0.544095
v -0.544095 -0.542016 -0.575272
v -0.544095 0.542016 -0.575272
v -0.558644 -0.550330 -0.569036
v -0.558644 0.550330 -0.569036
v -0.569036 -0.550330 -0.558644
v -0.569036 0.550330 -0.558644
v -0.575272 -0.542016 -0.544095
v -0.575272 0.542016 -0.544095
v -0.542016 0.544095 -0.575272
v 0.542016 0.544095 -0.575272
v -0.550330 0.558644 -0.569036
v 0.550330 0.558644 -0.569036
v -0.550330 0.569036 -0.558644
v 0.550330 0.569036 -0.558644
v -0.542016 0.575272 -0.544095
v 0.542016 0.575272 -0.544095
v 0.544095 0.542016 -0.575272
v 0.544095 -0.542016 -0.575272
v 0.558644 0.550330 -0.569036
v 0.558644 -0.550330 -0.569036
v 0.569036 0.550330 -0.558644
v 0.569036 -0.550330 -0.558644
v 0.575272 0.542016 -0.544095
v 0.575272 -0.542016 -0.544095
v -0.544095 -0.575272 0.542016
v -0.544095 -0.575272 -0.542016
v -0.558644 -0.569036 0.550330
v -0.558644 -0.569036 -0.550330
v -0.569036 -0.558644 0.550330
v -0.569036 -0.558644 -0.550330
v -0.575272 -0.544095 0.542016
v -0.575272 -0.544095 -0.542016
v 0.544095 -0.575272 -0.542016
v 0.544095 -0.575272 0.542016
v 0.558644 -0.569036 -0.550330
v 0.558644 -0.569036 0.550330
v 0.569036 -0.558644 -0.550330
v 0.569036 -0.558644 0.550330
v 0.575272 -0.544095 -0.542016
v 0.575272 -0.544095 0.542016
v 0.542016 -0.575272 0.544095
v -0.542016 -0.575272 0.544095
v 0.550330 -0.569036 0.558644
v -0.550330 -0.569036 0.558644
v 0.550330 -0.558644 0.569036
v -0.550330 -0.558644 0.569036
v 0.542016 -0.544095 0.575272
v -0.542016 -0.544095 0.575272
v -0.575272 -0.542016 0.544095
v -0.575272 0.542016 0.544095
v -0.569036 -0.550330 0.558644
v -0.569036 0.550330 0.558644
v -0.558644 -0.550330 0.569036
v -0.558644 0.550330 0.569036
v -0.544095 -0.542016 0.575272
v -0.544095 0.542016 0.575272
v -0.575272 0.544095 0.542016
v -0.575272 0.544095 -0.542016
v -0.569036 0.558644 0.550330
v -0.569036 0.558644 -0.550330
v -0.558644 0.569036 0.550330
v -0.558644 0.569036 -0.550330
v -0.544095 0.575272 0.542016
v -0.544095 0.575272 -0.542016
v 0.575272 0.544095 -0.542016
v 0.575272 0.544095 0.542016
v 0.569036 0.558644 -0.550330
v 0.569036 0.558644 0.550330
v 0.558644 0.569036 -0.550330
v 0.558644 0.569036 0.550330
v 0.544095 0.575272 -0.542016
v 0.544095 0.575272 0.542016
v 0.575272 0.542016 0.544095
v 0.575272 -0.542016 0.544095
v 0.569036 0.550330 0.558644
v 0.569036 -0.550330 0.558644
v 0.558644 0.550330 0.569036
v 0.558644 -0.550330 0.569036
v 0.544095 0.542016 0.575272
v 0.544095 -0.542016 0.575272
v -0.542016 0.575272 0.544095
v 0.542016 0.575272 0.544095
v -0.550330 0.569036 0.558644
v 0.550330 0.569036 0.558644
v -0.550330 0.558644 0.569036
v 0.550330 0.558644 0.569036
v -0.542016 0.544095 0.575272
v 0.542016 0.544095 0.575272
vt 0.007813 0.848958
vt 0.075521 0.848958
vt 0.075521 0.984375
vt 0.007813 0.848958
vt 0.075521 0.984375
vt 0.007813 0.984375
vt 0.007813 0.682292
vt 0.075521 0.682292
vt 0.075521 0.817708
vt 0.007813 0.682292
vt 0.075521 0.817708
vt 0.007813 0.817708
vt 0.007813 0.515625
vt 0.075521 0.515625
vt 0.075521 0.651042
vt 0.007813 0.515625
vt 0.075521 0.651042
vt 0.007813 0.651042
vt 0.007813 0.348958
vt 0.075521 0.348958
vt 0.075521 0.484375
vt 0.007813 0.348958
vt 0.075521 0.484375
vt 0.007813 0.484375
vt 0.007813 0.182292
vt 0.075521 0.182292
vt 0.075521 0.317708
vt 0.007813 0.182292
vt 0.075521 0.317708
vt 0.007813 0.317708
vt 0.007813 0.015625
vt 0.075521 0.015625
vt 0.075521 0.151042
vt 0.007813 0.015625
vt 0.075521 0.151042
vt 0.007813 0.151042
vt 0.010833 0.978333
vt 0.010833 0.978333
vt 0.010833 0.978333
vt 0.010833 0.978333
vt 0.010833 0.978333
vt 0.010833 0.978333
vt 0.010833 0.978333
vt 0.010833 0.978333
vt 0.010833 0.978333
vt 0.010833 0.978333
vt 0.010833 0.978333
vt 0.010833 0.978333
vt 0.010833 0.978333
vt 0.010833 0.978333
vt 0.010833 0.978333
vt 0.010833 0.978333
vt 0.010833 0.978333
vt 0.010833 0.978333
vt 0.010833 0.978333
vt 0.010833 0.978333
vt 0.010833 0.978333
vt 0.010833 0.978333
vt 0.010833 0.978333
vt 0.010833 0.978333
vt 0.010833 0.978333
vt 0.010833 0.978333
vt 0.010833 0.978333
vt 0.010833 0.978333
vt 0.010833 0.978333
vt 0.010833 0.978333
vt 0.010833 0.978333
vt 0.010833 0.978333
vt 0.010833 0.978333
vt 0.010833 0.978333
vt 0.010833 0.978333
vt 0.010833 0.978333
vt 0.010833 0.978333
vt 0.010833 0.978333
vt 0.010833 0.978333
vt 0.010833 0.978333
vt 0.010833 0.978333
vt 0.010833 0.978333
vt 0.010833 0.978333
vt 0.010833 0.978333
vt 0.010833 0.978333
vt 0.010833 0.978333
vt 0.010833 0.978333
vt 0.010833 0.978333
vt 0.010833 0.978333
vt 0.010833 0.978333
vt 0.010833 0.978333
vt 0.010833 0.978333
vt 0.010833 0.978333
vt 0.010833 0.978333
vt 0.010833 0.978333
vt 0.010833 0.978333
vt 0.010833 0.978333
vt 0.010833 0.978333
vt 0.010833 0.978333
vt 0.010833 0.978333
vt 0.010833 0.978333
vt 0.010833 0.978333
vt 0.010833 0.978333
vt 0.010833 0.978333
vt 0.010833 0.978333
vt 0.010833 0.978333
vt 0.010833 0.978333
vt 0.010833 0.978333
vt 0.010833 0.978333
vt 0.010833 0.978333
vt 0.010833 0.978333
vt 0.010833 0.978333
vt 0.010833 0.978333
vt 0.010833 0.978333
vt 0.010833 0.978333
vt 0.010833 0.978333
vt 0.010833 0.978333
vt 0.010833 0.978333
vt 0.010833 0.978333
vt 0.010833 0.978333
vt 0.010833 0.978333
vt 0.010833 0.978333
vt 0.010833 0.978333
vt 0.010833 0.978333
vt 0.010833 0.978333
vt 0.010833 0.978333
vt 0.010833 0.978333
vt 0.010833 0.978333
vt 0.010833 0.978333
vt 0.010833 0.978333
vt 0.010833 0.978333
vt 0.010833 0.978333
vt 0.010833 0.978333
vt 0.010833 0.978333
vt 0.010833 0.978333
vt 0.010833 0.978333
vt 0.010833 0.978333
vt 0.010833 0.978333
vt 0.010833 0.978333
vt 0.010833 0.978333
vt 0.010833 0.978333
vt 0.010833 0.978333
vt 0.010833 0.978333
vt 0.010833 0.978333
vt 0.010833 0.978333
vt 0.010833 0.978333
vt 0.010833 0.978333
vt 0.010833 0.978333
vt 0.010833 0.978333
vt 0.010833 0.978333
vt 0.010833 0.978333
vt 0.010833 0.978333
vt 0.010833 0.978333
vt 0.010833 0.978333
vt 0.010833 0.978333
vt 0.010833 0.978333
vt 0.010833 0.978333
vt 0.010833 0.978333
vt 0.010833 0.978333
vt 0.010833 0.978333
vt 0.010833 0.811667
vt 0.010833 0.811667
vt 0.010833 0.811667
vt 0.010833 0.811667
vt 0.010833 0.811667
vt 0.010833 0.811667
vt 0.010833 0.811667
vt 0.010833 0.811667
vt 0.010833 0.811667
vt 0.010833 0.811667
vt 0.010833 0.811667
vt 0.010833 0.811667
vt 0.010833 0.811667
vt 0.010833 0.811667
vt 0.010833 0.811667
vt 0.010833 0.811667
vt 0.010833 0.811667
vt 0.010833 0.811667
vt 0.010833 0.811667
vt 0.010833 0.811667
vt 0.010833 0.811667
vt 0.010833 0.811667
vt 0.010833 0.811667
vt 0.010833 0.811667
vt 0.010833 0.811667
vt 0.010833 0.811667
vt 0.010833 0.811667
vt 0.010833 0.811667
vt 0.010833 0.811667
vt 0.010833 0.811667
vt 0.010833 0.811667
vt 0.010833 0.811667
vt 0.010833 0.811667
vt 0.010833 0.811667
vt 0.010833 0.811667
vt 0.010833 0.811667
vt 0.010833 0.811667
vt 0.010833 0.811667
vt 0.010833 0.811667
vt 0.010833 0.811667
vt 0.010833 0.811667
vt 0.010833 0.811667
vt 0.010833 0.811667
vt 0.010833 0.811667
vt 0.010833 0.811667
vt 0.010833 0.811667
vt 0.010833 0.811667
vt 0.010833 0.811667
vt 0.010833 0.811667
vt 0.010833 0.811667
vt 0.010833 0.811667
vt 0.010833 0.811667
vt 0.010833 0.811667
vt 0.010833 0.811667
vt 0.010833 0.811667
vt 0.010833 0.811667
vt 0.010833 0.811667
vt 0.010833 0.811667
vt 0.010833 0.811667
vt 0.010833 0.811667
vt 0.010833 0.811667
vt 0.010833 0.811667
vt 0.010833 0.811667
vt 0.010833 0.811667
vt 0.010833 0.811667
vt 0.010833 0.811667
vt 0.010833 0.811667
vt 0.010833 0.811667
vt 0.010833 0.811667
vt 0.010833 0.811667
vt 0.010833 0.811667
vt 0.010833 0.811667
vt 0.010833 0.811667
vt 0.010833 0.811667
vt 0.010833 0.811667
vt 0.010833 0.811667
vt 0.010833 0.811667
vt 0.010833 0.811667
vt 0.010833 0.811667
vt 0.010833 0.811667
vt 0.010833 0.811667
vt 0.010833 0.811667
vt 0.010833 0.811667
vt 0.010833 0.811667
vt 0.010833 0.811667
vt 0.010833 0.811667
vt 0.010833 0.811667
vt 0.010833 0.811667
vt 0.010833 0.811667
vt 0.010833 0.811667
vt 0.010833 0.645000
vt 0.010833 0.645000
vt 0.010833 0.645000
vt 0.010833 0.645000
vt 0.010833 0.645000
vt 0.010833 0.645000
vt 0.010833 0.645000
vt 0.010833 0.645000
vt 0.010833 0.645000
vt 0.010833 0.645000
vt 0.010833 0.645000
vt 0.010833 0.645000
vt 0.010833 0.645000
vt 0.010833 0.645000
vt 0.010833 0.645000
vt 0.010833 0.645000
vt 0.010833 0.645000
vt 0.010833 0.645000
vt 0.010833 0.645000
vt 0.010833 0.645000
vt 0.010833 0.645000
vt 0.010833 0.645000
vt 0.010833 0.645000
vt 0.010833 0.645000
vt 0.010833 0.645000
vt 0.010833 0.645000
vt 0.010833 0.645000
vt 0.010833 0.645000
vt 0.010833 0.645000
vt 0.010833 0.645000
vt 0.010833 0.645000
vt 0.010833 0.645000
vt 0.010833 0.645000
vt 0.010833 0.645000
vt 0.010833 0.645000
vt 0.010833 0.645000
vt 0.010833 0.645000
vt 0.010833 0.645000
vt 0.010833 0.645000
vt 0.010833 0.645000
vt 0.010833 0.645000
vt 0.010833 0.645000
vt 0.010833 0.645000
vt 0.010833 0.645000
vt 0.010833 0.645000
vt 0.010833 0.645000
vt 0.010833 0.645000
vt 0.010833 0.645000
vt 0.010833 0.645000
vt 0.010833 0.645000
vt 0.010833 0.645000
vt 0.010833 0.645000
vt 0.010833 0.645000
vt 0.010833 0.645000
vt 0.010833 0.645000
vt 0.010833 0.645000
vt 0.010833 0.645000
vt 0.010833 0.645000
vt 0.010833 0.645000
vt 0.010833 0.645000
vt 0.010833 0.478333
vt 0.010833 0.478333
vt 0.010833 0.478333
vt 0.010833 0.478333
vt 0.010833 0.478333
vt 0.010833 0.478333
vt 0.010833 0.478333
vt 0.010833 0.478333
vt 0.010833 0.478333
vt 0.010833 0.478333
vt 0.010833 0.478333
vt 0.010833 0.478333
vt 0.010833 0.478333
vt 0.010833 0.478333
vt 0.010833 0.478333
vt 0.010833 0.478333
vt 0.010833 0.478333
vt 0.010833 0.478333
vt 0.010833 0.478333
vt 0.010833 0.478333
vt 0.010833 0.478333
vt 0.010833 0.478333
vt 0.010833 0.478333
vt 0.010833 0.478333
vt 0.010833 0.478333
vt 0.010833 0.478333
vt 0.010833 0.478333
vt 0.010833 0.478333
vt 0.010833 0.478333
vt 0.010833 0.478333
vt 0.010833 0.478333
vt 0.010833 0.478333
vt 0.010833 0.478333
vt 0.010833 0.478333
vt 0.010833 0.478333
vt 0.010833 0.478333
vt 0.010833 0.478333
vt 0.010833 0.478333
vt 0.010833 0.478333
vt 0.010833 0.478333
vt 0.010833 0.478333
vt 0.010833 0.478333
vt 0.010833 0.478333
vt 0.010833 0.478333
vt 0.010833 0.478333
vt 0.010833 0.478333
vt 0.010833 0.478333
vt 0.010833 0.478333
vt 0.010833 0.478333
vt 0.010833 0.478333
vt 0.010833 0.478333
vt 0.010833 0.478333
vt 0.010833 0.478333
vt 0.010833 0.478333
vt 0.010833 0.478333
vt 0.010833 0.478333
vt 0.010833 0.478333
vt 0.010833 0.478333
vt 0.010833 0.478333
vt 0.010833 0.478333
vt 0.010833 0.311667
vt 0.010833 0.311667
vt 0.010833 0.311667
vt 0.010833 0.311667
vt 0.010833 0.311667
vt 0.010833 0.311667
vt 0.010833 0.311667
vt 0.010833 0.311667
vt 0.010833 0.311667
vt 0.010833 0.311667
vt 0.010833 0.311667
vt 0.010833 0.311667
vt 0.010833 0.311667
vt 0.010833 0.311667
vt 0.010833 0.311667
vt 0.010833 0.311667
vt 0.010833 0.311667
vt 0.010833 0.311667
vt 0.010833 0.311667
vt 0.010833 0.311667
vt 0.010833 0.311667
vt 0.010833 0.311667
vt 0.010833 0.311667
vt 0.010833 0.311667
vt 0.010833 0.311667
vt 0.010833 0.311667
vt 0.010833 0.311667
vt 0.010833 0.311667
vt 0.010833 0.311667
vt 0.010833 0.311667
vt 0.010833 0.978333
vt 0.010833 0.978333
vt 0.010833 0.978333
vt 0.010833 0.978333
vt 0.010833 0.978333
vt 0.010833 0.978333
vt 0.010833 0.978333
vt 0.010833 0.978333
vt 0.010833 0.978333
vt 0.010833 0.978333
vt 0.010833 0.978333
vt 0.010833 0.978333
vt 0.010833 0.811667
vt 0.010833 0.811667
vt 0.010833 0.811667
vt 0.010833 0.811667
vt 0.010833 0.811667
vt 0.010833 0.811667
vt 0.010833 0.478333
vt 0.010833 0.478333
vt 0.010833 0.478333
vt 0.010833 0.645000
vt 0.010833 0.645000
vt 0.010833 0.645000
usemtl d6
f 9/1 10/2 11/3
f 9/4 11/5 12/6
f 13/7 14/8 15/9
f 13/10 15/11 16/12
f 17/13 18/14 19/15
f 17/16 19/17 20/18
f 21/19 22/20 23/21
f 21/22 23/23 24/24
f 25/25 26/26 27/27
f 25/28 27/29 28/30
f 29/31 30/32 31/33
f 29/34 31/35 32/36
f 9/37 10/38 34/39
f 9/40 34/41 33/42
f 33/43 34/44 36/45
f 33/46 36/47 35/48
f 35/49 36/50 38/51
f 35/52 38/53 37/54
f 37/55 38/56 40/57
f 37/58 40/59 39/60
f 39/61 40/62 14/63
f 39/64 14/65 15/66
f 10/67 11/68 42/69
f 10/70 42/71 41/72
f 41/73 42/74 44/75
f 41/76 44/77 43/78
f 43/79 44/80 46/81
f 43/82 46/83 45/84
f 45/85 46/86 48/87
f 45/88 48/89 47/90
f 47/91 48/92 17/93
f 47/94 17/95 18/96
f 11/97 12/98 50/99
f 11/100 50/101 49/102
f 49/103 50/104 52/105
f 49/106 52/107 51/108
f 51/109 52/110 54/111
f 51/112 54/113 53/114
f 53/115 54/116 56/117
f 53/118 56/119 55/120
f 55/121 56/122 26/123
f 55/124 26/125 27/126
f 12/127 9/128 58/129
f 12/130 58/131 57/132
f 57/133 58/134 60/135
f 57/136 60/137 59/138
f 59/139 60/140 62/141
f 59/142 62/143 61/144
f 61/145 62/146 64/147
f 61/148 64/149 63/150
f 63/151 64/152 22/153
f 63/154 22/155 23/156
f 13/157 14/158 66/159
f 13/160 66/161 65/162
f 65/163 66/164 68/165
f 65/166 68/167 67/168
f 67/169 68/170 70/171
f 67/172 70/173 69/174
f 69/175 70/176 72/177
f 69/178 72/179 71/180
f 71/181 72/182 18/183
f 71/184 18/185 19/186
f 15/187 16/188 74/189
f 15/190 74/191 73/192
f 73/193 74/194 76/195
f 73/196 76/197 75/198
f 75/199 76/200 78/201
f 75/202 78/203 77/204
f 77/205 78/206 80/207
f 77/208 80/209 79/210
f 79/211 80/212 21/213
f 79/214 21/215 22/216
f 16/217 13/218 82/219
f 16/220 82/221 81/222
f 81/223 82/224 84/225
f 81/226 84/227 83/228
f 83/229 84/230 86/231
f 83/232 86/233 85/234
f 85/235 86/236 88/237
f 85/238 88/239 87/240
f 87/241 88/242 30/243
f 87/244 30/245 31/246
f 19/247 20/248 90/249
f 19/250 90/251 89/252
f 89/253 90/254 92/255
f 89/256 92/257 91/258
f 91/259 92/260 94/261
f 91/262 94/263 93/264
f 93/265 94/266 96/267
f 93/268 96/269 95/270
f 95/271 96/272 29/273
f 95/274 29/275 30/276
f 20/277 17/278 98/279
f 20/280 98/281 97/282
f 97/283 98/284 100/285
f 97/286 100/287 99/288
f 99/289 100/290 102/291
f 99/292 102/293 101/294
f 101/295 102/296 104/297
f 101/298 104/299 103/300
f 103/301 104/302 27/303
f 103/304 27/305 28/306
f 23/307 24/308 106/309
f 23/310 106/311 105/312
f 105/313 106/314 108/315
f 105/316 108/317 107/318
f 107/319 108/320 110/321
f 107/322 110/323 109/324
f 109/325 110/326 112/327
f 109/328 112/329 111/330
f 111/331 112/332 25/333
f 111/334 25/335 26/336
f 24/337 21/338 114/339
f 24/340 114/341 113/342
f 113/343 114/344 116/345
f 113/346 116/347 115/348
f 115/349 116/350 118/351
f 115/352 118/353 117/354
f 117/355 118/356 120/357
f 117/358 120/359 119/360
f 119/361 120/362 31/363
f 119/364 31/365 32/366
f 28/367 25/368 122/369
f 28/370 122/371 121/372
f 121/373 122/374 124/375
f 121/376 124/377 123/378
f 123/379 124/380 126/381
f 123/382 126/383 125/384
f 125/385 126/386 128/387
f 125/388 128/389 127/390
f 127/391 128/392 32/393
f 127/394 32/395 29/396
f 14/397 18/398 10/399
f 22/400 15/401 9/402
f 26/403 23/404 12/405
f 17/406 27/407 11/408
f 30/409 19/410 13/411
f 31/412 16/413 21/414
f 32/415 24/416 25/417
f 29/418 28/419 20/420
