# d8 from qb64-dungeon (DICE3D)
# set: Amethyst Marble   bevel: 0.500000
# atlas is 1536x1024 -- the FIRST column is full-bright;
# the columns to its right are pre-darkened lighting levels the GAME samples.
# For rendering, light it yourself and use column 0 only (that is what these UVs use).
mtllib d8.mtl
o d8
v 1.000000 0.000000 0.000000
v -1.000000 0.000000 0.000000
v 0.000000 1.000000 0.000000
v 0.000000 -1.000000 0.000000
v 0.000000 0.000000 1.000000
v 0.000000 0.000000 -1.000000
v 0.030000 0.030000 0.940000
v 0.940000 0.030000 0.030000
v 0.030000 0.940000 0.030000
v 0.030000 0.940000 -0.030000
v 0.940000 0.030000 -0.030000
v 0.030000 0.030000 -0.940000
v 0.030000 -0.940000 0.030000
v 0.940000 -0.030000 0.030000
v 0.030000 -0.030000 0.940000
v 0.030000 -0.030000 -0.940000
v 0.940000 -0.030000 -0.030000
v 0.030000 -0.940000 -0.030000
v -0.030000 0.940000 0.030000
v -0.940000 0.030000 0.030000
v -0.030000 0.030000 0.940000
v -0.030000 0.030000 -0.940000
v -0.940000 0.030000 -0.030000
v -0.030000 0.940000 -0.030000
v -0.030000 -0.030000 0.940000
v -0.940000 -0.030000 0.030000
v -0.030000 -0.940000 0.030000
v -0.030000 -0.940000 -0.030000
v -0.940000 -0.030000 -0.030000
v -0.030000 -0.030000 -0.940000
v 0.020400 0.018000 0.959200
v 0.959200 0.018000 0.020400
v 0.015600 0.006000 0.968800
v 0.968800 0.006000 0.015600
v 0.015600 -0.006000 0.968800
v 0.968800 -0.006000 0.015600
v 0.020400 -0.018000 0.959200
v 0.959200 -0.018000 0.020400
v 0.959200 0.020400 0.018000
v 0.020400 0.959200 0.018000
v 0.968800 0.015600 0.006000
v 0.015600 0.968800 0.006000
v 0.968800 0.015600 -0.006000
v 0.015600 0.968800 -0.006000
v 0.959200 0.020400 -0.018000
v 0.020400 0.959200 -0.018000
v 0.018000 0.959200 0.020400
v 0.018000 0.020400 0.959200
v 0.006000 0.968800 0.015600
v 0.006000 0.015600 0.968800
v -0.006000 0.968800 0.015600
v -0.006000 0.015600 0.968800
v -0.018000 0.959200 0.020400
v -0.018000 0.020400 0.959200
v 0.959200 0.018000 -0.020400
v 0.020400 0.018000 -0.959200
v 0.968800 0.006000 -0.015600
v 0.015600 0.006000 -0.968800
v 0.968800 -0.006000 -0.015600
v 0.015600 -0.006000 -0.968800
v 0.959200 -0.018000 -0.020400
v 0.020400 -0.018000 -0.959200
v 0.018000 0.020400 -0.959200
v 0.018000 0.959200 -0.020400
v 0.006000 0.015600 -0.968800
v 0.006000 0.968800 -0.015600
v -0.006000 0.015600 -0.968800
v -0.006000 0.968800 -0.015600
v -0.018000 0.020400 -0.959200
v -0.018000 0.959200 -0.020400
v 0.020400 -0.959200 0.018000
v 0.959200 -0.020400 0.018000
v 0.015600 -0.968800 0.006000
v 0.968800 -0.015600 0.006000
v 0.015600 -0.968800 -0.006000
v 0.968800 -0.015600 -0.006000
v 0.020400 -0.959200 -0.018000
v 0.959200 -0.020400 -0.018000
v 0.018000 -0.020400 0.959200
v 0.018000 -0.959200 0.020400
v 0.006000 -0.015600 0.968800
v 0.006000 -0.968800 0.015600
v -0.006000 -0.015600 0.968800
v -0.006000 -0.968800 0.015600
v -0.018000 -0.020400 0.959200
v -0.018000 -0.959200 0.020400
v 0.018000 -0.959200 -0.020400
v 0.018000 -0.020400 -0.959200
v 0.006000 -0.968800 -0.015600
v 0.006000 -0.015600 -0.968800
v -0.006000 -0.968800 -0.015600
v -0.006000 -0.015600 -0.968800
v -0.018000 -0.959200 -0.020400
v -0.018000 -0.020400 -0.959200
v -0.020400 0.959200 0.018000
v -0.959200 0.020400 0.018000
v -0.015600 0.968800 0.006000
v -0.968800 0.015600 0.006000
v -0.015600 0.968800 -0.006000
v -0.968800 0.015600 -0.006000
v -0.020400 0.959200 -0.018000
v -0.959200 0.020400 -0.018000
v -0.959200 0.018000 0.020400
v -0.020400 0.018000 0.959200
v -0.968800 0.006000 0.015600
v -0.015600 0.006000 0.968800
v -0.968800 -0.006000 0.015600
v -0.015600 -0.006000 0.968800
v -0.959200 -0.018000 0.020400
v -0.020400 -0.018000 0.959200
v -0.020400 0.018000 -0.959200
v -0.959200 0.018000 -0.020400
v -0.015600 0.006000 -0.968800
v -0.968800 0.006000 -0.015600
v -0.015600 -0.006000 -0.968800
v -0.968800 -0.006000 -0.015600
v -0.020400 -0.018000 -0.959200
v -0.959200 -0.018000 -0.020400
v -0.959200 -0.020400 0.018000
v -0.020400 -0.959200 0.018000
v -0.968800 -0.015600 0.006000
v -0.015600 -0.968800 0.006000
v -0.968800 -0.015600 -0.006000
v -0.015600 -0.968800 -0.006000
v -0.959200 -0.020400 -0.018000
v -0.020400 -0.959200 -0.018000
vt 0.012348 0.912109
vt 0.070985 0.912109
vt 0.041667 0.988281
vt 0.012348 0.787109
vt 0.070985 0.787109
vt 0.041667 0.863281
vt 0.012348 0.662109
vt 0.070985 0.662109
vt 0.041667 0.738281
vt 0.012348 0.537109
vt 0.070985 0.537109
vt 0.041667 0.613281
vt 0.012348 0.412109
vt 0.070985 0.412109
vt 0.041667 0.488281
vt 0.012348 0.287109
vt 0.070985 0.287109
vt 0.041667 0.363281
vt 0.012348 0.162109
vt 0.070985 0.162109
vt 0.041667 0.238281
vt 0.012348 0.037109
vt 0.070985 0.037109
vt 0.041667 0.113281
vt 0.010833 0.983750
vt 0.010833 0.983750
vt 0.010833 0.983750
vt 0.010833 0.983750
vt 0.010833 0.983750
vt 0.010833 0.983750
vt 0.010833 0.983750
vt 0.010833 0.983750
vt 0.010833 0.983750
vt 0.010833 0.983750
vt 0.010833 0.983750
vt 0.010833 0.983750
vt 0.010833 0.983750
vt 0.010833 0.983750
vt 0.010833 0.983750
vt 0.010833 0.983750
vt 0.010833 0.983750
vt 0.010833 0.983750
vt 0.010833 0.983750
vt 0.010833 0.983750
vt 0.010833 0.983750
vt 0.010833 0.983750
vt 0.010833 0.983750
vt 0.010833 0.983750
vt 0.010833 0.983750
vt 0.010833 0.983750
vt 0.010833 0.983750
vt 0.010833 0.983750
vt 0.010833 0.983750
vt 0.010833 0.983750
vt 0.010833 0.983750
vt 0.010833 0.983750
vt 0.010833 0.983750
vt 0.010833 0.983750
vt 0.010833 0.983750
vt 0.010833 0.983750
vt 0.010833 0.983750
vt 0.010833 0.983750
vt 0.010833 0.983750
vt 0.010833 0.983750
vt 0.010833 0.983750
vt 0.010833 0.983750
vt 0.010833 0.983750
vt 0.010833 0.983750
vt 0.010833 0.983750
vt 0.010833 0.983750
vt 0.010833 0.983750
vt 0.010833 0.983750
vt 0.010833 0.983750
vt 0.010833 0.983750
vt 0.010833 0.983750
vt 0.010833 0.983750
vt 0.010833 0.983750
vt 0.010833 0.983750
vt 0.010833 0.983750
vt 0.010833 0.983750
vt 0.010833 0.983750
vt 0.010833 0.983750
vt 0.010833 0.983750
vt 0.010833 0.983750
vt 0.010833 0.983750
vt 0.010833 0.983750
vt 0.010833 0.983750
vt 0.010833 0.983750
vt 0.010833 0.983750
vt 0.010833 0.983750
vt 0.010833 0.983750
vt 0.010833 0.983750
vt 0.010833 0.983750
vt 0.010833 0.983750
vt 0.010833 0.983750
vt 0.010833 0.983750
vt 0.010833 0.983750
vt 0.010833 0.983750
vt 0.010833 0.983750
vt 0.010833 0.983750
vt 0.010833 0.983750
vt 0.010833 0.983750
vt 0.010833 0.983750
vt 0.010833 0.983750
vt 0.010833 0.983750
vt 0.010833 0.983750
vt 0.010833 0.983750
vt 0.010833 0.983750
vt 0.010833 0.983750
vt 0.010833 0.983750
vt 0.010833 0.983750
vt 0.010833 0.983750
vt 0.010833 0.983750
vt 0.010833 0.983750
vt 0.010833 0.858750
vt 0.010833 0.858750
vt 0.010833 0.858750
vt 0.010833 0.858750
vt 0.010833 0.858750
vt 0.010833 0.858750
vt 0.010833 0.858750
vt 0.010833 0.858750
vt 0.010833 0.858750
vt 0.010833 0.858750
vt 0.010833 0.858750
vt 0.010833 0.858750
vt 0.010833 0.858750
vt 0.010833 0.858750
vt 0.010833 0.858750
vt 0.010833 0.858750
vt 0.010833 0.858750
vt 0.010833 0.858750
vt 0.010833 0.858750
vt 0.010833 0.858750
vt 0.010833 0.858750
vt 0.010833 0.858750
vt 0.010833 0.858750
vt 0.010833 0.858750
vt 0.010833 0.858750
vt 0.010833 0.858750
vt 0.010833 0.858750
vt 0.010833 0.858750
vt 0.010833 0.858750
vt 0.010833 0.858750
vt 0.010833 0.858750
vt 0.010833 0.858750
vt 0.010833 0.858750
vt 0.010833 0.858750
vt 0.010833 0.858750
vt 0.010833 0.858750
vt 0.010833 0.858750
vt 0.010833 0.858750
vt 0.010833 0.858750
vt 0.010833 0.858750
vt 0.010833 0.858750
vt 0.010833 0.858750
vt 0.010833 0.858750
vt 0.010833 0.858750
vt 0.010833 0.858750
vt 0.010833 0.858750
vt 0.010833 0.858750
vt 0.010833 0.858750
vt 0.010833 0.858750
vt 0.010833 0.858750
vt 0.010833 0.858750
vt 0.010833 0.858750
vt 0.010833 0.858750
vt 0.010833 0.858750
vt 0.010833 0.858750
vt 0.010833 0.858750
vt 0.010833 0.858750
vt 0.010833 0.858750
vt 0.010833 0.858750
vt 0.010833 0.858750
vt 0.010833 0.733750
vt 0.010833 0.733750
vt 0.010833 0.733750
vt 0.010833 0.733750
vt 0.010833 0.733750
vt 0.010833 0.733750
vt 0.010833 0.733750
vt 0.010833 0.733750
vt 0.010833 0.733750
vt 0.010833 0.733750
vt 0.010833 0.733750
vt 0.010833 0.733750
vt 0.010833 0.733750
vt 0.010833 0.733750
vt 0.010833 0.733750
vt 0.010833 0.733750
vt 0.010833 0.733750
vt 0.010833 0.733750
vt 0.010833 0.733750
vt 0.010833 0.733750
vt 0.010833 0.733750
vt 0.010833 0.733750
vt 0.010833 0.733750
vt 0.010833 0.733750
vt 0.010833 0.733750
vt 0.010833 0.733750
vt 0.010833 0.733750
vt 0.010833 0.733750
vt 0.010833 0.733750
vt 0.010833 0.733750
vt 0.010833 0.733750
vt 0.010833 0.733750
vt 0.010833 0.733750
vt 0.010833 0.733750
vt 0.010833 0.733750
vt 0.010833 0.733750
vt 0.010833 0.733750
vt 0.010833 0.733750
vt 0.010833 0.733750
vt 0.010833 0.733750
vt 0.010833 0.733750
vt 0.010833 0.733750
vt 0.010833 0.733750
vt 0.010833 0.733750
vt 0.010833 0.733750
vt 0.010833 0.733750
vt 0.010833 0.733750
vt 0.010833 0.733750
vt 0.010833 0.733750
vt 0.010833 0.733750
vt 0.010833 0.733750
vt 0.010833 0.733750
vt 0.010833 0.733750
vt 0.010833 0.733750
vt 0.010833 0.733750
vt 0.010833 0.733750
vt 0.010833 0.733750
vt 0.010833 0.733750
vt 0.010833 0.733750
vt 0.010833 0.733750
vt 0.010833 0.608750
vt 0.010833 0.608750
vt 0.010833 0.608750
vt 0.010833 0.608750
vt 0.010833 0.608750
vt 0.010833 0.608750
vt 0.010833 0.608750
vt 0.010833 0.608750
vt 0.010833 0.608750
vt 0.010833 0.608750
vt 0.010833 0.608750
vt 0.010833 0.608750
vt 0.010833 0.608750
vt 0.010833 0.608750
vt 0.010833 0.608750
vt 0.010833 0.608750
vt 0.010833 0.608750
vt 0.010833 0.608750
vt 0.010833 0.608750
vt 0.010833 0.608750
vt 0.010833 0.608750
vt 0.010833 0.608750
vt 0.010833 0.608750
vt 0.010833 0.608750
vt 0.010833 0.608750
vt 0.010833 0.608750
vt 0.010833 0.608750
vt 0.010833 0.608750
vt 0.010833 0.608750
vt 0.010833 0.608750
vt 0.010833 0.483750
vt 0.010833 0.483750
vt 0.010833 0.483750
vt 0.010833 0.483750
vt 0.010833 0.483750
vt 0.010833 0.483750
vt 0.010833 0.483750
vt 0.010833 0.483750
vt 0.010833 0.483750
vt 0.010833 0.483750
vt 0.010833 0.483750
vt 0.010833 0.483750
vt 0.010833 0.483750
vt 0.010833 0.483750
vt 0.010833 0.483750
vt 0.010833 0.483750
vt 0.010833 0.483750
vt 0.010833 0.483750
vt 0.010833 0.483750
vt 0.010833 0.483750
vt 0.010833 0.483750
vt 0.010833 0.483750
vt 0.010833 0.483750
vt 0.010833 0.483750
vt 0.010833 0.483750
vt 0.010833 0.483750
vt 0.010833 0.483750
vt 0.010833 0.483750
vt 0.010833 0.483750
vt 0.010833 0.483750
vt 0.010833 0.483750
vt 0.010833 0.483750
vt 0.010833 0.483750
vt 0.010833 0.483750
vt 0.010833 0.483750
vt 0.010833 0.483750
vt 0.010833 0.483750
vt 0.010833 0.483750
vt 0.010833 0.483750
vt 0.010833 0.483750
vt 0.010833 0.483750
vt 0.010833 0.483750
vt 0.010833 0.483750
vt 0.010833 0.483750
vt 0.010833 0.483750
vt 0.010833 0.483750
vt 0.010833 0.483750
vt 0.010833 0.483750
vt 0.010833 0.483750
vt 0.010833 0.483750
vt 0.010833 0.483750
vt 0.010833 0.483750
vt 0.010833 0.483750
vt 0.010833 0.483750
vt 0.010833 0.483750
vt 0.010833 0.483750
vt 0.010833 0.483750
vt 0.010833 0.483750
vt 0.010833 0.483750
vt 0.010833 0.483750
vt 0.010833 0.358750
vt 0.010833 0.358750
vt 0.010833 0.358750
vt 0.010833 0.358750
vt 0.010833 0.358750
vt 0.010833 0.358750
vt 0.010833 0.358750
vt 0.010833 0.358750
vt 0.010833 0.358750
vt 0.010833 0.358750
vt 0.010833 0.358750
vt 0.010833 0.358750
vt 0.010833 0.358750
vt 0.010833 0.358750
vt 0.010833 0.358750
vt 0.010833 0.358750
vt 0.010833 0.358750
vt 0.010833 0.358750
vt 0.010833 0.358750
vt 0.010833 0.358750
vt 0.010833 0.358750
vt 0.010833 0.358750
vt 0.010833 0.358750
vt 0.010833 0.358750
vt 0.010833 0.358750
vt 0.010833 0.358750
vt 0.010833 0.358750
vt 0.010833 0.358750
vt 0.010833 0.358750
vt 0.010833 0.358750
vt 0.010833 0.233750
vt 0.010833 0.233750
vt 0.010833 0.233750
vt 0.010833 0.233750
vt 0.010833 0.233750
vt 0.010833 0.233750
vt 0.010833 0.233750
vt 0.010833 0.233750
vt 0.010833 0.233750
vt 0.010833 0.233750
vt 0.010833 0.233750
vt 0.010833 0.233750
vt 0.010833 0.233750
vt 0.010833 0.233750
vt 0.010833 0.233750
vt 0.010833 0.233750
vt 0.010833 0.233750
vt 0.010833 0.233750
vt 0.010833 0.233750
vt 0.010833 0.233750
vt 0.010833 0.233750
vt 0.010833 0.233750
vt 0.010833 0.233750
vt 0.010833 0.233750
vt 0.010833 0.233750
vt 0.010833 0.233750
vt 0.010833 0.233750
vt 0.010833 0.233750
vt 0.010833 0.233750
vt 0.010833 0.233750
vt 0.010833 0.983750
vt 0.010833 0.983750
vt 0.010833 0.983750
vt 0.010833 0.983750
vt 0.010833 0.983750
vt 0.010833 0.983750
vt 0.010833 0.483750
vt 0.010833 0.483750
vt 0.010833 0.483750
vt 0.010833 0.483750
vt 0.010833 0.483750
vt 0.010833 0.483750
vt 0.010833 0.983750
vt 0.010833 0.983750
vt 0.010833 0.983750
vt 0.010833 0.983750
vt 0.010833 0.983750
vt 0.010833 0.983750
vt 0.010833 0.733750
vt 0.010833 0.733750
vt 0.010833 0.733750
vt 0.010833 0.733750
vt 0.010833 0.733750
vt 0.010833 0.733750
vt 0.010833 0.983750
vt 0.010833 0.983750
vt 0.010833 0.983750
vt 0.010833 0.983750
vt 0.010833 0.983750
vt 0.010833 0.983750
vt 0.010833 0.858750
vt 0.010833 0.858750
vt 0.010833 0.858750
vt 0.010833 0.858750
vt 0.010833 0.858750
vt 0.010833 0.858750
usemtl d8
f 7/1 8/2 9/3
f 10/4 11/5 12/6
f 13/7 14/8 15/9
f 16/10 17/11 18/12
f 19/13 20/14 21/15
f 22/16 23/17 24/18
f 25/19 26/20 27/21
f 28/22 29/23 30/24
f 7/25 8/26 32/27
f 7/28 32/29 31/30
f 31/31 32/32 34/33
f 31/34 34/35 33/36
f 33/37 34/38 36/39
f 33/40 36/41 35/42
f 35/43 36/44 38/45
f 35/46 38/47 37/48
f 37/49 38/50 14/51
f 37/52 14/53 15/54
f 8/55 9/56 40/57
f 8/58 40/59 39/60
f 39/61 40/62 42/63
f 39/64 42/65 41/66
f 41/67 42/68 44/69
f 41/70 44/71 43/72
f 43/73 44/74 46/75
f 43/76 46/77 45/78
f 45/79 46/80 10/81
f 45/82 10/83 11/84
f 9/85 7/86 48/87
f 9/88 48/89 47/90
f 47/91 48/92 50/93
f 47/94 50/95 49/96
f 49/97 50/98 52/99
f 49/100 52/101 51/102
f 51/103 52/104 54/105
f 51/106 54/107 53/108
f 53/109 54/110 21/111
f 53/112 21/113 19/114
f 11/115 12/116 56/117
f 11/118 56/119 55/120
f 55/121 56/122 58/123
f 55/124 58/125 57/126
f 57/127 58/128 60/129
f 57/130 60/131 59/132
f 59/133 60/134 62/135
f 59/136 62/137 61/138
f 61/139 62/140 16/141
f 61/142 16/143 17/144
f 12/145 10/146 64/147
f 12/148 64/149 63/150
f 63/151 64/152 66/153
f 63/154 66/155 65/156
f 65/157 66/158 68/159
f 65/160 68/161 67/162
f 67/163 68/164 70/165
f 67/166 70/167 69/168
f 69/169 70/170 24/171
f 69/172 24/173 22/174
f 13/175 14/176 72/177
f 13/178 72/179 71/180
f 71/181 72/182 74/183
f 71/184 74/185 73/186
f 73/187 74/188 76/189
f 73/190 76/191 75/192
f 75/193 76/194 78/195
f 75/196 78/197 77/198
f 77/199 78/200 17/201
f 77/202 17/203 18/204
f 15/205 13/206 80/207
f 15/208 80/209 79/210
f 79/211 80/212 82/213
f 79/214 82/215 81/216
f 81/217 82/218 84/219
f 81/220 84/221 83/222
f 83/223 84/224 86/225
f 83/226 86/227 85/228
f 85/229 86/230 27/231
f 85/232 27/233 25/234
f 18/235 16/236 88/237
f 18/238 88/239 87/240
f 87/241 88/242 90/243
f 87/244 90/245 89/246
f 89/247 90/248 92/249
f 89/250 92/251 91/252
f 91/253 92/254 94/255
f 91/256 94/257 93/258
f 93/259 94/260 30/261
f 93/262 30/263 28/264
f 19/265 20/266 96/267
f 19/268 96/269 95/270
f 95/271 96/272 98/273
f 95/274 98/275 97/276
f 97/277 98/278 100/279
f 97/280 100/281 99/282
f 99/283 100/284 102/285
f 99/286 102/287 101/288
f 101/289 102/290 23/291
f 101/292 23/293 24/294
f 20/295 21/296 104/297
f 20/298 104/299 103/300
f 103/301 104/302 106/303
f 103/304 106/305 105/306
f 105/307 106/308 108/309
f 105/310 108/311 107/312
f 107/313 108/314 110/315
f 107/316 110/317 109/318
f 109/319 110/320 25/321
f 109/322 25/323 26/324
f 22/325 23/326 112/327
f 22/328 112/329 111/330
f 111/331 112/332 114/333
f 111/334 114/335 113/336
f 113/337 114/338 116/339
f 113/340 116/341 115/342
f 115/343 116/344 118/345
f 115/346 118/347 117/348
f 117/349 118/350 29/351
f 117/352 29/353 30/354
f 26/355 27/356 120/357
f 26/358 120/359 119/360
f 119/361 120/362 122/363
f 119/364 122/365 121/366
f 121/367 122/368 124/369
f 121/370 124/371 123/372
f 123/373 124/374 126/375
f 123/376 126/377 125/378
f 125/379 126/380 28/381
f 125/382 28/383 29/384
f 8/385 14/386 17/387
f 8/388 17/389 11/390
f 26/391 20/392 23/393
f 26/394 23/395 29/396
f 19/397 9/398 10/399
f 19/400 10/401 24/402
f 13/403 27/404 28/405
f 13/406 28/407 18/408
f 15/409 7/410 21/411
f 15/412 21/413 25/414
f 12/415 16/416 30/417
f 12/418 30/419 22/420
